M48
; DRILL file {KiCad (5.1.10)-1} date 10/11/21 22:16:15
; FORMAT={-:-/ absolute / inch / decimal}
; #@! TF.CreationDate,2021-10-11T22:16:15-07:00
; #@! TF.GenerationSoftware,Kicad,Pcbnew,(5.1.10)-1
; #@! TF.FileFunction,Plated,1,2,PTH
FMAT,2
INCH
T1C0.0150
T2C0.0155
T3C0.0157
T4C0.0236
T5C0.0984
%
G90
G05
T1
X6.4413Y-4.3626
X6.5427Y-4.3555
X6.5888Y-4.2152
X6.6201Y-4.2795
X6.7088Y-4.1852
X6.7778Y-4.1152
X6.7902Y-4.2693
X6.8185Y-4.228
X6.8185Y-4.3902
T2
X6.4565Y-4.154
X6.4765Y-3.984
X6.499Y-4.1515
X6.535Y-3.9839
T3
X4.9015Y-4.029
X4.904Y-4.1315
X4.929Y-3.974
X4.929Y-4.194
X4.994Y-4.1665
X5.0176Y-4.0039
X5.0915Y-4.304
X5.144Y-3.8215
X5.1515Y-4.384
X5.1866Y-3.8681
X5.1866Y-3.8681
X5.1954Y-4.0501
X5.214Y-3.679
X5.224Y-4.1565
X5.2316Y-4.1114
X5.289Y-4.2265
X5.3165Y-4.314
X5.3415Y-4.104
X5.349Y-3.674
X5.3632Y-3.8089
X5.4115Y-3.889
X5.4625Y-4.2005
X5.4965Y-4.0565
X5.5075Y-4.318
X5.5515Y-3.9185
X5.5846Y-3.9268
X5.5865Y-4.174
X5.634Y-4.3415
X5.649Y-3.854
X5.649Y-3.914
X5.7115Y-3.9765
X5.7181Y-3.887
X5.7618Y-4.2591
X5.7705Y-3.9579
X5.7862Y-4.4008
X5.8015Y-3.8815
X5.8209Y-4.074
X5.826Y-4.347
X5.8435Y-3.757
X5.8654Y-4.1843
X5.878Y-3.9886
X6.0235Y-4.317
X6.024Y-4.3665
X6.0815Y-4.3665
X6.1123Y-4.0765
X6.154Y-3.884
X6.156Y-4.042
X6.156Y-4.1295
X6.1815Y-4.264
X6.1859Y-3.8821
X6.2189Y-4.3886
X6.2248Y-3.7146
X6.246Y-4.0395
X6.2485Y-4.1295
X6.2535Y-3.772
X6.3165Y-4.269
X6.3362Y-3.6874
X6.371Y-3.787
X6.3815Y-4.104
X6.3915Y-4.144
X6.441Y-3.9045
X6.4594Y-3.7079
X6.4717Y-4.3244
X6.502Y-4.3925
X6.5173Y-4.313
X6.5358Y-3.6854
X6.5602Y-4.1492
X6.6386Y-4.0925
X6.648Y-4.0429
X6.6839Y-4.0193
X6.802Y-3.9311
T4
X4.9014Y-3.9139
X4.9014Y-4.2541
X5.0659Y-3.9139
X5.0659Y-4.2541
T5
X4.9465Y-3.734
X4.9465Y-4.434
T0
M30
