M48
; DRILL file {KiCad (5.1.10)-1} date 10/05/21 18:11:10
; FORMAT={-:-/ absolute / metric / decimal}
; #@! TF.CreationDate,2021-10-05T18:11:10-07:00
; #@! TF.GenerationSoftware,Kicad,Pcbnew,(5.1.10)-1
; #@! TF.FileFunction,Plated,1,2,PTH
FMAT,2
METRIC
T1C0.381
T2C0.394
T3C0.400
T4C0.600
T5C2.500
%
G90
G05
T1
X163.61Y-110.81
X166.185Y-110.63
X167.356Y-107.066
X168.12Y-107.52
X168.645Y-111.59
X169.42Y-111.715
X169.57Y-113.29
X170.404Y-106.304
X172.156Y-104.526
X172.36Y-113.29
X172.47Y-108.44
X173.19Y-107.39
X173.19Y-111.51
T2
X157.772Y-99.098
X163.995Y-105.512
X164.503Y-101.194
X165.075Y-105.448
X165.99Y-101.19
T3
X124.498Y-102.337
X124.562Y-104.94
X125.197Y-100.94
X125.197Y-106.528
X126.848Y-105.829
X127.446Y-101.7
X129.324Y-109.322
X130.658Y-97.066
X130.848Y-111.354
X131.674Y-98.463
X131.775Y-99.809
X131.962Y-102.874
X132.436Y-93.447
X132.69Y-105.575
X132.882Y-104.429
X134.341Y-107.353
X134.531Y-112.306
X135.039Y-109.576
X135.674Y-104.242
X135.865Y-93.32
X137.452Y-98.781
X138.748Y-106.693
X139.611Y-103.035
X139.891Y-109.677
X141.008Y-99.53
X141.85Y-99.74
X141.897Y-106.02
X143.104Y-110.274
X143.485Y-97.892
X143.485Y-99.416
X145.072Y-101.003
X145.24Y-98.73
X146.35Y-108.18
X146.57Y-100.53
X147.358Y-98.59
X147.85Y-103.48
X147.98Y-110.414
X148.425Y-95.428
X148.98Y-106.28
X149.3Y-101.31
X152.997Y-109.652
X153.01Y-110.909
X154.47Y-110.909
X155.254Y-103.543
X156.312Y-98.654
X156.362Y-102.667
X156.362Y-104.889
X157.01Y-108.306
X157.121Y-98.604
X158.648Y-102.603
X158.712Y-104.889
X158.839Y-95.809
X159.931Y-98.844
X160.439Y-108.433
X160.722Y-99.479
X160.94Y-93.66
X161.823Y-96.19
X162.09Y-104.242
X162.344Y-105.258
X163.24Y-93.74
X163.601Y-99.174
X164.07Y-94.18
X165.54Y-109.55
X166.63Y-105.39
X168.62Y-103.95
X168.86Y-102.69
X169.0Y-93.87
X169.771Y-102.089
X172.77Y-99.85
T4
X124.495Y-99.414
X124.495Y-108.054
X128.675Y-99.414
X128.675Y-108.054
T5
X125.641Y-94.844
X125.641Y-112.624
T0
M30
