%TF.GenerationSoftware,KiCad,Pcbnew,(5.1.10)-1*%
%TF.CreationDate,2021-10-11T22:16:09-07:00*%
%TF.ProjectId,pcbschem,70636273-6368-4656-9d2e-6b696361645f,rev?*%
%TF.SameCoordinates,Original*%
%TF.FileFunction,Legend,Top*%
%TF.FilePolarity,Positive*%
%FSLAX46Y46*%
G04 Gerber Fmt 4.6, Leading zero omitted, Abs format (unit mm)*
G04 Created by KiCad (PCBNEW (5.1.10)-1) date 2021-10-11 22:16:09*
%MOMM*%
%LPD*%
G01*
G04 APERTURE LIST*
%ADD10C,0.100000*%
%ADD11C,0.150000*%
%ADD12C,0.300000*%
%ADD13C,0.400000*%
%ADD14C,0.121920*%
%ADD15C,0.381000*%
%ADD16C,0.203200*%
%ADD17C,0.152400*%
%ADD18C,0.127000*%
%ADD19C,0.304800*%
%ADD20C,0.101600*%
%ADD21C,0.032512*%
%ADD22C,0.138988*%
%ADD23C,0.065024*%
%ADD24C,0.146304*%
G04 APERTURE END LIST*
D10*
D11*
X177002200Y-166007200D02*
X177002200Y-198007200D01*
X285002200Y-198007200D01*
X285002200Y-166007200D01*
X177002200Y-166007200D01*
D10*
D11*
X10000000Y-10000000D02*
X10000000Y-200007200D01*
X287002200Y-200007200D01*
X287002200Y-10000000D01*
X10000000Y-10000000D01*
D10*
D11*
X12000000Y-12000000D02*
X12000000Y-198007200D01*
X285002200Y-198007200D01*
X285002200Y-12000000D01*
X12000000Y-12000000D01*
D10*
D11*
X60000000Y-12000000D02*
X60000000Y-10000000D01*
D10*
D11*
X110000000Y-12000000D02*
X110000000Y-10000000D01*
D10*
D11*
X160000000Y-12000000D02*
X160000000Y-10000000D01*
D10*
D11*
X210000000Y-12000000D02*
X210000000Y-10000000D01*
D10*
D11*
X260000000Y-12000000D02*
X260000000Y-10000000D01*
D10*
D11*
X36065476Y-11588095D02*
X35322619Y-11588095D01*
X35694047Y-11588095D02*
X35694047Y-10288095D01*
X35570238Y-10473809D01*
X35446428Y-10597619D01*
X35322619Y-10659523D01*
D10*
D11*
X85322619Y-10411904D02*
X85384523Y-10350000D01*
X85508333Y-10288095D01*
X85817857Y-10288095D01*
X85941666Y-10350000D01*
X86003571Y-10411904D01*
X86065476Y-10535714D01*
X86065476Y-10659523D01*
X86003571Y-10845238D01*
X85260714Y-11588095D01*
X86065476Y-11588095D01*
D10*
D11*
X135260714Y-10288095D02*
X136065476Y-10288095D01*
X135632142Y-10783333D01*
X135817857Y-10783333D01*
X135941666Y-10845238D01*
X136003571Y-10907142D01*
X136065476Y-11030952D01*
X136065476Y-11340476D01*
X136003571Y-11464285D01*
X135941666Y-11526190D01*
X135817857Y-11588095D01*
X135446428Y-11588095D01*
X135322619Y-11526190D01*
X135260714Y-11464285D01*
D10*
D11*
X185941666Y-10721428D02*
X185941666Y-11588095D01*
X185632142Y-10226190D02*
X185322619Y-11154761D01*
X186127380Y-11154761D01*
D10*
D11*
X236003571Y-10288095D02*
X235384523Y-10288095D01*
X235322619Y-10907142D01*
X235384523Y-10845238D01*
X235508333Y-10783333D01*
X235817857Y-10783333D01*
X235941666Y-10845238D01*
X236003571Y-10907142D01*
X236065476Y-11030952D01*
X236065476Y-11340476D01*
X236003571Y-11464285D01*
X235941666Y-11526190D01*
X235817857Y-11588095D01*
X235508333Y-11588095D01*
X235384523Y-11526190D01*
X235322619Y-11464285D01*
D10*
D11*
X285941666Y-10288095D02*
X285694047Y-10288095D01*
X285570238Y-10350000D01*
X285508333Y-10411904D01*
X285384523Y-10597619D01*
X285322619Y-10845238D01*
X285322619Y-11340476D01*
X285384523Y-11464285D01*
X285446428Y-11526190D01*
X285570238Y-11588095D01*
X285817857Y-11588095D01*
X285941666Y-11526190D01*
X286003571Y-11464285D01*
X286065476Y-11340476D01*
X286065476Y-11030952D01*
X286003571Y-10907142D01*
X285941666Y-10845238D01*
X285817857Y-10783333D01*
X285570238Y-10783333D01*
X285446428Y-10845238D01*
X285384523Y-10907142D01*
X285322619Y-11030952D01*
D10*
D11*
X60000000Y-198007200D02*
X60000000Y-200007200D01*
D10*
D11*
X110000000Y-198007200D02*
X110000000Y-200007200D01*
D10*
D11*
X160000000Y-198007200D02*
X160000000Y-200007200D01*
D10*
D11*
X210000000Y-198007200D02*
X210000000Y-200007200D01*
D10*
D11*
X260000000Y-198007200D02*
X260000000Y-200007200D01*
D10*
D11*
X36065476Y-199595295D02*
X35322619Y-199595295D01*
X35694047Y-199595295D02*
X35694047Y-198295295D01*
X35570238Y-198481009D01*
X35446428Y-198604819D01*
X35322619Y-198666723D01*
D10*
D11*
X85322619Y-198419104D02*
X85384523Y-198357200D01*
X85508333Y-198295295D01*
X85817857Y-198295295D01*
X85941666Y-198357200D01*
X86003571Y-198419104D01*
X86065476Y-198542914D01*
X86065476Y-198666723D01*
X86003571Y-198852438D01*
X85260714Y-199595295D01*
X86065476Y-199595295D01*
D10*
D11*
X135260714Y-198295295D02*
X136065476Y-198295295D01*
X135632142Y-198790533D01*
X135817857Y-198790533D01*
X135941666Y-198852438D01*
X136003571Y-198914342D01*
X136065476Y-199038152D01*
X136065476Y-199347676D01*
X136003571Y-199471485D01*
X135941666Y-199533390D01*
X135817857Y-199595295D01*
X135446428Y-199595295D01*
X135322619Y-199533390D01*
X135260714Y-199471485D01*
D10*
D11*
X185941666Y-198728628D02*
X185941666Y-199595295D01*
X185632142Y-198233390D02*
X185322619Y-199161961D01*
X186127380Y-199161961D01*
D10*
D11*
X236003571Y-198295295D02*
X235384523Y-198295295D01*
X235322619Y-198914342D01*
X235384523Y-198852438D01*
X235508333Y-198790533D01*
X235817857Y-198790533D01*
X235941666Y-198852438D01*
X236003571Y-198914342D01*
X236065476Y-199038152D01*
X236065476Y-199347676D01*
X236003571Y-199471485D01*
X235941666Y-199533390D01*
X235817857Y-199595295D01*
X235508333Y-199595295D01*
X235384523Y-199533390D01*
X235322619Y-199471485D01*
D10*
D11*
X285941666Y-198295295D02*
X285694047Y-198295295D01*
X285570238Y-198357200D01*
X285508333Y-198419104D01*
X285384523Y-198604819D01*
X285322619Y-198852438D01*
X285322619Y-199347676D01*
X285384523Y-199471485D01*
X285446428Y-199533390D01*
X285570238Y-199595295D01*
X285817857Y-199595295D01*
X285941666Y-199533390D01*
X286003571Y-199471485D01*
X286065476Y-199347676D01*
X286065476Y-199038152D01*
X286003571Y-198914342D01*
X285941666Y-198852438D01*
X285817857Y-198790533D01*
X285570238Y-198790533D01*
X285446428Y-198852438D01*
X285384523Y-198914342D01*
X285322619Y-199038152D01*
D10*
D11*
X10000000Y-60000000D02*
X12000000Y-60000000D01*
D10*
D11*
X10000000Y-110000000D02*
X12000000Y-110000000D01*
D10*
D11*
X10000000Y-160000000D02*
X12000000Y-160000000D01*
D10*
D11*
X10690476Y-35216666D02*
X11309523Y-35216666D01*
X10566666Y-35588095D02*
X11000000Y-34288095D01*
X11433333Y-35588095D01*
D10*
D11*
X11092857Y-84907142D02*
X11278571Y-84969047D01*
X11340476Y-85030952D01*
X11402380Y-85154761D01*
X11402380Y-85340476D01*
X11340476Y-85464285D01*
X11278571Y-85526190D01*
X11154761Y-85588095D01*
X10659523Y-85588095D01*
X10659523Y-84288095D01*
X11092857Y-84288095D01*
X11216666Y-84350000D01*
X11278571Y-84411904D01*
X11340476Y-84535714D01*
X11340476Y-84659523D01*
X11278571Y-84783333D01*
X11216666Y-84845238D01*
X11092857Y-84907142D01*
X10659523Y-84907142D01*
D10*
D11*
X11402380Y-135464285D02*
X11340476Y-135526190D01*
X11154761Y-135588095D01*
X11030952Y-135588095D01*
X10845238Y-135526190D01*
X10721428Y-135402380D01*
X10659523Y-135278571D01*
X10597619Y-135030952D01*
X10597619Y-134845238D01*
X10659523Y-134597619D01*
X10721428Y-134473809D01*
X10845238Y-134350000D01*
X11030952Y-134288095D01*
X11154761Y-134288095D01*
X11340476Y-134350000D01*
X11402380Y-134411904D01*
D10*
D11*
X10659523Y-185588095D02*
X10659523Y-184288095D01*
X10969047Y-184288095D01*
X11154761Y-184350000D01*
X11278571Y-184473809D01*
X11340476Y-184597619D01*
X11402380Y-184845238D01*
X11402380Y-185030952D01*
X11340476Y-185278571D01*
X11278571Y-185402380D01*
X11154761Y-185526190D01*
X10969047Y-185588095D01*
X10659523Y-185588095D01*
D10*
D11*
X287002200Y-60000000D02*
X285002200Y-60000000D01*
D10*
D11*
X287002200Y-110000000D02*
X285002200Y-110000000D01*
D10*
D11*
X287002200Y-160000000D02*
X285002200Y-160000000D01*
D10*
D11*
X285692676Y-35216666D02*
X286311723Y-35216666D01*
X285568866Y-35588095D02*
X286002200Y-34288095D01*
X286435533Y-35588095D01*
D10*
D11*
X286095057Y-84907142D02*
X286280771Y-84969047D01*
X286342676Y-85030952D01*
X286404580Y-85154761D01*
X286404580Y-85340476D01*
X286342676Y-85464285D01*
X286280771Y-85526190D01*
X286156961Y-85588095D01*
X285661723Y-85588095D01*
X285661723Y-84288095D01*
X286095057Y-84288095D01*
X286218866Y-84350000D01*
X286280771Y-84411904D01*
X286342676Y-84535714D01*
X286342676Y-84659523D01*
X286280771Y-84783333D01*
X286218866Y-84845238D01*
X286095057Y-84907142D01*
X285661723Y-84907142D01*
D10*
D11*
X286404580Y-135464285D02*
X286342676Y-135526190D01*
X286156961Y-135588095D01*
X286033152Y-135588095D01*
X285847438Y-135526190D01*
X285723628Y-135402380D01*
X285661723Y-135278571D01*
X285599819Y-135030952D01*
X285599819Y-134845238D01*
X285661723Y-134597619D01*
X285723628Y-134473809D01*
X285847438Y-134350000D01*
X286033152Y-134288095D01*
X286156961Y-134288095D01*
X286342676Y-134350000D01*
X286404580Y-134411904D01*
D10*
D11*
X285661723Y-185588095D02*
X285661723Y-184288095D01*
X285971247Y-184288095D01*
X286156961Y-184350000D01*
X286280771Y-184473809D01*
X286342676Y-184597619D01*
X286404580Y-184845238D01*
X286404580Y-185030952D01*
X286342676Y-185278571D01*
X286280771Y-185402380D01*
X286156961Y-185526190D01*
X285971247Y-185588095D01*
X285661723Y-185588095D01*
D10*
D11*
X200434342Y-193785771D02*
X200434342Y-192285771D01*
X200791485Y-192285771D01*
X201005771Y-192357200D01*
X201148628Y-192500057D01*
X201220057Y-192642914D01*
X201291485Y-192928628D01*
X201291485Y-193142914D01*
X201220057Y-193428628D01*
X201148628Y-193571485D01*
X201005771Y-193714342D01*
X200791485Y-193785771D01*
X200434342Y-193785771D01*
X202577200Y-193785771D02*
X202577200Y-193000057D01*
X202505771Y-192857200D01*
X202362914Y-192785771D01*
X202077200Y-192785771D01*
X201934342Y-192857200D01*
X202577200Y-193714342D02*
X202434342Y-193785771D01*
X202077200Y-193785771D01*
X201934342Y-193714342D01*
X201862914Y-193571485D01*
X201862914Y-193428628D01*
X201934342Y-193285771D01*
X202077200Y-193214342D01*
X202434342Y-193214342D01*
X202577200Y-193142914D01*
X203077200Y-192785771D02*
X203648628Y-192785771D01*
X203291485Y-192285771D02*
X203291485Y-193571485D01*
X203362914Y-193714342D01*
X203505771Y-193785771D01*
X203648628Y-193785771D01*
X204720057Y-193714342D02*
X204577200Y-193785771D01*
X204291485Y-193785771D01*
X204148628Y-193714342D01*
X204077200Y-193571485D01*
X204077200Y-193000057D01*
X204148628Y-192857200D01*
X204291485Y-192785771D01*
X204577200Y-192785771D01*
X204720057Y-192857200D01*
X204791485Y-193000057D01*
X204791485Y-193142914D01*
X204077200Y-193285771D01*
X205434342Y-193642914D02*
X205505771Y-193714342D01*
X205434342Y-193785771D01*
X205362914Y-193714342D01*
X205434342Y-193642914D01*
X205434342Y-193785771D01*
X205434342Y-192857200D02*
X205505771Y-192928628D01*
X205434342Y-193000057D01*
X205362914Y-192928628D01*
X205434342Y-192857200D01*
X205434342Y-193000057D01*
D10*
D11*
X177002200Y-194507200D02*
X285002200Y-194507200D01*
D10*
D11*
X178434342Y-196585771D02*
X178434342Y-195085771D01*
X179291485Y-196585771D02*
X178648628Y-195728628D01*
X179291485Y-195085771D02*
X178434342Y-195942914D01*
X179934342Y-196585771D02*
X179934342Y-195585771D01*
X179934342Y-195085771D02*
X179862914Y-195157200D01*
X179934342Y-195228628D01*
X180005771Y-195157200D01*
X179934342Y-195085771D01*
X179934342Y-195228628D01*
X181505771Y-196442914D02*
X181434342Y-196514342D01*
X181220057Y-196585771D01*
X181077200Y-196585771D01*
X180862914Y-196514342D01*
X180720057Y-196371485D01*
X180648628Y-196228628D01*
X180577200Y-195942914D01*
X180577200Y-195728628D01*
X180648628Y-195442914D01*
X180720057Y-195300057D01*
X180862914Y-195157200D01*
X181077200Y-195085771D01*
X181220057Y-195085771D01*
X181434342Y-195157200D01*
X181505771Y-195228628D01*
X182791485Y-196585771D02*
X182791485Y-195800057D01*
X182720057Y-195657200D01*
X182577200Y-195585771D01*
X182291485Y-195585771D01*
X182148628Y-195657200D01*
X182791485Y-196514342D02*
X182648628Y-196585771D01*
X182291485Y-196585771D01*
X182148628Y-196514342D01*
X182077200Y-196371485D01*
X182077200Y-196228628D01*
X182148628Y-196085771D01*
X182291485Y-196014342D01*
X182648628Y-196014342D01*
X182791485Y-195942914D01*
X184148628Y-196585771D02*
X184148628Y-195085771D01*
X184148628Y-196514342D02*
X184005771Y-196585771D01*
X183720057Y-196585771D01*
X183577200Y-196514342D01*
X183505771Y-196442914D01*
X183434342Y-196300057D01*
X183434342Y-195871485D01*
X183505771Y-195728628D01*
X183577200Y-195657200D01*
X183720057Y-195585771D01*
X184005771Y-195585771D01*
X184148628Y-195657200D01*
X186005771Y-195800057D02*
X186505771Y-195800057D01*
X186720057Y-196585771D02*
X186005771Y-196585771D01*
X186005771Y-195085771D01*
X186720057Y-195085771D01*
X187362914Y-196442914D02*
X187434342Y-196514342D01*
X187362914Y-196585771D01*
X187291485Y-196514342D01*
X187362914Y-196442914D01*
X187362914Y-196585771D01*
X188077200Y-196585771D02*
X188077200Y-195085771D01*
X188434342Y-195085771D01*
X188648628Y-195157200D01*
X188791485Y-195300057D01*
X188862914Y-195442914D01*
X188934342Y-195728628D01*
X188934342Y-195942914D01*
X188862914Y-196228628D01*
X188791485Y-196371485D01*
X188648628Y-196514342D01*
X188434342Y-196585771D01*
X188077200Y-196585771D01*
X189577200Y-196442914D02*
X189648628Y-196514342D01*
X189577200Y-196585771D01*
X189505771Y-196514342D01*
X189577200Y-196442914D01*
X189577200Y-196585771D01*
X190220057Y-196157200D02*
X190934342Y-196157200D01*
X190077200Y-196585771D02*
X190577200Y-195085771D01*
X191077200Y-196585771D01*
X191577200Y-196442914D02*
X191648628Y-196514342D01*
X191577200Y-196585771D01*
X191505771Y-196514342D01*
X191577200Y-196442914D01*
X191577200Y-196585771D01*
X194577200Y-195585771D02*
X194577200Y-197085771D01*
X194577200Y-195657200D02*
X194720057Y-195585771D01*
X195005771Y-195585771D01*
X195148628Y-195657200D01*
X195220057Y-195728628D01*
X195291485Y-195871485D01*
X195291485Y-196300057D01*
X195220057Y-196442914D01*
X195148628Y-196514342D01*
X195005771Y-196585771D01*
X194720057Y-196585771D01*
X194577200Y-196514342D01*
X196577200Y-196514342D02*
X196434342Y-196585771D01*
X196148628Y-196585771D01*
X196005771Y-196514342D01*
X195934342Y-196442914D01*
X195862914Y-196300057D01*
X195862914Y-195871485D01*
X195934342Y-195728628D01*
X196005771Y-195657200D01*
X196148628Y-195585771D01*
X196434342Y-195585771D01*
X196577200Y-195657200D01*
X197220057Y-196585771D02*
X197220057Y-195085771D01*
X197220057Y-195657200D02*
X197362914Y-195585771D01*
X197648628Y-195585771D01*
X197791485Y-195657200D01*
X197862914Y-195728628D01*
X197934342Y-195871485D01*
X197934342Y-196300057D01*
X197862914Y-196442914D01*
X197791485Y-196514342D01*
X197648628Y-196585771D01*
X197362914Y-196585771D01*
X197220057Y-196514342D01*
X198577200Y-195585771D02*
X198577200Y-196585771D01*
X198577200Y-195728628D02*
X198648628Y-195657200D01*
X198791485Y-195585771D01*
X199005771Y-195585771D01*
X199148628Y-195657200D01*
X199220057Y-195800057D01*
X199220057Y-196585771D01*
X200505771Y-196514342D02*
X200362914Y-196585771D01*
X200077200Y-196585771D01*
X199934342Y-196514342D01*
X199862914Y-196371485D01*
X199862914Y-195800057D01*
X199934342Y-195657200D01*
X200077200Y-195585771D01*
X200362914Y-195585771D01*
X200505771Y-195657200D01*
X200577200Y-195800057D01*
X200577200Y-195942914D01*
X199862914Y-196085771D01*
X201077200Y-195585771D02*
X201362914Y-196585771D01*
X201648628Y-195871485D01*
X201934342Y-196585771D01*
X202220057Y-195585771D01*
X204362914Y-197157200D02*
X204291485Y-197085771D01*
X204148628Y-196871485D01*
X204077200Y-196728628D01*
X204005771Y-196514342D01*
X203934342Y-196157200D01*
X203934342Y-195871485D01*
X204005771Y-195514342D01*
X204077200Y-195300057D01*
X204148628Y-195157200D01*
X204291485Y-194942914D01*
X204362914Y-194871485D01*
X205648628Y-195085771D02*
X204934342Y-195085771D01*
X204862914Y-195800057D01*
X204934342Y-195728628D01*
X205077200Y-195657200D01*
X205434342Y-195657200D01*
X205577200Y-195728628D01*
X205648628Y-195800057D01*
X205720057Y-195942914D01*
X205720057Y-196300057D01*
X205648628Y-196442914D01*
X205577200Y-196514342D01*
X205434342Y-196585771D01*
X205077200Y-196585771D01*
X204934342Y-196514342D01*
X204862914Y-196442914D01*
X206362914Y-196442914D02*
X206434342Y-196514342D01*
X206362914Y-196585771D01*
X206291485Y-196514342D01*
X206362914Y-196442914D01*
X206362914Y-196585771D01*
X207862914Y-196585771D02*
X207005771Y-196585771D01*
X207434342Y-196585771D02*
X207434342Y-195085771D01*
X207291485Y-195300057D01*
X207148628Y-195442914D01*
X207005771Y-195514342D01*
X208505771Y-196442914D02*
X208577200Y-196514342D01*
X208505771Y-196585771D01*
X208434342Y-196514342D01*
X208505771Y-196442914D01*
X208505771Y-196585771D01*
X210005771Y-196585771D02*
X209148628Y-196585771D01*
X209577200Y-196585771D02*
X209577200Y-195085771D01*
X209434342Y-195300057D01*
X209291485Y-195442914D01*
X209148628Y-195514342D01*
X210934342Y-195085771D02*
X211077200Y-195085771D01*
X211220057Y-195157200D01*
X211291485Y-195228628D01*
X211362914Y-195371485D01*
X211434342Y-195657200D01*
X211434342Y-196014342D01*
X211362914Y-196300057D01*
X211291485Y-196442914D01*
X211220057Y-196514342D01*
X211077200Y-196585771D01*
X210934342Y-196585771D01*
X210791485Y-196514342D01*
X210720057Y-196442914D01*
X210648628Y-196300057D01*
X210577200Y-196014342D01*
X210577200Y-195657200D01*
X210648628Y-195371485D01*
X210720057Y-195228628D01*
X210791485Y-195157200D01*
X210934342Y-195085771D01*
X211934342Y-197157200D02*
X212005771Y-197085771D01*
X212148628Y-196871485D01*
X212220057Y-196728628D01*
X212291485Y-196514342D01*
X212362914Y-196157200D01*
X212362914Y-195871485D01*
X212291485Y-195514342D01*
X212220057Y-195300057D01*
X212148628Y-195157200D01*
X212005771Y-194942914D01*
X211934342Y-194871485D01*
X213077200Y-196014342D02*
X214220057Y-196014342D01*
X215720057Y-196585771D02*
X214862914Y-196585771D01*
X215291485Y-196585771D02*
X215291485Y-195085771D01*
X215148628Y-195300057D01*
X215005771Y-195442914D01*
X214862914Y-195514342D01*
D10*
D11*
X177002200Y-191507200D02*
X285002200Y-191507200D01*
D10*
D12*
X264411485Y-193785771D02*
X263911485Y-193071485D01*
X263554342Y-193785771D02*
X263554342Y-192285771D01*
X264125771Y-192285771D01*
X264268628Y-192357200D01*
X264340057Y-192428628D01*
X264411485Y-192571485D01*
X264411485Y-192785771D01*
X264340057Y-192928628D01*
X264268628Y-193000057D01*
X264125771Y-193071485D01*
X263554342Y-193071485D01*
X265625771Y-193714342D02*
X265482914Y-193785771D01*
X265197200Y-193785771D01*
X265054342Y-193714342D01*
X264982914Y-193571485D01*
X264982914Y-193000057D01*
X265054342Y-192857200D01*
X265197200Y-192785771D01*
X265482914Y-192785771D01*
X265625771Y-192857200D01*
X265697200Y-193000057D01*
X265697200Y-193142914D01*
X264982914Y-193285771D01*
X266197200Y-192785771D02*
X266554342Y-193785771D01*
X266911485Y-192785771D01*
X267482914Y-193642914D02*
X267554342Y-193714342D01*
X267482914Y-193785771D01*
X267411485Y-193714342D01*
X267482914Y-193642914D01*
X267482914Y-193785771D01*
X267482914Y-192857200D02*
X267554342Y-192928628D01*
X267482914Y-193000057D01*
X267411485Y-192928628D01*
X267482914Y-192857200D01*
X267482914Y-193000057D01*
D10*
D11*
X178362914Y-193714342D02*
X178577200Y-193785771D01*
X178934342Y-193785771D01*
X179077200Y-193714342D01*
X179148628Y-193642914D01*
X179220057Y-193500057D01*
X179220057Y-193357200D01*
X179148628Y-193214342D01*
X179077200Y-193142914D01*
X178934342Y-193071485D01*
X178648628Y-193000057D01*
X178505771Y-192928628D01*
X178434342Y-192857200D01*
X178362914Y-192714342D01*
X178362914Y-192571485D01*
X178434342Y-192428628D01*
X178505771Y-192357200D01*
X178648628Y-192285771D01*
X179005771Y-192285771D01*
X179220057Y-192357200D01*
X179862914Y-193785771D02*
X179862914Y-192785771D01*
X179862914Y-192285771D02*
X179791485Y-192357200D01*
X179862914Y-192428628D01*
X179934342Y-192357200D01*
X179862914Y-192285771D01*
X179862914Y-192428628D01*
X180434342Y-192785771D02*
X181220057Y-192785771D01*
X180434342Y-193785771D01*
X181220057Y-193785771D01*
X182362914Y-193714342D02*
X182220057Y-193785771D01*
X181934342Y-193785771D01*
X181791485Y-193714342D01*
X181720057Y-193571485D01*
X181720057Y-193000057D01*
X181791485Y-192857200D01*
X181934342Y-192785771D01*
X182220057Y-192785771D01*
X182362914Y-192857200D01*
X182434342Y-193000057D01*
X182434342Y-193142914D01*
X181720057Y-193285771D01*
X183077200Y-193642914D02*
X183148628Y-193714342D01*
X183077200Y-193785771D01*
X183005771Y-193714342D01*
X183077200Y-193642914D01*
X183077200Y-193785771D01*
X183077200Y-192857200D02*
X183148628Y-192928628D01*
X183077200Y-193000057D01*
X183005771Y-192928628D01*
X183077200Y-192857200D01*
X183077200Y-193000057D01*
X184862914Y-193357200D02*
X185577200Y-193357200D01*
X184720057Y-193785771D02*
X185220057Y-192285771D01*
X185720057Y-193785771D01*
X186862914Y-192785771D02*
X186862914Y-193785771D01*
X186505771Y-192214342D02*
X186148628Y-193285771D01*
X187077200Y-193285771D01*
D10*
D11*
X263434342Y-196585771D02*
X263434342Y-195085771D01*
X264791485Y-196585771D02*
X264791485Y-195085771D01*
X264791485Y-196514342D02*
X264648628Y-196585771D01*
X264362914Y-196585771D01*
X264220057Y-196514342D01*
X264148628Y-196442914D01*
X264077200Y-196300057D01*
X264077200Y-195871485D01*
X264148628Y-195728628D01*
X264220057Y-195657200D01*
X264362914Y-195585771D01*
X264648628Y-195585771D01*
X264791485Y-195657200D01*
X265505771Y-196442914D02*
X265577200Y-196514342D01*
X265505771Y-196585771D01*
X265434342Y-196514342D01*
X265505771Y-196442914D01*
X265505771Y-196585771D01*
X265505771Y-195657200D02*
X265577200Y-195728628D01*
X265505771Y-195800057D01*
X265434342Y-195728628D01*
X265505771Y-195657200D01*
X265505771Y-195800057D01*
X268148628Y-196585771D02*
X267291485Y-196585771D01*
X267720057Y-196585771D02*
X267720057Y-195085771D01*
X267577200Y-195300057D01*
X267434342Y-195442914D01*
X267291485Y-195514342D01*
X269862914Y-195014342D02*
X268577200Y-196942914D01*
X271148628Y-196585771D02*
X270291485Y-196585771D01*
X270720057Y-196585771D02*
X270720057Y-195085771D01*
X270577200Y-195300057D01*
X270434342Y-195442914D01*
X270291485Y-195514342D01*
D10*
D11*
X177002200Y-187507200D02*
X285002200Y-187507200D01*
D10*
D13*
X178714580Y-188211961D02*
X179857438Y-188211961D01*
X179036009Y-190211961D02*
X179286009Y-188211961D01*
X180274104Y-190211961D02*
X180440771Y-188878628D01*
X180524104Y-188211961D02*
X180416961Y-188307200D01*
X180500295Y-188402438D01*
X180607438Y-188307200D01*
X180524104Y-188211961D01*
X180500295Y-188402438D01*
X181107438Y-188878628D02*
X181869342Y-188878628D01*
X181476485Y-188211961D02*
X181262200Y-189926247D01*
X181333628Y-190116723D01*
X181512200Y-190211961D01*
X181702676Y-190211961D01*
X182655057Y-190211961D02*
X182476485Y-190116723D01*
X182405057Y-189926247D01*
X182619342Y-188211961D01*
X184190771Y-190116723D02*
X183988390Y-190211961D01*
X183607438Y-190211961D01*
X183428866Y-190116723D01*
X183357438Y-189926247D01*
X183452676Y-189164342D01*
X183571723Y-188973866D01*
X183774104Y-188878628D01*
X184155057Y-188878628D01*
X184333628Y-188973866D01*
X184405057Y-189164342D01*
X184381247Y-189354819D01*
X183405057Y-189545295D01*
X185155057Y-190021485D02*
X185238390Y-190116723D01*
X185131247Y-190211961D01*
X185047914Y-190116723D01*
X185155057Y-190021485D01*
X185131247Y-190211961D01*
X185286009Y-188973866D02*
X185369342Y-189069104D01*
X185262200Y-189164342D01*
X185178866Y-189069104D01*
X185286009Y-188973866D01*
X185262200Y-189164342D01*
D10*
D11*
X178934342Y-185600057D02*
X178434342Y-185600057D01*
X178434342Y-186385771D02*
X178434342Y-184885771D01*
X179148628Y-184885771D01*
X179720057Y-186385771D02*
X179720057Y-185385771D01*
X179720057Y-184885771D02*
X179648628Y-184957200D01*
X179720057Y-185028628D01*
X179791485Y-184957200D01*
X179720057Y-184885771D01*
X179720057Y-185028628D01*
X180648628Y-186385771D02*
X180505771Y-186314342D01*
X180434342Y-186171485D01*
X180434342Y-184885771D01*
X181791485Y-186314342D02*
X181648628Y-186385771D01*
X181362914Y-186385771D01*
X181220057Y-186314342D01*
X181148628Y-186171485D01*
X181148628Y-185600057D01*
X181220057Y-185457200D01*
X181362914Y-185385771D01*
X181648628Y-185385771D01*
X181791485Y-185457200D01*
X181862914Y-185600057D01*
X181862914Y-185742914D01*
X181148628Y-185885771D01*
X182505771Y-186242914D02*
X182577200Y-186314342D01*
X182505771Y-186385771D01*
X182434342Y-186314342D01*
X182505771Y-186242914D01*
X182505771Y-186385771D01*
X182505771Y-185457200D02*
X182577200Y-185528628D01*
X182505771Y-185600057D01*
X182434342Y-185528628D01*
X182505771Y-185457200D01*
X182505771Y-185600057D01*
X184362914Y-185385771D02*
X184362914Y-186885771D01*
X184362914Y-185457200D02*
X184505771Y-185385771D01*
X184791485Y-185385771D01*
X184934342Y-185457200D01*
X185005771Y-185528628D01*
X185077200Y-185671485D01*
X185077200Y-186100057D01*
X185005771Y-186242914D01*
X184934342Y-186314342D01*
X184791485Y-186385771D01*
X184505771Y-186385771D01*
X184362914Y-186314342D01*
X186362914Y-186314342D02*
X186220057Y-186385771D01*
X185934342Y-186385771D01*
X185791485Y-186314342D01*
X185720057Y-186242914D01*
X185648628Y-186100057D01*
X185648628Y-185671485D01*
X185720057Y-185528628D01*
X185791485Y-185457200D01*
X185934342Y-185385771D01*
X186220057Y-185385771D01*
X186362914Y-185457200D01*
X187005771Y-186385771D02*
X187005771Y-184885771D01*
X187005771Y-185457200D02*
X187148628Y-185385771D01*
X187434342Y-185385771D01*
X187577200Y-185457200D01*
X187648628Y-185528628D01*
X187720057Y-185671485D01*
X187720057Y-186100057D01*
X187648628Y-186242914D01*
X187577200Y-186314342D01*
X187434342Y-186385771D01*
X187148628Y-186385771D01*
X187005771Y-186314342D01*
X188291485Y-186314342D02*
X188434342Y-186385771D01*
X188720057Y-186385771D01*
X188862914Y-186314342D01*
X188934342Y-186171485D01*
X188934342Y-186100057D01*
X188862914Y-185957200D01*
X188720057Y-185885771D01*
X188505771Y-185885771D01*
X188362914Y-185814342D01*
X188291485Y-185671485D01*
X188291485Y-185600057D01*
X188362914Y-185457200D01*
X188505771Y-185385771D01*
X188720057Y-185385771D01*
X188862914Y-185457200D01*
X190220057Y-186314342D02*
X190077200Y-186385771D01*
X189791485Y-186385771D01*
X189648628Y-186314342D01*
X189577200Y-186242914D01*
X189505771Y-186100057D01*
X189505771Y-185671485D01*
X189577200Y-185528628D01*
X189648628Y-185457200D01*
X189791485Y-185385771D01*
X190077200Y-185385771D01*
X190220057Y-185457200D01*
X190862914Y-186385771D02*
X190862914Y-184885771D01*
X191505771Y-186385771D02*
X191505771Y-185600057D01*
X191434342Y-185457200D01*
X191291485Y-185385771D01*
X191077200Y-185385771D01*
X190934342Y-185457200D01*
X190862914Y-185528628D01*
X192791485Y-186314342D02*
X192648628Y-186385771D01*
X192362914Y-186385771D01*
X192220057Y-186314342D01*
X192148628Y-186171485D01*
X192148628Y-185600057D01*
X192220057Y-185457200D01*
X192362914Y-185385771D01*
X192648628Y-185385771D01*
X192791485Y-185457200D01*
X192862914Y-185600057D01*
X192862914Y-185742914D01*
X192148628Y-185885771D01*
X193505771Y-186385771D02*
X193505771Y-185385771D01*
X193505771Y-185528628D02*
X193577200Y-185457200D01*
X193720057Y-185385771D01*
X193934342Y-185385771D01*
X194077200Y-185457200D01*
X194148628Y-185600057D01*
X194148628Y-186385771D01*
X194148628Y-185600057D02*
X194220057Y-185457200D01*
X194362914Y-185385771D01*
X194577200Y-185385771D01*
X194720057Y-185457200D01*
X194791485Y-185600057D01*
X194791485Y-186385771D01*
X195505771Y-186242914D02*
X195577200Y-186314342D01*
X195505771Y-186385771D01*
X195434342Y-186314342D01*
X195505771Y-186242914D01*
X195505771Y-186385771D01*
X196220057Y-186385771D02*
X196220057Y-184885771D01*
X196362914Y-185814342D02*
X196791485Y-186385771D01*
X196791485Y-185385771D02*
X196220057Y-185957200D01*
X197434342Y-186385771D02*
X197434342Y-185385771D01*
X197434342Y-184885771D02*
X197362914Y-184957200D01*
X197434342Y-185028628D01*
X197505771Y-184957200D01*
X197434342Y-184885771D01*
X197434342Y-185028628D01*
X198791485Y-186314342D02*
X198648628Y-186385771D01*
X198362914Y-186385771D01*
X198220057Y-186314342D01*
X198148628Y-186242914D01*
X198077200Y-186100057D01*
X198077200Y-185671485D01*
X198148628Y-185528628D01*
X198220057Y-185457200D01*
X198362914Y-185385771D01*
X198648628Y-185385771D01*
X198791485Y-185457200D01*
X200077200Y-186385771D02*
X200077200Y-185600057D01*
X200005771Y-185457200D01*
X199862914Y-185385771D01*
X199577200Y-185385771D01*
X199434342Y-185457200D01*
X200077200Y-186314342D02*
X199934342Y-186385771D01*
X199577200Y-186385771D01*
X199434342Y-186314342D01*
X199362914Y-186171485D01*
X199362914Y-186028628D01*
X199434342Y-185885771D01*
X199577200Y-185814342D01*
X199934342Y-185814342D01*
X200077200Y-185742914D01*
X201434342Y-186385771D02*
X201434342Y-184885771D01*
X201434342Y-186314342D02*
X201291485Y-186385771D01*
X201005771Y-186385771D01*
X200862914Y-186314342D01*
X200791485Y-186242914D01*
X200720057Y-186100057D01*
X200720057Y-185671485D01*
X200791485Y-185528628D01*
X200862914Y-185457200D01*
X201005771Y-185385771D01*
X201291485Y-185385771D01*
X201434342Y-185457200D01*
X201791485Y-186528628D02*
X202934342Y-186528628D01*
X203291485Y-185385771D02*
X203291485Y-186885771D01*
X203291485Y-185457200D02*
X203434342Y-185385771D01*
X203720057Y-185385771D01*
X203862914Y-185457200D01*
X203934342Y-185528628D01*
X204005771Y-185671485D01*
X204005771Y-186100057D01*
X203934342Y-186242914D01*
X203862914Y-186314342D01*
X203720057Y-186385771D01*
X203434342Y-186385771D01*
X203291485Y-186314342D01*
X205291485Y-186314342D02*
X205148628Y-186385771D01*
X204862914Y-186385771D01*
X204720057Y-186314342D01*
X204648628Y-186242914D01*
X204577200Y-186100057D01*
X204577200Y-185671485D01*
X204648628Y-185528628D01*
X204720057Y-185457200D01*
X204862914Y-185385771D01*
X205148628Y-185385771D01*
X205291485Y-185457200D01*
X205934342Y-186385771D02*
X205934342Y-184885771D01*
X205934342Y-185457200D02*
X206077200Y-185385771D01*
X206362914Y-185385771D01*
X206505771Y-185457200D01*
X206577200Y-185528628D01*
X206648628Y-185671485D01*
X206648628Y-186100057D01*
X206577200Y-186242914D01*
X206505771Y-186314342D01*
X206362914Y-186385771D01*
X206077200Y-186385771D01*
X205934342Y-186314342D01*
D10*
D11*
X177002200Y-181507200D02*
X285002200Y-181507200D01*
D10*
D11*
X178362914Y-183614342D02*
X178577200Y-183685771D01*
X178934342Y-183685771D01*
X179077200Y-183614342D01*
X179148628Y-183542914D01*
X179220057Y-183400057D01*
X179220057Y-183257200D01*
X179148628Y-183114342D01*
X179077200Y-183042914D01*
X178934342Y-182971485D01*
X178648628Y-182900057D01*
X178505771Y-182828628D01*
X178434342Y-182757200D01*
X178362914Y-182614342D01*
X178362914Y-182471485D01*
X178434342Y-182328628D01*
X178505771Y-182257200D01*
X178648628Y-182185771D01*
X179005771Y-182185771D01*
X179220057Y-182257200D01*
X179862914Y-183685771D02*
X179862914Y-182185771D01*
X180505771Y-183685771D02*
X180505771Y-182900057D01*
X180434342Y-182757200D01*
X180291485Y-182685771D01*
X180077200Y-182685771D01*
X179934342Y-182757200D01*
X179862914Y-182828628D01*
X181791485Y-183614342D02*
X181648628Y-183685771D01*
X181362914Y-183685771D01*
X181220057Y-183614342D01*
X181148628Y-183471485D01*
X181148628Y-182900057D01*
X181220057Y-182757200D01*
X181362914Y-182685771D01*
X181648628Y-182685771D01*
X181791485Y-182757200D01*
X181862914Y-182900057D01*
X181862914Y-183042914D01*
X181148628Y-183185771D01*
X183077200Y-183614342D02*
X182934342Y-183685771D01*
X182648628Y-183685771D01*
X182505771Y-183614342D01*
X182434342Y-183471485D01*
X182434342Y-182900057D01*
X182505771Y-182757200D01*
X182648628Y-182685771D01*
X182934342Y-182685771D01*
X183077200Y-182757200D01*
X183148628Y-182900057D01*
X183148628Y-183042914D01*
X182434342Y-183185771D01*
X183577200Y-182685771D02*
X184148628Y-182685771D01*
X183791485Y-182185771D02*
X183791485Y-183471485D01*
X183862914Y-183614342D01*
X184005771Y-183685771D01*
X184148628Y-183685771D01*
X184648628Y-183542914D02*
X184720057Y-183614342D01*
X184648628Y-183685771D01*
X184577200Y-183614342D01*
X184648628Y-183542914D01*
X184648628Y-183685771D01*
X184648628Y-182757200D02*
X184720057Y-182828628D01*
X184648628Y-182900057D01*
X184577200Y-182828628D01*
X184648628Y-182757200D01*
X184648628Y-182900057D01*
D10*
D11*
X197002200Y-191507200D02*
X197002200Y-194507200D01*
D10*
D11*
X261002200Y-191507200D02*
X261002200Y-198007200D01*
D14*
X167605504Y-111574338D02*
X167605504Y-110609138D01*
X168019161Y-110701061D02*
X168065123Y-110655100D01*
X168157047Y-110609138D01*
X168386856Y-110609138D01*
X168478780Y-110655100D01*
X168524742Y-110701061D01*
X168570704Y-110792985D01*
X168570704Y-110884909D01*
X168524742Y-111022795D01*
X167973199Y-111574338D01*
X168570704Y-111574338D01*
X169535904Y-111482414D02*
X169489942Y-111528376D01*
X169352056Y-111574338D01*
X169260132Y-111574338D01*
X169122247Y-111528376D01*
X169030323Y-111436452D01*
X168984361Y-111344528D01*
X168938399Y-111160680D01*
X168938399Y-111022795D01*
X168984361Y-110838947D01*
X169030323Y-110747023D01*
X169122247Y-110655100D01*
X169260132Y-110609138D01*
X169352056Y-110609138D01*
X169489942Y-110655100D01*
X169535904Y-110701061D01*
X169600638Y-106175652D02*
X170381990Y-106175652D01*
X170473914Y-106129690D01*
X170519876Y-106083728D01*
X170565838Y-105991805D01*
X170565838Y-105807957D01*
X170519876Y-105716033D01*
X170473914Y-105670071D01*
X170381990Y-105624109D01*
X169600638Y-105624109D01*
X170519876Y-105210452D02*
X170565838Y-105072567D01*
X170565838Y-104842757D01*
X170519876Y-104750833D01*
X170473914Y-104704871D01*
X170381990Y-104658909D01*
X170290066Y-104658909D01*
X170198142Y-104704871D01*
X170152180Y-104750833D01*
X170106219Y-104842757D01*
X170060257Y-105026605D01*
X170014295Y-105118528D01*
X169968333Y-105164490D01*
X169876409Y-105210452D01*
X169784485Y-105210452D01*
X169692561Y-105164490D01*
X169646600Y-105118528D01*
X169600638Y-105026605D01*
X169600638Y-104796795D01*
X169646600Y-104658909D01*
X170060257Y-103923519D02*
X170106219Y-103785633D01*
X170152180Y-103739671D01*
X170244104Y-103693709D01*
X170381990Y-103693709D01*
X170473914Y-103739671D01*
X170519876Y-103785633D01*
X170565838Y-103877557D01*
X170565838Y-104245252D01*
X169600638Y-104245252D01*
X169600638Y-103923519D01*
X169646600Y-103831595D01*
X169692561Y-103785633D01*
X169784485Y-103739671D01*
X169876409Y-103739671D01*
X169968333Y-103785633D01*
X170014295Y-103831595D01*
X170060257Y-103923519D01*
X170060257Y-104245252D01*
X170060257Y-102958319D02*
X170106219Y-102820433D01*
X170152180Y-102774471D01*
X170244104Y-102728509D01*
X170381990Y-102728509D01*
X170473914Y-102774471D01*
X170519876Y-102820433D01*
X170565838Y-102912357D01*
X170565838Y-103280052D01*
X169600638Y-103280052D01*
X169600638Y-102958319D01*
X169646600Y-102866395D01*
X169692561Y-102820433D01*
X169784485Y-102774471D01*
X169876409Y-102774471D01*
X169968333Y-102820433D01*
X170014295Y-102866395D01*
X170060257Y-102958319D01*
X170060257Y-103280052D01*
X169600638Y-102131005D02*
X169600638Y-101947157D01*
X169646600Y-101855233D01*
X169738523Y-101763309D01*
X169922371Y-101717348D01*
X170244104Y-101717348D01*
X170427952Y-101763309D01*
X170519876Y-101855233D01*
X170565838Y-101947157D01*
X170565838Y-102131005D01*
X170519876Y-102222928D01*
X170427952Y-102314852D01*
X170244104Y-102360814D01*
X169922371Y-102360814D01*
X169738523Y-102314852D01*
X169646600Y-102222928D01*
X169600638Y-102131005D01*
X169600638Y-101119843D02*
X169600638Y-100935995D01*
X169646600Y-100844071D01*
X169738523Y-100752148D01*
X169922371Y-100706186D01*
X170244104Y-100706186D01*
X170427952Y-100752148D01*
X170519876Y-100844071D01*
X170565838Y-100935995D01*
X170565838Y-101119843D01*
X170519876Y-101211767D01*
X170427952Y-101303690D01*
X170244104Y-101349652D01*
X169922371Y-101349652D01*
X169738523Y-101303690D01*
X169646600Y-101211767D01*
X169600638Y-101119843D01*
X169600638Y-100430414D02*
X169600638Y-99878871D01*
X170565838Y-100154643D02*
X169600638Y-100154643D01*
X127538238Y-97884947D02*
X127538238Y-98436490D01*
X127538238Y-98160719D02*
X126573038Y-98160719D01*
X126710923Y-98252642D01*
X126802847Y-98344566D01*
X126848809Y-98436490D01*
X126573038Y-97563214D02*
X126573038Y-96965709D01*
X126940733Y-97287442D01*
X126940733Y-97149557D01*
X126986695Y-97057633D01*
X127032657Y-97011671D01*
X127124580Y-96965709D01*
X127354390Y-96965709D01*
X127446314Y-97011671D01*
X127492276Y-97057633D01*
X127538238Y-97149557D01*
X127538238Y-97425328D01*
X127492276Y-97517252D01*
X127446314Y-97563214D01*
X147047252Y-95788238D02*
X146495709Y-95788238D01*
X146771480Y-95788238D02*
X146771480Y-94823038D01*
X146679557Y-94960923D01*
X146587633Y-95052847D01*
X146495709Y-95098809D01*
X147368985Y-94823038D02*
X147966490Y-94823038D01*
X147644757Y-95190733D01*
X147782642Y-95190733D01*
X147874566Y-95236695D01*
X147920528Y-95282657D01*
X147966490Y-95374580D01*
X147966490Y-95604390D01*
X147920528Y-95696314D01*
X147874566Y-95742276D01*
X147782642Y-95788238D01*
X147506871Y-95788238D01*
X147414947Y-95742276D01*
X147368985Y-95696314D01*
X149035709Y-111551961D02*
X149081671Y-111506000D01*
X149173595Y-111460038D01*
X149403404Y-111460038D01*
X149495328Y-111506000D01*
X149541290Y-111551961D01*
X149587252Y-111643885D01*
X149587252Y-111735809D01*
X149541290Y-111873695D01*
X148989747Y-112425238D01*
X149587252Y-112425238D01*
X150414566Y-111781771D02*
X150414566Y-112425238D01*
X150184757Y-111414076D02*
X149954947Y-112103504D01*
X150552452Y-112103504D01*
X126983671Y-109793314D02*
X126937709Y-109839276D01*
X126799823Y-109885238D01*
X126707900Y-109885238D01*
X126570014Y-109839276D01*
X126478090Y-109747352D01*
X126432128Y-109655428D01*
X126386166Y-109471580D01*
X126386166Y-109333695D01*
X126432128Y-109149847D01*
X126478090Y-109057923D01*
X126570014Y-108966000D01*
X126707900Y-108920038D01*
X126799823Y-108920038D01*
X126937709Y-108966000D01*
X126983671Y-109011961D01*
X127397328Y-109885238D02*
X127397328Y-108920038D01*
X127397328Y-109379657D02*
X127948871Y-109379657D01*
X127948871Y-109885238D02*
X127948871Y-108920038D01*
X128914071Y-108966000D02*
X128822147Y-108920038D01*
X128684261Y-108920038D01*
X128546376Y-108966000D01*
X128454452Y-109057923D01*
X128408490Y-109149847D01*
X128362528Y-109333695D01*
X128362528Y-109471580D01*
X128408490Y-109655428D01*
X128454452Y-109747352D01*
X128546376Y-109839276D01*
X128684261Y-109885238D01*
X128776185Y-109885238D01*
X128914071Y-109839276D01*
X128960033Y-109793314D01*
X128960033Y-109471580D01*
X128776185Y-109471580D01*
X155851376Y-113971638D02*
X155897338Y-113833752D01*
X155897338Y-113603943D01*
X155851376Y-113512019D01*
X155805414Y-113466057D01*
X155713490Y-113420095D01*
X155621566Y-113420095D01*
X155529642Y-113466057D01*
X155483680Y-113512019D01*
X155437719Y-113603943D01*
X155391757Y-113787790D01*
X155345795Y-113879714D01*
X155299833Y-113925676D01*
X155207909Y-113971638D01*
X155115985Y-113971638D01*
X155024061Y-113925676D01*
X154978100Y-113879714D01*
X154932138Y-113787790D01*
X154932138Y-113557981D01*
X154978100Y-113420095D01*
X155805414Y-112454895D02*
X155851376Y-112500857D01*
X155897338Y-112638743D01*
X155897338Y-112730667D01*
X155851376Y-112868552D01*
X155759452Y-112960476D01*
X155667528Y-113006438D01*
X155483680Y-113052400D01*
X155345795Y-113052400D01*
X155161947Y-113006438D01*
X155070023Y-112960476D01*
X154978100Y-112868552D01*
X154932138Y-112730667D01*
X154932138Y-112638743D01*
X154978100Y-112500857D01*
X155024061Y-112454895D01*
X155897338Y-112041238D02*
X154932138Y-112041238D01*
X155897338Y-111489695D02*
X155345795Y-111903352D01*
X154932138Y-111489695D02*
X155483680Y-112041238D01*
X136335709Y-111633000D02*
X136243785Y-111587038D01*
X136105900Y-111587038D01*
X135968014Y-111633000D01*
X135876090Y-111724923D01*
X135830128Y-111816847D01*
X135784166Y-112000695D01*
X135784166Y-112138580D01*
X135830128Y-112322428D01*
X135876090Y-112414352D01*
X135968014Y-112506276D01*
X136105900Y-112552238D01*
X136197823Y-112552238D01*
X136335709Y-112506276D01*
X136381671Y-112460314D01*
X136381671Y-112138580D01*
X136197823Y-112138580D01*
X136795328Y-112552238D02*
X136795328Y-111587038D01*
X137346871Y-112552238D01*
X137346871Y-111587038D01*
X137806490Y-112552238D02*
X137806490Y-111587038D01*
X138036300Y-111587038D01*
X138174185Y-111633000D01*
X138266109Y-111724923D01*
X138312071Y-111816847D01*
X138358033Y-112000695D01*
X138358033Y-112138580D01*
X138312071Y-112322428D01*
X138266109Y-112414352D01*
X138174185Y-112506276D01*
X138036300Y-112552238D01*
X137806490Y-112552238D01*
X156668385Y-96270838D02*
X156852232Y-96270838D01*
X156944156Y-96224876D01*
X156990118Y-96178914D01*
X157082042Y-96041028D01*
X157128004Y-95857180D01*
X157128004Y-95489485D01*
X157082042Y-95397561D01*
X157036080Y-95351600D01*
X156944156Y-95305638D01*
X156760309Y-95305638D01*
X156668385Y-95351600D01*
X156622423Y-95397561D01*
X156576461Y-95489485D01*
X156576461Y-95719295D01*
X156622423Y-95811219D01*
X156668385Y-95857180D01*
X156760309Y-95903142D01*
X156944156Y-95903142D01*
X157036080Y-95857180D01*
X157082042Y-95811219D01*
X157128004Y-95719295D01*
X162576909Y-96224876D02*
X162714794Y-96270838D01*
X162944604Y-96270838D01*
X163036528Y-96224876D01*
X163082490Y-96178914D01*
X163128452Y-96086990D01*
X163128452Y-95995066D01*
X163082490Y-95903142D01*
X163036528Y-95857180D01*
X162944604Y-95811219D01*
X162760756Y-95765257D01*
X162668832Y-95719295D01*
X162622871Y-95673333D01*
X162576909Y-95581409D01*
X162576909Y-95489485D01*
X162622871Y-95397561D01*
X162668832Y-95351600D01*
X162760756Y-95305638D01*
X162990566Y-95305638D01*
X163128452Y-95351600D01*
X164093652Y-96178914D02*
X164047690Y-96224876D01*
X163909804Y-96270838D01*
X163817880Y-96270838D01*
X163679994Y-96224876D01*
X163588071Y-96132952D01*
X163542109Y-96041028D01*
X163496147Y-95857180D01*
X163496147Y-95719295D01*
X163542109Y-95535447D01*
X163588071Y-95443523D01*
X163679994Y-95351600D01*
X163817880Y-95305638D01*
X163909804Y-95305638D01*
X164047690Y-95351600D01*
X164093652Y-95397561D01*
X164966928Y-96270838D02*
X164507309Y-96270838D01*
X164507309Y-95305638D01*
X160304238Y-112362342D02*
X159339038Y-112362342D01*
X160028466Y-112040609D01*
X159339038Y-111718876D01*
X160304238Y-111718876D01*
X160304238Y-111259257D02*
X159339038Y-111259257D01*
X160258276Y-110845600D02*
X160304238Y-110707714D01*
X160304238Y-110477904D01*
X160258276Y-110385980D01*
X160212314Y-110340019D01*
X160120390Y-110294057D01*
X160028466Y-110294057D01*
X159936542Y-110340019D01*
X159890580Y-110385980D01*
X159844619Y-110477904D01*
X159798657Y-110661752D01*
X159752695Y-110753676D01*
X159706733Y-110799638D01*
X159614809Y-110845600D01*
X159522885Y-110845600D01*
X159430961Y-110799638D01*
X159385000Y-110753676D01*
X159339038Y-110661752D01*
X159339038Y-110431942D01*
X159385000Y-110294057D01*
X159339038Y-109696552D02*
X159339038Y-109512704D01*
X159385000Y-109420780D01*
X159476923Y-109328857D01*
X159660771Y-109282895D01*
X159982504Y-109282895D01*
X160166352Y-109328857D01*
X160258276Y-109420780D01*
X160304238Y-109512704D01*
X160304238Y-109696552D01*
X160258276Y-109788476D01*
X160166352Y-109880400D01*
X159982504Y-109926361D01*
X159660771Y-109926361D01*
X159476923Y-109880400D01*
X159385000Y-109788476D01*
X159339038Y-109696552D01*
X127533375Y-113034838D02*
X127211642Y-112575219D01*
X126981832Y-113034838D02*
X126981832Y-112069638D01*
X127349528Y-112069638D01*
X127441452Y-112115600D01*
X127487413Y-112161561D01*
X127533375Y-112253485D01*
X127533375Y-112391371D01*
X127487413Y-112483295D01*
X127441452Y-112529257D01*
X127349528Y-112575219D01*
X126981832Y-112575219D01*
X127901071Y-112988876D02*
X128038956Y-113034838D01*
X128268766Y-113034838D01*
X128360690Y-112988876D01*
X128406652Y-112942914D01*
X128452613Y-112850990D01*
X128452613Y-112759066D01*
X128406652Y-112667142D01*
X128360690Y-112621180D01*
X128268766Y-112575219D01*
X128084918Y-112529257D01*
X127992994Y-112483295D01*
X127947032Y-112437333D01*
X127901071Y-112345409D01*
X127901071Y-112253485D01*
X127947032Y-112161561D01*
X127992994Y-112115600D01*
X128084918Y-112069638D01*
X128314728Y-112069638D01*
X128452613Y-112115600D01*
X128728385Y-112069638D02*
X129279928Y-112069638D01*
X129004156Y-113034838D02*
X129004156Y-112069638D01*
X137969147Y-112759066D02*
X138428766Y-112759066D01*
X137877223Y-113034838D02*
X138198956Y-112069638D01*
X138520690Y-113034838D01*
X139026271Y-112069638D02*
X139118194Y-112069638D01*
X139210118Y-112115600D01*
X139256080Y-112161561D01*
X139302042Y-112253485D01*
X139348004Y-112437333D01*
X139348004Y-112667142D01*
X139302042Y-112850990D01*
X139256080Y-112942914D01*
X139210118Y-112988876D01*
X139118194Y-113034838D01*
X139026271Y-113034838D01*
X138934347Y-112988876D01*
X138888385Y-112942914D01*
X138842423Y-112850990D01*
X138796461Y-112667142D01*
X138796461Y-112437333D01*
X138842423Y-112253485D01*
X138888385Y-112161561D01*
X138934347Y-112115600D01*
X139026271Y-112069638D01*
X140763147Y-112759066D02*
X141222766Y-112759066D01*
X140671223Y-113034838D02*
X140992956Y-112069638D01*
X141314690Y-113034838D01*
X142142004Y-113034838D02*
X141590461Y-113034838D01*
X141866232Y-113034838D02*
X141866232Y-112069638D01*
X141774309Y-112207523D01*
X141682385Y-112299447D01*
X141590461Y-112345409D01*
X130670880Y-111955338D02*
X130349147Y-111495719D01*
X130119337Y-111955338D02*
X130119337Y-110990138D01*
X130487032Y-110990138D01*
X130578956Y-111036100D01*
X130624918Y-111082061D01*
X130670880Y-111173985D01*
X130670880Y-111311871D01*
X130624918Y-111403795D01*
X130578956Y-111449757D01*
X130487032Y-111495719D01*
X130119337Y-111495719D01*
X131452232Y-111909376D02*
X131360309Y-111955338D01*
X131176461Y-111955338D01*
X131084537Y-111909376D01*
X131038575Y-111817452D01*
X131038575Y-111449757D01*
X131084537Y-111357833D01*
X131176461Y-111311871D01*
X131360309Y-111311871D01*
X131452232Y-111357833D01*
X131498194Y-111449757D01*
X131498194Y-111541680D01*
X131038575Y-111633604D01*
X131865890Y-111909376D02*
X131957813Y-111955338D01*
X132141661Y-111955338D01*
X132233585Y-111909376D01*
X132279547Y-111817452D01*
X132279547Y-111771490D01*
X132233585Y-111679566D01*
X132141661Y-111633604D01*
X132003775Y-111633604D01*
X131911852Y-111587642D01*
X131865890Y-111495719D01*
X131865890Y-111449757D01*
X131911852Y-111357833D01*
X132003775Y-111311871D01*
X132141661Y-111311871D01*
X132233585Y-111357833D01*
X133060899Y-111909376D02*
X132968975Y-111955338D01*
X132785128Y-111955338D01*
X132693204Y-111909376D01*
X132647242Y-111817452D01*
X132647242Y-111449757D01*
X132693204Y-111357833D01*
X132785128Y-111311871D01*
X132968975Y-111311871D01*
X133060899Y-111357833D01*
X133106861Y-111449757D01*
X133106861Y-111541680D01*
X132647242Y-111633604D01*
X133382632Y-111311871D02*
X133750328Y-111311871D01*
X133520518Y-110990138D02*
X133520518Y-111817452D01*
X133566480Y-111909376D01*
X133658404Y-111955338D01*
X133750328Y-111955338D01*
X163369147Y-112069638D02*
X163920690Y-112069638D01*
X163644918Y-113034838D02*
X163644918Y-112069638D01*
X164150499Y-112069638D02*
X164793966Y-113034838D01*
X164793966Y-112069638D02*
X164150499Y-113034838D01*
X145006785Y-110728276D02*
X145144671Y-110774238D01*
X145374480Y-110774238D01*
X145466404Y-110728276D01*
X145512366Y-110682314D01*
X145558328Y-110590390D01*
X145558328Y-110498466D01*
X145512366Y-110406542D01*
X145466404Y-110360580D01*
X145374480Y-110314619D01*
X145190633Y-110268657D01*
X145098709Y-110222695D01*
X145052747Y-110176733D01*
X145006785Y-110084809D01*
X145006785Y-109992885D01*
X145052747Y-109900961D01*
X145098709Y-109855000D01*
X145190633Y-109809038D01*
X145420442Y-109809038D01*
X145558328Y-109855000D01*
X145880061Y-109809038D02*
X146109871Y-110774238D01*
X146293719Y-110084809D01*
X146477566Y-110774238D01*
X146707376Y-109809038D01*
X147075071Y-110774238D02*
X147075071Y-109809038D01*
X147304880Y-109809038D01*
X147442766Y-109855000D01*
X147534690Y-109946923D01*
X147580652Y-110038847D01*
X147626614Y-110222695D01*
X147626614Y-110360580D01*
X147580652Y-110544428D01*
X147534690Y-110636352D01*
X147442766Y-110728276D01*
X147304880Y-110774238D01*
X147075071Y-110774238D01*
X151128766Y-96270838D02*
X150577223Y-96270838D01*
X150852994Y-96270838D02*
X150852994Y-95305638D01*
X150761071Y-95443523D01*
X150669147Y-95535447D01*
X150577223Y-95581409D01*
X152048004Y-96270838D02*
X151496461Y-96270838D01*
X151772232Y-96270838D02*
X151772232Y-95305638D01*
X151680309Y-95443523D01*
X151588385Y-95535447D01*
X151496461Y-95581409D01*
X138408809Y-109859838D02*
X138408809Y-108894638D01*
X138960352Y-109859838D01*
X138960352Y-108894638D01*
X139787666Y-109813876D02*
X139695742Y-109859838D01*
X139511894Y-109859838D01*
X139419971Y-109813876D01*
X139374009Y-109721952D01*
X139374009Y-109354257D01*
X139419971Y-109262333D01*
X139511894Y-109216371D01*
X139695742Y-109216371D01*
X139787666Y-109262333D01*
X139833628Y-109354257D01*
X139833628Y-109446180D01*
X139374009Y-109538104D01*
X140385171Y-109859838D02*
X140293247Y-109813876D01*
X140247285Y-109767914D01*
X140201323Y-109675990D01*
X140201323Y-109400219D01*
X140247285Y-109308295D01*
X140293247Y-109262333D01*
X140385171Y-109216371D01*
X140523056Y-109216371D01*
X140614980Y-109262333D01*
X140660942Y-109308295D01*
X140706904Y-109400219D01*
X140706904Y-109675990D01*
X140660942Y-109767914D01*
X140614980Y-109813876D01*
X140523056Y-109859838D01*
X140385171Y-109859838D01*
X152357061Y-113468476D02*
X152311100Y-113422514D01*
X152265138Y-113330590D01*
X152265138Y-113100781D01*
X152311100Y-113008857D01*
X152357061Y-112962895D01*
X152448985Y-112916933D01*
X152540909Y-112916933D01*
X152678795Y-112962895D01*
X153230338Y-113514438D01*
X153230338Y-112916933D01*
X152265138Y-112043657D02*
X152265138Y-112503276D01*
X152724757Y-112549238D01*
X152678795Y-112503276D01*
X152632833Y-112411352D01*
X152632833Y-112181543D01*
X152678795Y-112089619D01*
X152724757Y-112043657D01*
X152816680Y-111997695D01*
X153046490Y-111997695D01*
X153138414Y-112043657D01*
X153184376Y-112089619D01*
X153230338Y-112181543D01*
X153230338Y-112411352D01*
X153184376Y-112503276D01*
X153138414Y-112549238D01*
X148588766Y-96270838D02*
X148037223Y-96270838D01*
X148312994Y-96270838D02*
X148312994Y-95305638D01*
X148221071Y-95443523D01*
X148129147Y-95535447D01*
X148037223Y-95581409D01*
X148956461Y-95397561D02*
X149002423Y-95351600D01*
X149094347Y-95305638D01*
X149324156Y-95305638D01*
X149416080Y-95351600D01*
X149462042Y-95397561D01*
X149508004Y-95489485D01*
X149508004Y-95581409D01*
X149462042Y-95719295D01*
X148910499Y-96270838D01*
X149508004Y-96270838D01*
X153668766Y-96270838D02*
X153117223Y-96270838D01*
X153392994Y-96270838D02*
X153392994Y-95305638D01*
X153301071Y-95443523D01*
X153209147Y-95535447D01*
X153117223Y-95581409D01*
X154266271Y-95305638D02*
X154358194Y-95305638D01*
X154450118Y-95351600D01*
X154496080Y-95397561D01*
X154542042Y-95489485D01*
X154588004Y-95673333D01*
X154588004Y-95903142D01*
X154542042Y-96086990D01*
X154496080Y-96178914D01*
X154450118Y-96224876D01*
X154358194Y-96270838D01*
X154266271Y-96270838D01*
X154174347Y-96224876D01*
X154128385Y-96178914D01*
X154082423Y-96086990D01*
X154036461Y-95903142D01*
X154036461Y-95673333D01*
X154082423Y-95489485D01*
X154128385Y-95397561D01*
X154174347Y-95351600D01*
X154266271Y-95305638D01*
X131446185Y-112577638D02*
X132043690Y-112577638D01*
X131721956Y-112945333D01*
X131859842Y-112945333D01*
X131951766Y-112991295D01*
X131997728Y-113037257D01*
X132043690Y-113129180D01*
X132043690Y-113358990D01*
X131997728Y-113450914D01*
X131951766Y-113496876D01*
X131859842Y-113542838D01*
X131584071Y-113542838D01*
X131492147Y-113496876D01*
X131446185Y-113450914D01*
X132319461Y-112577638D02*
X132641194Y-113542838D01*
X132962928Y-112577638D01*
X143049147Y-112759066D02*
X143508766Y-112759066D01*
X142957223Y-113034838D02*
X143278956Y-112069638D01*
X143600690Y-113034838D01*
X143876461Y-112161561D02*
X143922423Y-112115600D01*
X144014347Y-112069638D01*
X144244156Y-112069638D01*
X144336080Y-112115600D01*
X144382042Y-112161561D01*
X144428004Y-112253485D01*
X144428004Y-112345409D01*
X144382042Y-112483295D01*
X143830499Y-113034838D01*
X144428004Y-113034838D01*
X160114947Y-94823038D02*
X159931100Y-94823038D01*
X159839176Y-94869000D01*
X159793214Y-94914961D01*
X159701290Y-95052847D01*
X159655328Y-95236695D01*
X159655328Y-95604390D01*
X159701290Y-95696314D01*
X159747252Y-95742276D01*
X159839176Y-95788238D01*
X160023023Y-95788238D01*
X160114947Y-95742276D01*
X160160909Y-95696314D01*
X160206871Y-95604390D01*
X160206871Y-95374580D01*
X160160909Y-95282657D01*
X160114947Y-95236695D01*
X160023023Y-95190733D01*
X159839176Y-95190733D01*
X159747252Y-95236695D01*
X159701290Y-95282657D01*
X159655328Y-95374580D01*
X161288766Y-113034838D02*
X160967032Y-112575219D01*
X160737223Y-113034838D02*
X160737223Y-112069638D01*
X161104918Y-112069638D01*
X161196842Y-112115600D01*
X161242804Y-112161561D01*
X161288766Y-112253485D01*
X161288766Y-112391371D01*
X161242804Y-112483295D01*
X161196842Y-112529257D01*
X161104918Y-112575219D01*
X160737223Y-112575219D01*
X161610499Y-112069638D02*
X162253966Y-113034838D01*
X162253966Y-112069638D02*
X161610499Y-113034838D01*
X146541671Y-112276466D02*
X147001290Y-112276466D01*
X146449747Y-112552238D02*
X146771480Y-111587038D01*
X147093214Y-112552238D01*
X147323023Y-111587038D02*
X147920528Y-111587038D01*
X147598795Y-111954733D01*
X147736680Y-111954733D01*
X147828604Y-112000695D01*
X147874566Y-112046657D01*
X147920528Y-112138580D01*
X147920528Y-112368390D01*
X147874566Y-112460314D01*
X147828604Y-112506276D01*
X147736680Y-112552238D01*
X147460909Y-112552238D01*
X147368985Y-112506276D01*
X147323023Y-112460314D01*
X140555109Y-95765257D02*
X140876842Y-95765257D01*
X141014728Y-96270838D02*
X140555109Y-96270838D01*
X140555109Y-95305638D01*
X141014728Y-95305638D01*
X141428385Y-95627371D02*
X141428385Y-96270838D01*
X141428385Y-95719295D02*
X141474347Y-95673333D01*
X141566271Y-95627371D01*
X141704156Y-95627371D01*
X141796080Y-95673333D01*
X141842042Y-95765257D01*
X141842042Y-96270838D01*
X162162042Y-95305638D02*
X161702423Y-95305638D01*
X161656461Y-95765257D01*
X161702423Y-95719295D01*
X161794347Y-95673333D01*
X162024156Y-95673333D01*
X162116080Y-95719295D01*
X162162042Y-95765257D01*
X162208004Y-95857180D01*
X162208004Y-96086990D01*
X162162042Y-96178914D01*
X162116080Y-96224876D01*
X162024156Y-96270838D01*
X161794347Y-96270838D01*
X161702423Y-96224876D01*
X161656461Y-96178914D01*
X157827738Y-112362342D02*
X156862538Y-112362342D01*
X157551966Y-112040609D01*
X156862538Y-111718876D01*
X157827738Y-111718876D01*
X156862538Y-111075409D02*
X156862538Y-110891561D01*
X156908500Y-110799638D01*
X157000423Y-110707714D01*
X157184271Y-110661752D01*
X157506004Y-110661752D01*
X157689852Y-110707714D01*
X157781776Y-110799638D01*
X157827738Y-110891561D01*
X157827738Y-111075409D01*
X157781776Y-111167333D01*
X157689852Y-111259257D01*
X157506004Y-111305219D01*
X157184271Y-111305219D01*
X157000423Y-111259257D01*
X156908500Y-111167333D01*
X156862538Y-111075409D01*
X157781776Y-110294057D02*
X157827738Y-110156171D01*
X157827738Y-109926361D01*
X157781776Y-109834438D01*
X157735814Y-109788476D01*
X157643890Y-109742514D01*
X157551966Y-109742514D01*
X157460042Y-109788476D01*
X157414080Y-109834438D01*
X157368119Y-109926361D01*
X157322157Y-110110209D01*
X157276195Y-110202133D01*
X157230233Y-110248095D01*
X157138309Y-110294057D01*
X157046385Y-110294057D01*
X156954461Y-110248095D01*
X156908500Y-110202133D01*
X156862538Y-110110209D01*
X156862538Y-109880400D01*
X156908500Y-109742514D01*
X157827738Y-109328857D02*
X156862538Y-109328857D01*
X137682490Y-95765257D02*
X137820375Y-95811219D01*
X137866337Y-95857180D01*
X137912299Y-95949104D01*
X137912299Y-96086990D01*
X137866337Y-96178914D01*
X137820375Y-96224876D01*
X137728452Y-96270838D01*
X137360756Y-96270838D01*
X137360756Y-95305638D01*
X137682490Y-95305638D01*
X137774413Y-95351600D01*
X137820375Y-95397561D01*
X137866337Y-95489485D01*
X137866337Y-95581409D01*
X137820375Y-95673333D01*
X137774413Y-95719295D01*
X137682490Y-95765257D01*
X137360756Y-95765257D01*
X138279994Y-95995066D02*
X138739613Y-95995066D01*
X138188071Y-96270838D02*
X138509804Y-95305638D01*
X138831537Y-96270838D01*
X139015385Y-95305638D02*
X139566928Y-95305638D01*
X139291156Y-96270838D02*
X139291156Y-95305638D01*
X166838690Y-112552238D02*
X166838690Y-111587038D01*
X167068500Y-111587038D01*
X167206385Y-111633000D01*
X167298309Y-111724923D01*
X167344271Y-111816847D01*
X167390233Y-112000695D01*
X167390233Y-112138580D01*
X167344271Y-112322428D01*
X167298309Y-112414352D01*
X167206385Y-112506276D01*
X167068500Y-112552238D01*
X166838690Y-112552238D01*
X168217547Y-111908771D02*
X168217547Y-112552238D01*
X167987738Y-111541076D02*
X167757928Y-112230504D01*
X168355433Y-112230504D01*
X143473109Y-94823038D02*
X143473109Y-95604390D01*
X143519071Y-95696314D01*
X143565033Y-95742276D01*
X143656957Y-95788238D01*
X143840804Y-95788238D01*
X143932728Y-95742276D01*
X143978690Y-95696314D01*
X144024652Y-95604390D01*
X144024652Y-94823038D01*
X144438309Y-95742276D02*
X144576195Y-95788238D01*
X144806004Y-95788238D01*
X144897928Y-95742276D01*
X144943890Y-95696314D01*
X144989852Y-95604390D01*
X144989852Y-95512466D01*
X144943890Y-95420542D01*
X144897928Y-95374580D01*
X144806004Y-95328619D01*
X144622157Y-95282657D01*
X144530233Y-95236695D01*
X144484271Y-95190733D01*
X144438309Y-95098809D01*
X144438309Y-95006885D01*
X144484271Y-94914961D01*
X144530233Y-94869000D01*
X144622157Y-94823038D01*
X144851966Y-94823038D01*
X144989852Y-94869000D01*
X145725242Y-95282657D02*
X145863128Y-95328619D01*
X145909090Y-95374580D01*
X145955052Y-95466504D01*
X145955052Y-95604390D01*
X145909090Y-95696314D01*
X145863128Y-95742276D01*
X145771204Y-95788238D01*
X145403509Y-95788238D01*
X145403509Y-94823038D01*
X145725242Y-94823038D01*
X145817166Y-94869000D01*
X145863128Y-94914961D01*
X145909090Y-95006885D01*
X145909090Y-95098809D01*
X145863128Y-95190733D01*
X145817166Y-95236695D01*
X145725242Y-95282657D01*
X145403509Y-95282657D01*
X167014071Y-95742276D02*
X167151957Y-95788238D01*
X167381766Y-95788238D01*
X167473690Y-95742276D01*
X167519652Y-95696314D01*
X167565614Y-95604390D01*
X167565614Y-95512466D01*
X167519652Y-95420542D01*
X167473690Y-95374580D01*
X167381766Y-95328619D01*
X167197919Y-95282657D01*
X167105995Y-95236695D01*
X167060033Y-95190733D01*
X167014071Y-95098809D01*
X167014071Y-95006885D01*
X167060033Y-94914961D01*
X167105995Y-94869000D01*
X167197919Y-94823038D01*
X167427728Y-94823038D01*
X167565614Y-94869000D01*
X167979271Y-95788238D02*
X167979271Y-94823038D01*
X168209080Y-94823038D01*
X168346966Y-94869000D01*
X168438890Y-94960923D01*
X168484852Y-95052847D01*
X168530814Y-95236695D01*
X168530814Y-95374580D01*
X168484852Y-95558428D01*
X168438890Y-95650352D01*
X168346966Y-95742276D01*
X168209080Y-95788238D01*
X167979271Y-95788238D01*
X168898509Y-95512466D02*
X169358128Y-95512466D01*
X168806585Y-95788238D02*
X169128319Y-94823038D01*
X169450052Y-95788238D01*
D10*
%TO.C,R14*%
G36*
X140860500Y-112389000D02*
G01*
X140479500Y-112389000D01*
X140479500Y-113151000D01*
X140860500Y-113151000D01*
X140860500Y-112389000D01*
G37*
D15*
%TO.C,C18*%
X168790000Y-109947940D02*
X168790000Y-109892060D01*
%TO.C,C6*%
X172108040Y-110390000D02*
X172052160Y-110390000D01*
D16*
%TO.C,SW4*%
X143700000Y-99804600D02*
X147900000Y-99804600D01*
X147900000Y-102855400D02*
X143700000Y-102855400D01*
D10*
%TO.C,R16*%
G36*
X160260500Y-111179000D02*
G01*
X159879500Y-111179000D01*
X159879500Y-111941000D01*
X160260500Y-111941000D01*
X160260500Y-111179000D01*
G37*
%TO.C,R15*%
G36*
X144930500Y-111359000D02*
G01*
X144549500Y-111359000D01*
X144549500Y-112121000D01*
X144930500Y-112121000D01*
X144930500Y-111359000D01*
G37*
D17*
%TO.C,IC1*%
X161353509Y-100233600D02*
G75*
G03*
X161353509Y-100233600I-335409J0D01*
G01*
X160368100Y-100233600D02*
X161018100Y-100233600D01*
X161018100Y-100233600D02*
X161018100Y-100833600D01*
X161018100Y-106633600D02*
X161018100Y-107233600D01*
X161018100Y-107233600D02*
X160418100Y-107233600D01*
X154018100Y-106633600D02*
X154018100Y-107233600D01*
X154018100Y-107233600D02*
X154618100Y-107233600D01*
X154618100Y-100233600D02*
X154018100Y-100233600D01*
X154018100Y-100233600D02*
X154018100Y-100833600D01*
D18*
%TO.C,LED1*%
X142455700Y-107281900D02*
X142755700Y-107281900D01*
X142755700Y-107281900D02*
X142755700Y-111081900D01*
X142755700Y-111081900D02*
X142455700Y-111081900D01*
X139255700Y-107281900D02*
X138955700Y-107281900D01*
X138955700Y-107281900D02*
X138955700Y-111081900D01*
X138955700Y-111081900D02*
X139255700Y-111081900D01*
D10*
G36*
X142760700Y-107276900D02*
G01*
X142379700Y-107276900D01*
X142379700Y-107657900D01*
X142760700Y-108038900D01*
X142760700Y-107276900D01*
G37*
D16*
%TO.C,SW3*%
X147840000Y-106975400D02*
X143640000Y-106975400D01*
X143640000Y-103924600D02*
X147840000Y-103924600D01*
D19*
%TO.C,R11*%
X168397600Y-96997600D02*
X169197600Y-96997600D01*
%TO.C,R10*%
X131083100Y-105892600D02*
X131883100Y-105892600D01*
%TO.C,C17*%
X150723600Y-109747100D02*
X150723600Y-110547100D01*
%TO.C,R6*%
X152139600Y-102273100D02*
X151339600Y-102273100D01*
%TO.C,C2*%
X151358600Y-96348600D02*
X151358600Y-97148600D01*
D16*
%TO.C,SW2*%
X170470700Y-102023600D02*
X170470700Y-97823600D01*
X173521500Y-97823600D02*
X173521500Y-102023600D01*
D19*
%TO.C,R9*%
X130384600Y-102844600D02*
X131184600Y-102844600D01*
%TO.C,C3*%
X149980600Y-99034600D02*
X149180600Y-99034600D01*
%TO.C,C8*%
X164395100Y-107480100D02*
X163595100Y-107480100D01*
%TO.C,C7*%
X162071100Y-107480100D02*
X162871100Y-107480100D01*
%TO.C,C11*%
X137814100Y-108750100D02*
X138614100Y-108750100D01*
%TO.C,C12*%
X150069600Y-102273100D02*
X150869600Y-102273100D01*
%TO.C,C13*%
X155549600Y-109848600D02*
X155549600Y-109048600D01*
%TO.C,R4*%
X144945100Y-97148600D02*
X144945100Y-96348600D01*
%TO.C,R1*%
X137452100Y-111436100D02*
X137452100Y-110636100D01*
%TO.C,R12*%
X130765600Y-109067600D02*
X131565600Y-109067600D01*
%TO.C,R13*%
X129152600Y-97256600D02*
X128352600Y-97256600D01*
D18*
%TO.C,Y1*%
X152672100Y-97471100D02*
X152672100Y-100471100D01*
X152672100Y-100471100D02*
X150172100Y-100471100D01*
X150172100Y-100471100D02*
X150172100Y-97471100D01*
X150172100Y-97471100D02*
X152672100Y-97471100D01*
D19*
%TO.C,C15*%
X160883600Y-98101100D02*
X160883600Y-97301100D01*
%TO.C,C16*%
X165919100Y-107480100D02*
X165119100Y-107480100D01*
D20*
%TO.C,X6*%
X125894600Y-99263600D02*
X127244600Y-99263600D01*
X127244600Y-108203600D02*
X125894600Y-108203600D01*
X121894600Y-108203600D02*
X121894600Y-99263600D01*
X121894600Y-99263600D02*
X123244600Y-99263600D01*
X123244600Y-108203600D02*
X121894600Y-108203600D01*
D19*
%TO.C,C14*%
X157073600Y-97110600D02*
X157073600Y-97910600D01*
D16*
%TO.C,Q3*%
X132895200Y-106037000D02*
X132895200Y-104724200D01*
X132895200Y-104724200D02*
X133904000Y-104724200D01*
X136040000Y-104724200D02*
X136040000Y-106037000D01*
X135031200Y-104724200D02*
X136040000Y-104724200D01*
X134840000Y-106045000D02*
X134081200Y-106045000D01*
D10*
%TO.C,CHG*%
G36*
X125018800Y-109385100D02*
G01*
X125018800Y-110147100D01*
X125145800Y-110147100D01*
X125145800Y-109385100D01*
X125018800Y-109385100D01*
G37*
G36*
X125018800Y-109766100D02*
G01*
X124701300Y-109512100D01*
X124701300Y-110020100D01*
X125018800Y-109766100D01*
G37*
D16*
%TO.C,D4*%
X135975600Y-103671600D02*
X134229600Y-103671600D01*
X134229600Y-102271600D02*
X135975600Y-102271600D01*
X135402600Y-102971600D02*
X134802600Y-103371600D01*
X134802600Y-103371600D02*
X134802600Y-102571600D01*
X134802600Y-102571600D02*
X135402600Y-102971600D01*
D10*
G36*
X135602600Y-102471600D02*
G01*
X135402600Y-102471600D01*
X135402600Y-103471600D01*
X135602600Y-103471600D01*
X135602600Y-102471600D01*
G37*
G36*
X135202600Y-102971600D02*
G01*
X134902600Y-103171600D01*
X134902600Y-102771600D01*
X135202600Y-102971600D01*
G37*
D19*
%TO.C,R8*%
X141452600Y-96348600D02*
X141452600Y-97148600D01*
%TO.C,R2*%
X128866900Y-110255100D02*
X128866900Y-111055100D01*
%TO.C,C10*%
X161447393Y-109485397D02*
X161447393Y-110285397D01*
%TO.C,C9*%
X148183600Y-96361300D02*
X148183600Y-97161300D01*
%TO.C,R5*%
X169184900Y-99994800D02*
X168384900Y-99994800D01*
%TO.C,C5*%
X155730000Y-94838000D02*
X155730000Y-93822000D01*
%TO.C,R3*%
X141662200Y-103797100D02*
X142462200Y-103797100D01*
D16*
%TO.C,U1*%
X167925000Y-97895000D02*
X167925000Y-101695000D01*
X163125000Y-101695000D02*
X163125000Y-97895000D01*
X167709400Y-98906000D02*
G75*
G03*
X167709400Y-98906000I-254000J0D01*
G01*
D19*
%TO.C,C20*%
X139484100Y-97955100D02*
X138468100Y-97955100D01*
D16*
%TO.C,U2*%
X137961100Y-103378100D02*
X137961100Y-104978100D01*
X141261100Y-103378100D02*
X141261100Y-104978100D01*
X139211100Y-103128100D02*
X140011100Y-103128100D01*
%TO.C,U$32*%
X127641100Y-112623600D02*
G75*
G03*
X127641100Y-112623600I-2000000J0D01*
G01*
%TO.C,SW1*%
X137012100Y-110275500D02*
X132812100Y-110275500D01*
X132812100Y-107224700D02*
X137012100Y-107224700D01*
D19*
%TO.C,C1*%
X137555600Y-105516600D02*
X136539600Y-105516600D01*
D10*
%TO.C,L*%
G36*
X124780900Y-98122100D02*
G01*
X124780900Y-97360100D01*
X124653900Y-97360100D01*
X124653900Y-98122100D01*
X124780900Y-98122100D01*
G37*
G36*
X124780900Y-97741100D02*
G01*
X125098400Y-97995100D01*
X125098400Y-97487100D01*
X124780900Y-97741100D01*
G37*
D19*
%TO.C,C4*%
X138154100Y-101780100D02*
X138154100Y-100764100D01*
D16*
%TO.C,U3*%
X139993100Y-98831500D02*
X139993100Y-100431500D01*
X143293100Y-98831500D02*
X143293100Y-100431500D01*
X141243100Y-98581500D02*
X142043100Y-98581500D01*
D19*
%TO.C,R7*%
X129190700Y-94259400D02*
X128390700Y-94259400D01*
D16*
%TO.C,X1*%
X131773100Y-92859600D02*
X136273100Y-92859600D01*
X138023100Y-96359600D02*
X138023100Y-100359600D01*
X138023100Y-100359600D02*
X137173100Y-100359600D01*
X137173100Y-100359600D02*
X137173100Y-97859600D01*
X137173100Y-97859600D02*
X135773100Y-97859600D01*
X132273100Y-97859600D02*
X130873100Y-97859600D01*
X130873100Y-97859600D02*
X130873100Y-100359600D01*
X130873100Y-100359600D02*
X130023100Y-100359600D01*
X130023100Y-100359600D02*
X130023100Y-96359600D01*
D19*
X135928100Y-99415600D02*
X136817100Y-99415600D01*
X136372600Y-99923600D02*
X136372600Y-98971100D01*
X131229100Y-99415600D02*
X132118100Y-99415600D01*
D16*
%TO.C,U$31*%
X127641100Y-94843600D02*
G75*
G03*
X127641100Y-94843600I-2000000J0D01*
G01*
%TO.C,R14*%
D21*
X140728937Y-113899695D02*
X140600244Y-113715847D01*
X140508320Y-113899695D02*
X140508320Y-113513615D01*
X140655398Y-113513615D01*
X140692168Y-113532000D01*
X140710552Y-113550384D01*
X140728937Y-113587154D01*
X140728937Y-113642308D01*
X140710552Y-113679078D01*
X140692168Y-113697462D01*
X140655398Y-113715847D01*
X140508320Y-113715847D01*
X141096632Y-113899695D02*
X140876015Y-113899695D01*
X140986324Y-113899695D02*
X140986324Y-113513615D01*
X140949554Y-113568769D01*
X140912785Y-113605539D01*
X140876015Y-113623923D01*
X141427558Y-113642308D02*
X141427558Y-113899695D01*
X141335634Y-113495230D02*
X141243711Y-113771001D01*
X141482712Y-113771001D01*
%TO.C,C18*%
X170012673Y-111012925D02*
X169994288Y-111031310D01*
X169939134Y-111049695D01*
X169902365Y-111049695D01*
X169847210Y-111031310D01*
X169810441Y-110994540D01*
X169792056Y-110957771D01*
X169773671Y-110884232D01*
X169773671Y-110829078D01*
X169792056Y-110755539D01*
X169810441Y-110718769D01*
X169847210Y-110682000D01*
X169902365Y-110663615D01*
X169939134Y-110663615D01*
X169994288Y-110682000D01*
X170012673Y-110700384D01*
X170380368Y-111049695D02*
X170159751Y-111049695D01*
X170270060Y-111049695D02*
X170270060Y-110663615D01*
X170233290Y-110718769D01*
X170196521Y-110755539D01*
X170159751Y-110773923D01*
X170600986Y-110829078D02*
X170564216Y-110810693D01*
X170545831Y-110792308D01*
X170527447Y-110755539D01*
X170527447Y-110737154D01*
X170545831Y-110700384D01*
X170564216Y-110682000D01*
X170600986Y-110663615D01*
X170674525Y-110663615D01*
X170711294Y-110682000D01*
X170729679Y-110700384D01*
X170748064Y-110737154D01*
X170748064Y-110755539D01*
X170729679Y-110792308D01*
X170711294Y-110810693D01*
X170674525Y-110829078D01*
X170600986Y-110829078D01*
X170564216Y-110847462D01*
X170545831Y-110865847D01*
X170527447Y-110902617D01*
X170527447Y-110976156D01*
X170545831Y-111012925D01*
X170564216Y-111031310D01*
X170600986Y-111049695D01*
X170674525Y-111049695D01*
X170711294Y-111031310D01*
X170729679Y-111012925D01*
X170748064Y-110976156D01*
X170748064Y-110902617D01*
X170729679Y-110865847D01*
X170711294Y-110847462D01*
X170674525Y-110829078D01*
%TO.C,C6*%
X172786945Y-109167326D02*
X172805330Y-109185711D01*
X172823715Y-109240865D01*
X172823715Y-109277634D01*
X172805330Y-109332789D01*
X172768560Y-109369558D01*
X172731791Y-109387943D01*
X172658252Y-109406328D01*
X172603098Y-109406328D01*
X172529559Y-109387943D01*
X172492789Y-109369558D01*
X172456020Y-109332789D01*
X172437635Y-109277634D01*
X172437635Y-109240865D01*
X172456020Y-109185711D01*
X172474404Y-109167326D01*
X172437635Y-108836400D02*
X172437635Y-108909939D01*
X172456020Y-108946709D01*
X172474404Y-108965093D01*
X172529559Y-109001863D01*
X172603098Y-109020248D01*
X172750176Y-109020248D01*
X172786945Y-109001863D01*
X172805330Y-108983478D01*
X172823715Y-108946709D01*
X172823715Y-108873170D01*
X172805330Y-108836400D01*
X172786945Y-108818015D01*
X172750176Y-108799631D01*
X172658252Y-108799631D01*
X172621482Y-108818015D01*
X172603098Y-108836400D01*
X172584713Y-108873170D01*
X172584713Y-108946709D01*
X172603098Y-108983478D01*
X172621482Y-109001863D01*
X172658252Y-109020248D01*
%TO.C,SW4*%
D22*
X141471486Y-99478460D02*
X141581794Y-99515230D01*
X141765642Y-99515230D01*
X141839181Y-99478460D01*
X141875951Y-99441691D01*
X141912720Y-99368152D01*
X141912720Y-99294613D01*
X141875951Y-99221074D01*
X141839181Y-99184304D01*
X141765642Y-99147535D01*
X141618564Y-99110765D01*
X141545025Y-99073996D01*
X141508255Y-99037226D01*
X141471486Y-98963687D01*
X141471486Y-98890148D01*
X141508255Y-98816609D01*
X141545025Y-98779840D01*
X141618564Y-98743070D01*
X141802412Y-98743070D01*
X141912720Y-98779840D01*
X142170107Y-98743070D02*
X142353954Y-99515230D01*
X142501033Y-98963687D01*
X142648111Y-99515230D01*
X142831958Y-98743070D01*
X143457040Y-99000457D02*
X143457040Y-99515230D01*
X143273193Y-98706300D02*
X143089345Y-99257843D01*
X143567349Y-99257843D01*
%TO.C,R16*%
D21*
X161292673Y-112689695D02*
X161163980Y-112505847D01*
X161072056Y-112689695D02*
X161072056Y-112303615D01*
X161219134Y-112303615D01*
X161255904Y-112322000D01*
X161274288Y-112340384D01*
X161292673Y-112377154D01*
X161292673Y-112432308D01*
X161274288Y-112469078D01*
X161255904Y-112487462D01*
X161219134Y-112505847D01*
X161072056Y-112505847D01*
X161660368Y-112689695D02*
X161439751Y-112689695D01*
X161550060Y-112689695D02*
X161550060Y-112303615D01*
X161513290Y-112358769D01*
X161476521Y-112395539D01*
X161439751Y-112413923D01*
X161991294Y-112303615D02*
X161917755Y-112303615D01*
X161880986Y-112322000D01*
X161862601Y-112340384D01*
X161825831Y-112395539D01*
X161807447Y-112469078D01*
X161807447Y-112616156D01*
X161825831Y-112652925D01*
X161844216Y-112671310D01*
X161880986Y-112689695D01*
X161954525Y-112689695D01*
X161991294Y-112671310D01*
X162009679Y-112652925D01*
X162028064Y-112616156D01*
X162028064Y-112524232D01*
X162009679Y-112487462D01*
X161991294Y-112469078D01*
X161954525Y-112450693D01*
X161880986Y-112450693D01*
X161844216Y-112469078D01*
X161825831Y-112487462D01*
X161807447Y-112524232D01*
%TO.C,R15*%
X145962673Y-112869695D02*
X145833980Y-112685847D01*
X145742056Y-112869695D02*
X145742056Y-112483615D01*
X145889134Y-112483615D01*
X145925904Y-112502000D01*
X145944288Y-112520384D01*
X145962673Y-112557154D01*
X145962673Y-112612308D01*
X145944288Y-112649078D01*
X145925904Y-112667462D01*
X145889134Y-112685847D01*
X145742056Y-112685847D01*
X146330368Y-112869695D02*
X146109751Y-112869695D01*
X146220060Y-112869695D02*
X146220060Y-112483615D01*
X146183290Y-112538769D01*
X146146521Y-112575539D01*
X146109751Y-112593923D01*
X146679679Y-112483615D02*
X146495831Y-112483615D01*
X146477447Y-112667462D01*
X146495831Y-112649078D01*
X146532601Y-112630693D01*
X146624525Y-112630693D01*
X146661294Y-112649078D01*
X146679679Y-112667462D01*
X146698064Y-112704232D01*
X146698064Y-112796156D01*
X146679679Y-112832925D01*
X146661294Y-112851310D01*
X146624525Y-112869695D01*
X146532601Y-112869695D01*
X146495831Y-112851310D01*
X146477447Y-112832925D01*
%TO.C,U4*%
D23*
X168829813Y-103594670D02*
X168829813Y-104219752D01*
X168866582Y-104293291D01*
X168903352Y-104330060D01*
X168976891Y-104366830D01*
X169123969Y-104366830D01*
X169197508Y-104330060D01*
X169234277Y-104293291D01*
X169271047Y-104219752D01*
X169271047Y-103594670D01*
X169969668Y-103852057D02*
X169969668Y-104366830D01*
X169785820Y-103557900D02*
X169601973Y-104109443D01*
X170079977Y-104109443D01*
%TO.C,LED1*%
D22*
X142977930Y-106635014D02*
X142977930Y-107002710D01*
X142205770Y-107002710D01*
X142573465Y-106377628D02*
X142573465Y-106120241D01*
X142977930Y-106009933D02*
X142977930Y-106377628D01*
X142205770Y-106377628D01*
X142205770Y-106009933D01*
X142977930Y-105679007D02*
X142205770Y-105679007D01*
X142205770Y-105495159D01*
X142242540Y-105384851D01*
X142316079Y-105311312D01*
X142389618Y-105274542D01*
X142536696Y-105237773D01*
X142647004Y-105237773D01*
X142794082Y-105274542D01*
X142867621Y-105311312D01*
X142941160Y-105384851D01*
X142977930Y-105495159D01*
X142977930Y-105679007D01*
X142977930Y-104502382D02*
X142977930Y-104943616D01*
X142977930Y-104722999D02*
X142205770Y-104722999D01*
X142316079Y-104796538D01*
X142389618Y-104870077D01*
X142426387Y-104943616D01*
%TO.C,SW3*%
X145475486Y-107154460D02*
X145585794Y-107191230D01*
X145769642Y-107191230D01*
X145843181Y-107154460D01*
X145879951Y-107117691D01*
X145916720Y-107044152D01*
X145916720Y-106970613D01*
X145879951Y-106897074D01*
X145843181Y-106860304D01*
X145769642Y-106823535D01*
X145622564Y-106786765D01*
X145549025Y-106749996D01*
X145512255Y-106713226D01*
X145475486Y-106639687D01*
X145475486Y-106566148D01*
X145512255Y-106492609D01*
X145549025Y-106455840D01*
X145622564Y-106419070D01*
X145806412Y-106419070D01*
X145916720Y-106455840D01*
X146174107Y-106419070D02*
X146357954Y-107191230D01*
X146505033Y-106639687D01*
X146652111Y-107191230D01*
X146835958Y-106419070D01*
X147056575Y-106419070D02*
X147534579Y-106419070D01*
X147277193Y-106713226D01*
X147387501Y-106713226D01*
X147461040Y-106749996D01*
X147497810Y-106786765D01*
X147534579Y-106860304D01*
X147534579Y-107044152D01*
X147497810Y-107117691D01*
X147461040Y-107154460D01*
X147387501Y-107191230D01*
X147166884Y-107191230D01*
X147093345Y-107154460D01*
X147056575Y-107117691D01*
%TO.C,R11*%
X168887830Y-94504175D02*
X168520135Y-94761562D01*
X168887830Y-94945410D02*
X168115670Y-94945410D01*
X168115670Y-94651253D01*
X168152440Y-94577714D01*
X168189209Y-94540945D01*
X168262748Y-94504175D01*
X168373057Y-94504175D01*
X168446596Y-94540945D01*
X168483365Y-94577714D01*
X168520135Y-94651253D01*
X168520135Y-94945410D01*
X168887830Y-93768785D02*
X168887830Y-94210019D01*
X168887830Y-93989402D02*
X168115670Y-93989402D01*
X168225979Y-94062941D01*
X168299518Y-94136480D01*
X168336287Y-94210019D01*
X168887830Y-93033394D02*
X168887830Y-93474629D01*
X168887830Y-93254012D02*
X168115670Y-93254012D01*
X168225979Y-93327551D01*
X168299518Y-93401090D01*
X168336287Y-93474629D01*
%TO.C,R10*%
X131573330Y-103399175D02*
X131205635Y-103656562D01*
X131573330Y-103840410D02*
X130801170Y-103840410D01*
X130801170Y-103546253D01*
X130837940Y-103472714D01*
X130874709Y-103435945D01*
X130948248Y-103399175D01*
X131058557Y-103399175D01*
X131132096Y-103435945D01*
X131168865Y-103472714D01*
X131205635Y-103546253D01*
X131205635Y-103840410D01*
X131573330Y-102663785D02*
X131573330Y-103105019D01*
X131573330Y-102884402D02*
X130801170Y-102884402D01*
X130911479Y-102957941D01*
X130985018Y-103031480D01*
X131021787Y-103105019D01*
X130801170Y-102185781D02*
X130801170Y-102112242D01*
X130837940Y-102038703D01*
X130874709Y-102001933D01*
X130948248Y-101965164D01*
X131095326Y-101928394D01*
X131279174Y-101928394D01*
X131426252Y-101965164D01*
X131499791Y-102001933D01*
X131536560Y-102038703D01*
X131573330Y-102112242D01*
X131573330Y-102185781D01*
X131536560Y-102259320D01*
X131499791Y-102296090D01*
X131426252Y-102332859D01*
X131279174Y-102369629D01*
X131095326Y-102369629D01*
X130948248Y-102332859D01*
X130874709Y-102296090D01*
X130837940Y-102259320D01*
X130801170Y-102185781D01*
%TO.C,C17*%
X153217024Y-110163791D02*
X153180254Y-110200560D01*
X153069946Y-110237330D01*
X152996406Y-110237330D01*
X152886098Y-110200560D01*
X152812559Y-110127021D01*
X152775789Y-110053482D01*
X152739020Y-109906404D01*
X152739020Y-109796096D01*
X152775789Y-109649018D01*
X152812559Y-109575479D01*
X152886098Y-109501940D01*
X152996406Y-109465170D01*
X153069946Y-109465170D01*
X153180254Y-109501940D01*
X153217024Y-109538709D01*
X153952414Y-110237330D02*
X153511180Y-110237330D01*
X153731797Y-110237330D02*
X153731797Y-109465170D01*
X153658258Y-109575479D01*
X153584719Y-109649018D01*
X153511180Y-109685787D01*
X154209801Y-109465170D02*
X154724574Y-109465170D01*
X154393648Y-110237330D01*
%TO.C,R6*%
X151575830Y-103335675D02*
X151208135Y-103593062D01*
X151575830Y-103776910D02*
X150803670Y-103776910D01*
X150803670Y-103482753D01*
X150840440Y-103409214D01*
X150877209Y-103372445D01*
X150950748Y-103335675D01*
X151061057Y-103335675D01*
X151134596Y-103372445D01*
X151171365Y-103409214D01*
X151208135Y-103482753D01*
X151208135Y-103776910D01*
X150803670Y-102673824D02*
X150803670Y-102820902D01*
X150840440Y-102894441D01*
X150877209Y-102931211D01*
X150987518Y-103004750D01*
X151134596Y-103041519D01*
X151428752Y-103041519D01*
X151502291Y-103004750D01*
X151539060Y-102967980D01*
X151575830Y-102894441D01*
X151575830Y-102747363D01*
X151539060Y-102673824D01*
X151502291Y-102637054D01*
X151428752Y-102600285D01*
X151244904Y-102600285D01*
X151171365Y-102637054D01*
X151134596Y-102673824D01*
X151097826Y-102747363D01*
X151097826Y-102894441D01*
X151134596Y-102967980D01*
X151171365Y-103004750D01*
X151244904Y-103041519D01*
%TO.C,C2*%
X153852024Y-96765291D02*
X153815254Y-96802060D01*
X153704946Y-96838830D01*
X153631406Y-96838830D01*
X153521098Y-96802060D01*
X153447559Y-96728521D01*
X153410789Y-96654982D01*
X153374020Y-96507904D01*
X153374020Y-96397596D01*
X153410789Y-96250518D01*
X153447559Y-96176979D01*
X153521098Y-96103440D01*
X153631406Y-96066670D01*
X153704946Y-96066670D01*
X153815254Y-96103440D01*
X153852024Y-96140209D01*
X154146180Y-96140209D02*
X154182949Y-96103440D01*
X154256488Y-96066670D01*
X154440336Y-96066670D01*
X154513875Y-96103440D01*
X154550645Y-96140209D01*
X154587414Y-96213748D01*
X154587414Y-96287287D01*
X154550645Y-96397596D01*
X154109410Y-96838830D01*
X154587414Y-96838830D01*
%TO.C,SW2*%
X170144560Y-101718179D02*
X170181330Y-101607871D01*
X170181330Y-101424023D01*
X170144560Y-101350484D01*
X170107791Y-101313714D01*
X170034252Y-101276945D01*
X169960713Y-101276945D01*
X169887174Y-101313714D01*
X169850404Y-101350484D01*
X169813635Y-101424023D01*
X169776865Y-101571101D01*
X169740096Y-101644640D01*
X169703326Y-101681410D01*
X169629787Y-101718179D01*
X169556248Y-101718179D01*
X169482709Y-101681410D01*
X169445940Y-101644640D01*
X169409170Y-101571101D01*
X169409170Y-101387253D01*
X169445940Y-101276945D01*
X169409170Y-101019558D02*
X170181330Y-100835711D01*
X169629787Y-100688633D01*
X170181330Y-100541554D01*
X169409170Y-100357707D01*
X169482709Y-100100320D02*
X169445940Y-100063551D01*
X169409170Y-99990012D01*
X169409170Y-99806164D01*
X169445940Y-99732625D01*
X169482709Y-99695855D01*
X169556248Y-99659086D01*
X169629787Y-99659086D01*
X169740096Y-99695855D01*
X170181330Y-100137090D01*
X170181330Y-99659086D01*
%TO.C,R9*%
X130874830Y-100351175D02*
X130507135Y-100608562D01*
X130874830Y-100792410D02*
X130102670Y-100792410D01*
X130102670Y-100498253D01*
X130139440Y-100424714D01*
X130176209Y-100387945D01*
X130249748Y-100351175D01*
X130360057Y-100351175D01*
X130433596Y-100387945D01*
X130470365Y-100424714D01*
X130507135Y-100498253D01*
X130507135Y-100792410D01*
X130874830Y-99983480D02*
X130874830Y-99836402D01*
X130838060Y-99762863D01*
X130801291Y-99726093D01*
X130690982Y-99652554D01*
X130543904Y-99615785D01*
X130249748Y-99615785D01*
X130176209Y-99652554D01*
X130139440Y-99689324D01*
X130102670Y-99762863D01*
X130102670Y-99909941D01*
X130139440Y-99983480D01*
X130176209Y-100020250D01*
X130249748Y-100057019D01*
X130433596Y-100057019D01*
X130507135Y-100020250D01*
X130543904Y-99983480D01*
X130580674Y-99909941D01*
X130580674Y-99762863D01*
X130543904Y-99689324D01*
X130507135Y-99652554D01*
X130433596Y-99615785D01*
%TO.C,C3*%
X149343291Y-100097175D02*
X149380060Y-100133945D01*
X149416830Y-100244253D01*
X149416830Y-100317793D01*
X149380060Y-100428101D01*
X149306521Y-100501640D01*
X149232982Y-100538410D01*
X149085904Y-100575179D01*
X148975596Y-100575179D01*
X148828518Y-100538410D01*
X148754979Y-100501640D01*
X148681440Y-100428101D01*
X148644670Y-100317793D01*
X148644670Y-100244253D01*
X148681440Y-100133945D01*
X148718209Y-100097175D01*
X148644670Y-99839789D02*
X148644670Y-99361785D01*
X148938826Y-99619172D01*
X148938826Y-99508863D01*
X148975596Y-99435324D01*
X149012365Y-99398554D01*
X149085904Y-99361785D01*
X149269752Y-99361785D01*
X149343291Y-99398554D01*
X149380060Y-99435324D01*
X149416830Y-99508863D01*
X149416830Y-99729480D01*
X149380060Y-99803019D01*
X149343291Y-99839789D01*
%TO.C,C8*%
X163757791Y-108542675D02*
X163794560Y-108579445D01*
X163831330Y-108689753D01*
X163831330Y-108763293D01*
X163794560Y-108873601D01*
X163721021Y-108947140D01*
X163647482Y-108983910D01*
X163500404Y-109020679D01*
X163390096Y-109020679D01*
X163243018Y-108983910D01*
X163169479Y-108947140D01*
X163095940Y-108873601D01*
X163059170Y-108763293D01*
X163059170Y-108689753D01*
X163095940Y-108579445D01*
X163132709Y-108542675D01*
X163390096Y-108101441D02*
X163353326Y-108174980D01*
X163316557Y-108211750D01*
X163243018Y-108248519D01*
X163206248Y-108248519D01*
X163132709Y-108211750D01*
X163095940Y-108174980D01*
X163059170Y-108101441D01*
X163059170Y-107954363D01*
X163095940Y-107880824D01*
X163132709Y-107844054D01*
X163206248Y-107807285D01*
X163243018Y-107807285D01*
X163316557Y-107844054D01*
X163353326Y-107880824D01*
X163390096Y-107954363D01*
X163390096Y-108101441D01*
X163426865Y-108174980D01*
X163463635Y-108211750D01*
X163537174Y-108248519D01*
X163684252Y-108248519D01*
X163757791Y-108211750D01*
X163794560Y-108174980D01*
X163831330Y-108101441D01*
X163831330Y-107954363D01*
X163794560Y-107880824D01*
X163757791Y-107844054D01*
X163684252Y-107807285D01*
X163537174Y-107807285D01*
X163463635Y-107844054D01*
X163426865Y-107880824D01*
X163390096Y-107954363D01*
%TO.C,C7*%
X162487791Y-104986675D02*
X162524560Y-105023445D01*
X162561330Y-105133753D01*
X162561330Y-105207293D01*
X162524560Y-105317601D01*
X162451021Y-105391140D01*
X162377482Y-105427910D01*
X162230404Y-105464679D01*
X162120096Y-105464679D01*
X161973018Y-105427910D01*
X161899479Y-105391140D01*
X161825940Y-105317601D01*
X161789170Y-105207293D01*
X161789170Y-105133753D01*
X161825940Y-105023445D01*
X161862709Y-104986675D01*
X161789170Y-104729289D02*
X161789170Y-104214515D01*
X162561330Y-104545441D01*
%TO.C,C11*%
X138230791Y-106256675D02*
X138267560Y-106293445D01*
X138304330Y-106403753D01*
X138304330Y-106477293D01*
X138267560Y-106587601D01*
X138194021Y-106661140D01*
X138120482Y-106697910D01*
X137973404Y-106734679D01*
X137863096Y-106734679D01*
X137716018Y-106697910D01*
X137642479Y-106661140D01*
X137568940Y-106587601D01*
X137532170Y-106477293D01*
X137532170Y-106403753D01*
X137568940Y-106293445D01*
X137605709Y-106256675D01*
X138304330Y-105521285D02*
X138304330Y-105962519D01*
X138304330Y-105741902D02*
X137532170Y-105741902D01*
X137642479Y-105815441D01*
X137716018Y-105888980D01*
X137752787Y-105962519D01*
X138304330Y-104785894D02*
X138304330Y-105227129D01*
X138304330Y-105006512D02*
X137532170Y-105006512D01*
X137642479Y-105080051D01*
X137716018Y-105153590D01*
X137752787Y-105227129D01*
%TO.C,C12*%
X150486291Y-99779675D02*
X150523060Y-99816445D01*
X150559830Y-99926753D01*
X150559830Y-100000293D01*
X150523060Y-100110601D01*
X150449521Y-100184140D01*
X150375982Y-100220910D01*
X150228904Y-100257679D01*
X150118596Y-100257679D01*
X149971518Y-100220910D01*
X149897979Y-100184140D01*
X149824440Y-100110601D01*
X149787670Y-100000293D01*
X149787670Y-99926753D01*
X149824440Y-99816445D01*
X149861209Y-99779675D01*
X150559830Y-99044285D02*
X150559830Y-99485519D01*
X150559830Y-99264902D02*
X149787670Y-99264902D01*
X149897979Y-99338441D01*
X149971518Y-99411980D01*
X150008287Y-99485519D01*
X149861209Y-98750129D02*
X149824440Y-98713359D01*
X149787670Y-98639820D01*
X149787670Y-98455973D01*
X149824440Y-98382433D01*
X149861209Y-98345664D01*
X149934748Y-98308894D01*
X150008287Y-98308894D01*
X150118596Y-98345664D01*
X150559830Y-98786898D01*
X150559830Y-98308894D01*
%TO.C,C13*%
X154487024Y-109211291D02*
X154450254Y-109248060D01*
X154339946Y-109284830D01*
X154266406Y-109284830D01*
X154156098Y-109248060D01*
X154082559Y-109174521D01*
X154045789Y-109100982D01*
X154009020Y-108953904D01*
X154009020Y-108843596D01*
X154045789Y-108696518D01*
X154082559Y-108622979D01*
X154156098Y-108549440D01*
X154266406Y-108512670D01*
X154339946Y-108512670D01*
X154450254Y-108549440D01*
X154487024Y-108586209D01*
X155222414Y-109284830D02*
X154781180Y-109284830D01*
X155001797Y-109284830D02*
X155001797Y-108512670D01*
X154928258Y-108622979D01*
X154854719Y-108696518D01*
X154781180Y-108733287D01*
X155479801Y-108512670D02*
X155957805Y-108512670D01*
X155700418Y-108806826D01*
X155810726Y-108806826D01*
X155884266Y-108843596D01*
X155921035Y-108880365D01*
X155957805Y-108953904D01*
X155957805Y-109137752D01*
X155921035Y-109211291D01*
X155884266Y-109248060D01*
X155810726Y-109284830D01*
X155590109Y-109284830D01*
X155516570Y-109248060D01*
X155479801Y-109211291D01*
%TO.C,R4*%
X143882524Y-96584830D02*
X143625137Y-96217135D01*
X143441289Y-96584830D02*
X143441289Y-95812670D01*
X143735446Y-95812670D01*
X143808985Y-95849440D01*
X143845754Y-95886209D01*
X143882524Y-95959748D01*
X143882524Y-96070057D01*
X143845754Y-96143596D01*
X143808985Y-96180365D01*
X143735446Y-96217135D01*
X143441289Y-96217135D01*
X144544375Y-96070057D02*
X144544375Y-96584830D01*
X144360527Y-95775900D02*
X144176680Y-96327443D01*
X144654684Y-96327443D01*
%TO.C,R1*%
X136389524Y-110872330D02*
X136132137Y-110504635D01*
X135948289Y-110872330D02*
X135948289Y-110100170D01*
X136242446Y-110100170D01*
X136315985Y-110136940D01*
X136352754Y-110173709D01*
X136389524Y-110247248D01*
X136389524Y-110357557D01*
X136352754Y-110431096D01*
X136315985Y-110467865D01*
X136242446Y-110504635D01*
X135948289Y-110504635D01*
X137124914Y-110872330D02*
X136683680Y-110872330D01*
X136904297Y-110872330D02*
X136904297Y-110100170D01*
X136830758Y-110210479D01*
X136757219Y-110284018D01*
X136683680Y-110320787D01*
%TO.C,R12*%
X131255830Y-106574175D02*
X130888135Y-106831562D01*
X131255830Y-107015410D02*
X130483670Y-107015410D01*
X130483670Y-106721253D01*
X130520440Y-106647714D01*
X130557209Y-106610945D01*
X130630748Y-106574175D01*
X130741057Y-106574175D01*
X130814596Y-106610945D01*
X130851365Y-106647714D01*
X130888135Y-106721253D01*
X130888135Y-107015410D01*
X131255830Y-105838785D02*
X131255830Y-106280019D01*
X131255830Y-106059402D02*
X130483670Y-106059402D01*
X130593979Y-106132941D01*
X130667518Y-106206480D01*
X130704287Y-106280019D01*
X130557209Y-105544629D02*
X130520440Y-105507859D01*
X130483670Y-105434320D01*
X130483670Y-105250473D01*
X130520440Y-105176933D01*
X130557209Y-105140164D01*
X130630748Y-105103394D01*
X130704287Y-105103394D01*
X130814596Y-105140164D01*
X131255830Y-105581398D01*
X131255830Y-105103394D01*
%TO.C,R13*%
X128588830Y-98319175D02*
X128221135Y-98576562D01*
X128588830Y-98760410D02*
X127816670Y-98760410D01*
X127816670Y-98466253D01*
X127853440Y-98392714D01*
X127890209Y-98355945D01*
X127963748Y-98319175D01*
X128074057Y-98319175D01*
X128147596Y-98355945D01*
X128184365Y-98392714D01*
X128221135Y-98466253D01*
X128221135Y-98760410D01*
X128588830Y-97583785D02*
X128588830Y-98025019D01*
X128588830Y-97804402D02*
X127816670Y-97804402D01*
X127926979Y-97877941D01*
X128000518Y-97951480D01*
X128037287Y-98025019D01*
X127816670Y-97326398D02*
X127816670Y-96848394D01*
X128110826Y-97105781D01*
X128110826Y-96995473D01*
X128147596Y-96921933D01*
X128184365Y-96885164D01*
X128257904Y-96848394D01*
X128441752Y-96848394D01*
X128515291Y-96885164D01*
X128552060Y-96921933D01*
X128588830Y-96995473D01*
X128588830Y-97216090D01*
X128552060Y-97289629D01*
X128515291Y-97326398D01*
%TO.C,Y1*%
X152545635Y-97017832D02*
X152913330Y-97017832D01*
X152141170Y-97275218D02*
X152545635Y-97017832D01*
X152141170Y-96760445D01*
X152913330Y-96098593D02*
X152913330Y-96539828D01*
X152913330Y-96319211D02*
X152141170Y-96319211D01*
X152251479Y-96392750D01*
X152325018Y-96466289D01*
X152361787Y-96539828D01*
%TO.C,C15*%
X159821024Y-97463791D02*
X159784254Y-97500560D01*
X159673946Y-97537330D01*
X159600406Y-97537330D01*
X159490098Y-97500560D01*
X159416559Y-97427021D01*
X159379789Y-97353482D01*
X159343020Y-97206404D01*
X159343020Y-97096096D01*
X159379789Y-96949018D01*
X159416559Y-96875479D01*
X159490098Y-96801940D01*
X159600406Y-96765170D01*
X159673946Y-96765170D01*
X159784254Y-96801940D01*
X159821024Y-96838709D01*
X160556414Y-97537330D02*
X160115180Y-97537330D01*
X160335797Y-97537330D02*
X160335797Y-96765170D01*
X160262258Y-96875479D01*
X160188719Y-96949018D01*
X160115180Y-96985787D01*
X161255035Y-96765170D02*
X160887340Y-96765170D01*
X160850570Y-97132865D01*
X160887340Y-97096096D01*
X160960879Y-97059326D01*
X161144726Y-97059326D01*
X161218266Y-97096096D01*
X161255035Y-97132865D01*
X161291805Y-97206404D01*
X161291805Y-97390252D01*
X161255035Y-97463791D01*
X161218266Y-97500560D01*
X161144726Y-97537330D01*
X160960879Y-97537330D01*
X160887340Y-97500560D01*
X160850570Y-97463791D01*
%TO.C,C16*%
X165281791Y-108542675D02*
X165318560Y-108579445D01*
X165355330Y-108689753D01*
X165355330Y-108763293D01*
X165318560Y-108873601D01*
X165245021Y-108947140D01*
X165171482Y-108983910D01*
X165024404Y-109020679D01*
X164914096Y-109020679D01*
X164767018Y-108983910D01*
X164693479Y-108947140D01*
X164619940Y-108873601D01*
X164583170Y-108763293D01*
X164583170Y-108689753D01*
X164619940Y-108579445D01*
X164656709Y-108542675D01*
X165355330Y-107807285D02*
X165355330Y-108248519D01*
X165355330Y-108027902D02*
X164583170Y-108027902D01*
X164693479Y-108101441D01*
X164767018Y-108174980D01*
X164803787Y-108248519D01*
X164583170Y-107145433D02*
X164583170Y-107292512D01*
X164619940Y-107366051D01*
X164656709Y-107402820D01*
X164767018Y-107476359D01*
X164914096Y-107513129D01*
X165208252Y-107513129D01*
X165281791Y-107476359D01*
X165318560Y-107439590D01*
X165355330Y-107366051D01*
X165355330Y-107218973D01*
X165318560Y-107145433D01*
X165281791Y-107108664D01*
X165208252Y-107071894D01*
X165024404Y-107071894D01*
X164950865Y-107108664D01*
X164914096Y-107145433D01*
X164877326Y-107218973D01*
X164877326Y-107366051D01*
X164914096Y-107439590D01*
X164950865Y-107476359D01*
X165024404Y-107513129D01*
%TO.C,X6*%
X122345250Y-100174670D02*
X122860024Y-100946830D01*
X122860024Y-100174670D02*
X122345250Y-100946830D01*
X123485106Y-100174670D02*
X123338027Y-100174670D01*
X123264488Y-100211440D01*
X123227719Y-100248209D01*
X123154180Y-100358518D01*
X123117410Y-100505596D01*
X123117410Y-100799752D01*
X123154180Y-100873291D01*
X123190949Y-100910060D01*
X123264488Y-100946830D01*
X123411566Y-100946830D01*
X123485106Y-100910060D01*
X123521875Y-100873291D01*
X123558645Y-100799752D01*
X123558645Y-100615904D01*
X123521875Y-100542365D01*
X123485106Y-100505596D01*
X123411566Y-100468826D01*
X123264488Y-100468826D01*
X123190949Y-100505596D01*
X123154180Y-100542365D01*
X123117410Y-100615904D01*
%TO.C,C14*%
X159567024Y-97527291D02*
X159530254Y-97564060D01*
X159419946Y-97600830D01*
X159346406Y-97600830D01*
X159236098Y-97564060D01*
X159162559Y-97490521D01*
X159125789Y-97416982D01*
X159089020Y-97269904D01*
X159089020Y-97159596D01*
X159125789Y-97012518D01*
X159162559Y-96938979D01*
X159236098Y-96865440D01*
X159346406Y-96828670D01*
X159419946Y-96828670D01*
X159530254Y-96865440D01*
X159567024Y-96902209D01*
X160302414Y-97600830D02*
X159861180Y-97600830D01*
X160081797Y-97600830D02*
X160081797Y-96828670D01*
X160008258Y-96938979D01*
X159934719Y-97012518D01*
X159861180Y-97049287D01*
X160964266Y-97086057D02*
X160964266Y-97600830D01*
X160780418Y-96791900D02*
X160596570Y-97343443D01*
X161074574Y-97343443D01*
%TO.C,Q3*%
X137034563Y-105548369D02*
X136961024Y-105511600D01*
X136887485Y-105438060D01*
X136777176Y-105327752D01*
X136703637Y-105290982D01*
X136630098Y-105290982D01*
X136666867Y-105474830D02*
X136593328Y-105438060D01*
X136519789Y-105364521D01*
X136483020Y-105217443D01*
X136483020Y-104960057D01*
X136519789Y-104812979D01*
X136593328Y-104739440D01*
X136666867Y-104702670D01*
X136813946Y-104702670D01*
X136887485Y-104739440D01*
X136961024Y-104812979D01*
X136997793Y-104960057D01*
X136997793Y-105217443D01*
X136961024Y-105364521D01*
X136887485Y-105438060D01*
X136813946Y-105474830D01*
X136666867Y-105474830D01*
X137255180Y-104702670D02*
X137733184Y-104702670D01*
X137475797Y-104996826D01*
X137586106Y-104996826D01*
X137659645Y-105033596D01*
X137696414Y-105070365D01*
X137733184Y-105143904D01*
X137733184Y-105327752D01*
X137696414Y-105401291D01*
X137659645Y-105438060D01*
X137586106Y-105474830D01*
X137365488Y-105474830D01*
X137291949Y-105438060D01*
X137255180Y-105401291D01*
%TO.C,CHG*%
X123816524Y-108639791D02*
X123779754Y-108676560D01*
X123669446Y-108713330D01*
X123595906Y-108713330D01*
X123485598Y-108676560D01*
X123412059Y-108603021D01*
X123375289Y-108529482D01*
X123338520Y-108382404D01*
X123338520Y-108272096D01*
X123375289Y-108125018D01*
X123412059Y-108051479D01*
X123485598Y-107977940D01*
X123595906Y-107941170D01*
X123669446Y-107941170D01*
X123779754Y-107977940D01*
X123816524Y-108014709D01*
X124147449Y-108713330D02*
X124147449Y-107941170D01*
X124147449Y-108308865D02*
X124588684Y-108308865D01*
X124588684Y-108713330D02*
X124588684Y-107941170D01*
X125360844Y-107977940D02*
X125287305Y-107941170D01*
X125176996Y-107941170D01*
X125066687Y-107977940D01*
X124993148Y-108051479D01*
X124956379Y-108125018D01*
X124919609Y-108272096D01*
X124919609Y-108382404D01*
X124956379Y-108529482D01*
X124993148Y-108603021D01*
X125066687Y-108676560D01*
X125176996Y-108713330D01*
X125250535Y-108713330D01*
X125360844Y-108676560D01*
X125397613Y-108639791D01*
X125397613Y-108382404D01*
X125250535Y-108382404D01*
%TO.C,D4*%
X136646789Y-103950830D02*
X136646789Y-103178670D01*
X136830637Y-103178670D01*
X136940946Y-103215440D01*
X137014485Y-103288979D01*
X137051254Y-103362518D01*
X137088024Y-103509596D01*
X137088024Y-103619904D01*
X137051254Y-103766982D01*
X137014485Y-103840521D01*
X136940946Y-103914060D01*
X136830637Y-103950830D01*
X136646789Y-103950830D01*
X137749875Y-103436057D02*
X137749875Y-103950830D01*
X137566027Y-103141900D02*
X137382180Y-103693443D01*
X137860184Y-103693443D01*
%TO.C,R8*%
X143946024Y-96838830D02*
X143688637Y-96471135D01*
X143504789Y-96838830D02*
X143504789Y-96066670D01*
X143798946Y-96066670D01*
X143872485Y-96103440D01*
X143909254Y-96140209D01*
X143946024Y-96213748D01*
X143946024Y-96324057D01*
X143909254Y-96397596D01*
X143872485Y-96434365D01*
X143798946Y-96471135D01*
X143504789Y-96471135D01*
X144387258Y-96397596D02*
X144313719Y-96360826D01*
X144276949Y-96324057D01*
X144240180Y-96250518D01*
X144240180Y-96213748D01*
X144276949Y-96140209D01*
X144313719Y-96103440D01*
X144387258Y-96066670D01*
X144534336Y-96066670D01*
X144607875Y-96103440D01*
X144644645Y-96140209D01*
X144681414Y-96213748D01*
X144681414Y-96250518D01*
X144644645Y-96324057D01*
X144607875Y-96360826D01*
X144534336Y-96397596D01*
X144387258Y-96397596D01*
X144313719Y-96434365D01*
X144276949Y-96471135D01*
X144240180Y-96544674D01*
X144240180Y-96691752D01*
X144276949Y-96765291D01*
X144313719Y-96802060D01*
X144387258Y-96838830D01*
X144534336Y-96838830D01*
X144607875Y-96802060D01*
X144644645Y-96765291D01*
X144681414Y-96691752D01*
X144681414Y-96544674D01*
X144644645Y-96471135D01*
X144607875Y-96434365D01*
X144534336Y-96397596D01*
%TO.C,R2*%
X131360324Y-110745330D02*
X131102937Y-110377635D01*
X130919089Y-110745330D02*
X130919089Y-109973170D01*
X131213246Y-109973170D01*
X131286785Y-110009940D01*
X131323554Y-110046709D01*
X131360324Y-110120248D01*
X131360324Y-110230557D01*
X131323554Y-110304096D01*
X131286785Y-110340865D01*
X131213246Y-110377635D01*
X130919089Y-110377635D01*
X131654480Y-110046709D02*
X131691249Y-110009940D01*
X131764788Y-109973170D01*
X131948636Y-109973170D01*
X132022175Y-110009940D01*
X132058945Y-110046709D01*
X132095714Y-110120248D01*
X132095714Y-110193787D01*
X132058945Y-110304096D01*
X131617710Y-110745330D01*
X132095714Y-110745330D01*
%TO.C,C10*%
X163940817Y-109902085D02*
X163904047Y-109938854D01*
X163793739Y-109975624D01*
X163720199Y-109975624D01*
X163609891Y-109938854D01*
X163536352Y-109865315D01*
X163499582Y-109791776D01*
X163462813Y-109644698D01*
X163462813Y-109534390D01*
X163499582Y-109387312D01*
X163536352Y-109313773D01*
X163609891Y-109240234D01*
X163720199Y-109203464D01*
X163793739Y-109203464D01*
X163904047Y-109240234D01*
X163940817Y-109277003D01*
X164676207Y-109975624D02*
X164234973Y-109975624D01*
X164455590Y-109975624D02*
X164455590Y-109203464D01*
X164382051Y-109313773D01*
X164308512Y-109387312D01*
X164234973Y-109424081D01*
X165154211Y-109203464D02*
X165227750Y-109203464D01*
X165301289Y-109240234D01*
X165338059Y-109277003D01*
X165374828Y-109350542D01*
X165411598Y-109497620D01*
X165411598Y-109681468D01*
X165374828Y-109828546D01*
X165338059Y-109902085D01*
X165301289Y-109938854D01*
X165227750Y-109975624D01*
X165154211Y-109975624D01*
X165080672Y-109938854D01*
X165043902Y-109902085D01*
X165007133Y-109828546D01*
X164970363Y-109681468D01*
X164970363Y-109497620D01*
X165007133Y-109350542D01*
X165043902Y-109277003D01*
X165080672Y-109240234D01*
X165154211Y-109203464D01*
%TO.C,C9*%
X150677024Y-96777991D02*
X150640254Y-96814760D01*
X150529946Y-96851530D01*
X150456406Y-96851530D01*
X150346098Y-96814760D01*
X150272559Y-96741221D01*
X150235789Y-96667682D01*
X150199020Y-96520604D01*
X150199020Y-96410296D01*
X150235789Y-96263218D01*
X150272559Y-96189679D01*
X150346098Y-96116140D01*
X150456406Y-96079370D01*
X150529946Y-96079370D01*
X150640254Y-96116140D01*
X150677024Y-96152909D01*
X151044719Y-96851530D02*
X151191797Y-96851530D01*
X151265336Y-96814760D01*
X151302106Y-96777991D01*
X151375645Y-96667682D01*
X151412414Y-96520604D01*
X151412414Y-96226448D01*
X151375645Y-96152909D01*
X151338875Y-96116140D01*
X151265336Y-96079370D01*
X151118258Y-96079370D01*
X151044719Y-96116140D01*
X151007949Y-96152909D01*
X150971180Y-96226448D01*
X150971180Y-96410296D01*
X151007949Y-96483835D01*
X151044719Y-96520604D01*
X151118258Y-96557374D01*
X151265336Y-96557374D01*
X151338875Y-96520604D01*
X151375645Y-96483835D01*
X151412414Y-96410296D01*
%TO.C,R5*%
X169383130Y-98326875D02*
X169015435Y-98584262D01*
X169383130Y-98768110D02*
X168610970Y-98768110D01*
X168610970Y-98473953D01*
X168647740Y-98400414D01*
X168684509Y-98363645D01*
X168758048Y-98326875D01*
X168868357Y-98326875D01*
X168941896Y-98363645D01*
X168978665Y-98400414D01*
X169015435Y-98473953D01*
X169015435Y-98768110D01*
X168610970Y-97628254D02*
X168610970Y-97995950D01*
X168978665Y-98032719D01*
X168941896Y-97995950D01*
X168905126Y-97922411D01*
X168905126Y-97738563D01*
X168941896Y-97665024D01*
X168978665Y-97628254D01*
X169052204Y-97591485D01*
X169236052Y-97591485D01*
X169309591Y-97628254D01*
X169346360Y-97665024D01*
X169383130Y-97738563D01*
X169383130Y-97922411D01*
X169346360Y-97995950D01*
X169309591Y-98032719D01*
%TO.C,C5*%
X154667424Y-94092691D02*
X154630654Y-94129460D01*
X154520346Y-94166230D01*
X154446806Y-94166230D01*
X154336498Y-94129460D01*
X154262959Y-94055921D01*
X154226189Y-93982382D01*
X154189420Y-93835304D01*
X154189420Y-93724996D01*
X154226189Y-93577918D01*
X154262959Y-93504379D01*
X154336498Y-93430840D01*
X154446806Y-93394070D01*
X154520346Y-93394070D01*
X154630654Y-93430840D01*
X154667424Y-93467609D01*
X155366045Y-93394070D02*
X154998349Y-93394070D01*
X154961580Y-93761765D01*
X154998349Y-93724996D01*
X155071888Y-93688226D01*
X155255736Y-93688226D01*
X155329275Y-93724996D01*
X155366045Y-93761765D01*
X155402814Y-93835304D01*
X155402814Y-94019152D01*
X155366045Y-94092691D01*
X155329275Y-94129460D01*
X155255736Y-94166230D01*
X155071888Y-94166230D01*
X154998349Y-94129460D01*
X154961580Y-94092691D01*
%TO.C,R3*%
X142152430Y-101303675D02*
X141784735Y-101561062D01*
X142152430Y-101744910D02*
X141380270Y-101744910D01*
X141380270Y-101450753D01*
X141417040Y-101377214D01*
X141453809Y-101340445D01*
X141527348Y-101303675D01*
X141637657Y-101303675D01*
X141711196Y-101340445D01*
X141747965Y-101377214D01*
X141784735Y-101450753D01*
X141784735Y-101744910D01*
X141380270Y-101046289D02*
X141380270Y-100568285D01*
X141674426Y-100825672D01*
X141674426Y-100715363D01*
X141711196Y-100641824D01*
X141747965Y-100605054D01*
X141821504Y-100568285D01*
X142005352Y-100568285D01*
X142078891Y-100605054D01*
X142115660Y-100641824D01*
X142152430Y-100715363D01*
X142152430Y-100935980D01*
X142115660Y-101009519D01*
X142078891Y-101046289D01*
%TO.C,U1*%
X167704189Y-99621070D02*
X167704189Y-100246152D01*
X167740959Y-100319691D01*
X167777728Y-100356460D01*
X167851267Y-100393230D01*
X167998346Y-100393230D01*
X168071885Y-100356460D01*
X168108654Y-100319691D01*
X168145424Y-100246152D01*
X168145424Y-99621070D01*
X168917584Y-100393230D02*
X168476349Y-100393230D01*
X168696966Y-100393230D02*
X168696966Y-99621070D01*
X168623427Y-99731379D01*
X168549888Y-99804918D01*
X168476349Y-99841687D01*
%TO.C,C20*%
X138738791Y-99271675D02*
X138775560Y-99308445D01*
X138812330Y-99418753D01*
X138812330Y-99492293D01*
X138775560Y-99602601D01*
X138702021Y-99676140D01*
X138628482Y-99712910D01*
X138481404Y-99749679D01*
X138371096Y-99749679D01*
X138224018Y-99712910D01*
X138150479Y-99676140D01*
X138076940Y-99602601D01*
X138040170Y-99492293D01*
X138040170Y-99418753D01*
X138076940Y-99308445D01*
X138113709Y-99271675D01*
X138113709Y-98977519D02*
X138076940Y-98940750D01*
X138040170Y-98867211D01*
X138040170Y-98683363D01*
X138076940Y-98609824D01*
X138113709Y-98573054D01*
X138187248Y-98536285D01*
X138260787Y-98536285D01*
X138371096Y-98573054D01*
X138812330Y-99014289D01*
X138812330Y-98536285D01*
X138040170Y-98058281D02*
X138040170Y-97984742D01*
X138076940Y-97911203D01*
X138113709Y-97874433D01*
X138187248Y-97837664D01*
X138334326Y-97800894D01*
X138518174Y-97800894D01*
X138665252Y-97837664D01*
X138738791Y-97874433D01*
X138775560Y-97911203D01*
X138812330Y-97984742D01*
X138812330Y-98058281D01*
X138775560Y-98131820D01*
X138738791Y-98168590D01*
X138665252Y-98205359D01*
X138518174Y-98242129D01*
X138334326Y-98242129D01*
X138187248Y-98205359D01*
X138113709Y-98168590D01*
X138076940Y-98131820D01*
X138040170Y-98058281D01*
%TO.C,U2*%
X141863289Y-103369170D02*
X141863289Y-103994252D01*
X141900059Y-104067791D01*
X141936828Y-104104560D01*
X142010367Y-104141330D01*
X142157446Y-104141330D01*
X142230985Y-104104560D01*
X142267754Y-104067791D01*
X142304524Y-103994252D01*
X142304524Y-103369170D01*
X142635449Y-103442709D02*
X142672219Y-103405940D01*
X142745758Y-103369170D01*
X142929606Y-103369170D01*
X143003145Y-103405940D01*
X143039914Y-103442709D01*
X143076684Y-103516248D01*
X143076684Y-103589787D01*
X143039914Y-103700096D01*
X142598680Y-104141330D01*
X143076684Y-104141330D01*
%TO.C,C1*%
X138157291Y-104013675D02*
X138194060Y-104050445D01*
X138230830Y-104160753D01*
X138230830Y-104234293D01*
X138194060Y-104344601D01*
X138120521Y-104418140D01*
X138046982Y-104454910D01*
X137899904Y-104491679D01*
X137789596Y-104491679D01*
X137642518Y-104454910D01*
X137568979Y-104418140D01*
X137495440Y-104344601D01*
X137458670Y-104234293D01*
X137458670Y-104160753D01*
X137495440Y-104050445D01*
X137532209Y-104013675D01*
X138230830Y-103278285D02*
X138230830Y-103719519D01*
X138230830Y-103498902D02*
X137458670Y-103498902D01*
X137568979Y-103572441D01*
X137642518Y-103645980D01*
X137679287Y-103719519D01*
%TO.C,L*%
X127340485Y-98720330D02*
X126972789Y-98720330D01*
X126972789Y-97948170D01*
%TO.C,C4*%
X136173791Y-101244175D02*
X136210560Y-101280945D01*
X136247330Y-101391253D01*
X136247330Y-101464793D01*
X136210560Y-101575101D01*
X136137021Y-101648640D01*
X136063482Y-101685410D01*
X135916404Y-101722179D01*
X135806096Y-101722179D01*
X135659018Y-101685410D01*
X135585479Y-101648640D01*
X135511940Y-101575101D01*
X135475170Y-101464793D01*
X135475170Y-101391253D01*
X135511940Y-101280945D01*
X135548709Y-101244175D01*
X135732557Y-100582324D02*
X136247330Y-100582324D01*
X135438400Y-100766172D02*
X135989943Y-100950019D01*
X135989943Y-100472015D01*
%TO.C,U3*%
X143895289Y-98822570D02*
X143895289Y-99447652D01*
X143932059Y-99521191D01*
X143968828Y-99557960D01*
X144042367Y-99594730D01*
X144189446Y-99594730D01*
X144262985Y-99557960D01*
X144299754Y-99521191D01*
X144336524Y-99447652D01*
X144336524Y-98822570D01*
X144630680Y-98822570D02*
X145108684Y-98822570D01*
X144851297Y-99116726D01*
X144961606Y-99116726D01*
X145035145Y-99153496D01*
X145071914Y-99190265D01*
X145108684Y-99263804D01*
X145108684Y-99447652D01*
X145071914Y-99521191D01*
X145035145Y-99557960D01*
X144961606Y-99594730D01*
X144740988Y-99594730D01*
X144667449Y-99557960D01*
X144630680Y-99521191D01*
%TO.C,R7*%
X128626930Y-95575975D02*
X128259235Y-95833362D01*
X128626930Y-96017210D02*
X127854770Y-96017210D01*
X127854770Y-95723053D01*
X127891540Y-95649514D01*
X127928309Y-95612745D01*
X128001848Y-95575975D01*
X128112157Y-95575975D01*
X128185696Y-95612745D01*
X128222465Y-95649514D01*
X128259235Y-95723053D01*
X128259235Y-96017210D01*
X127854770Y-95318589D02*
X127854770Y-94803815D01*
X128626930Y-95134741D01*
%TO.C,X1*%
D24*
X132079545Y-93339557D02*
X132667857Y-93560174D01*
X132079545Y-93780791D01*
X133035552Y-93854330D02*
X133035552Y-93082170D01*
X133476787Y-93854330D01*
X133476787Y-93082170D01*
X134175408Y-93854330D02*
X134175408Y-93449865D01*
X134138638Y-93376326D01*
X134065099Y-93339557D01*
X133918021Y-93339557D01*
X133844482Y-93376326D01*
X134175408Y-93817560D02*
X134101869Y-93854330D01*
X133918021Y-93854330D01*
X133844482Y-93817560D01*
X133807712Y-93744021D01*
X133807712Y-93670482D01*
X133844482Y-93596943D01*
X133918021Y-93560174D01*
X134101869Y-93560174D01*
X134175408Y-93523404D01*
X134543103Y-93854330D02*
X134543103Y-93339557D01*
X134543103Y-93413096D02*
X134579872Y-93376326D01*
X134653411Y-93339557D01*
X134763720Y-93339557D01*
X134837259Y-93376326D01*
X134874029Y-93449865D01*
X134874029Y-93854330D01*
X134874029Y-93449865D02*
X134910798Y-93376326D01*
X134984337Y-93339557D01*
X135094646Y-93339557D01*
X135168185Y-93376326D01*
X135204954Y-93449865D01*
X135204954Y-93854330D01*
X135866806Y-93817560D02*
X135793267Y-93854330D01*
X135646189Y-93854330D01*
X135572649Y-93817560D01*
X135535880Y-93744021D01*
X135535880Y-93449865D01*
X135572649Y-93376326D01*
X135646189Y-93339557D01*
X135793267Y-93339557D01*
X135866806Y-93376326D01*
X135903575Y-93449865D01*
X135903575Y-93523404D01*
X135535880Y-93596943D01*
%TO.C,@HOLE0*%
D11*
%TD*%
M02*
