%TF.GenerationSoftware,KiCad,Pcbnew,(5.1.10)-1*%
%TF.CreationDate,2021-10-04T17:28:05-07:00*%
%TF.ProjectId,pcbschem,70636273-6368-4656-9d2e-6b696361645f,rev?*%
%TF.SameCoordinates,Original*%
%TF.FileFunction,Soldermask,Top*%
%TF.FilePolarity,Negative*%
%FSLAX46Y46*%
G04 Gerber Fmt 4.6, Leading zero omitted, Abs format (unit mm)*
G04 Created by KiCad (PCBNEW (5.1.10)-1) date 2021-10-04 17:28:05*
%MOMM*%
%LPD*%
G01*
G04 APERTURE LIST*
%ADD10C,0.100000*%
%ADD11C,0.150000*%
%ADD12C,0.300000*%
%ADD13C,0.400000*%
%ADD14C,0.469900*%
%ADD15C,1.778000*%
%ADD16O,2.101600X1.101600*%
%ADD17C,0.650000*%
%ADD18C,3.301600*%
%ADD19C,2.540000*%
G04 APERTURE END LIST*
D10*
D11*
X177002200Y-166007200D02*
X177002200Y-198007200D01*
X285002200Y-198007200D01*
X285002200Y-166007200D01*
X177002200Y-166007200D01*
D10*
D11*
X10000000Y-10000000D02*
X10000000Y-200007200D01*
X287002200Y-200007200D01*
X287002200Y-10000000D01*
X10000000Y-10000000D01*
D10*
D11*
X12000000Y-12000000D02*
X12000000Y-198007200D01*
X285002200Y-198007200D01*
X285002200Y-12000000D01*
X12000000Y-12000000D01*
D10*
D11*
X60000000Y-12000000D02*
X60000000Y-10000000D01*
D10*
D11*
X110000000Y-12000000D02*
X110000000Y-10000000D01*
D10*
D11*
X160000000Y-12000000D02*
X160000000Y-10000000D01*
D10*
D11*
X210000000Y-12000000D02*
X210000000Y-10000000D01*
D10*
D11*
X260000000Y-12000000D02*
X260000000Y-10000000D01*
D10*
D11*
X36065476Y-11588095D02*
X35322619Y-11588095D01*
X35694047Y-11588095D02*
X35694047Y-10288095D01*
X35570238Y-10473809D01*
X35446428Y-10597619D01*
X35322619Y-10659523D01*
D10*
D11*
X85322619Y-10411904D02*
X85384523Y-10350000D01*
X85508333Y-10288095D01*
X85817857Y-10288095D01*
X85941666Y-10350000D01*
X86003571Y-10411904D01*
X86065476Y-10535714D01*
X86065476Y-10659523D01*
X86003571Y-10845238D01*
X85260714Y-11588095D01*
X86065476Y-11588095D01*
D10*
D11*
X135260714Y-10288095D02*
X136065476Y-10288095D01*
X135632142Y-10783333D01*
X135817857Y-10783333D01*
X135941666Y-10845238D01*
X136003571Y-10907142D01*
X136065476Y-11030952D01*
X136065476Y-11340476D01*
X136003571Y-11464285D01*
X135941666Y-11526190D01*
X135817857Y-11588095D01*
X135446428Y-11588095D01*
X135322619Y-11526190D01*
X135260714Y-11464285D01*
D10*
D11*
X185941666Y-10721428D02*
X185941666Y-11588095D01*
X185632142Y-10226190D02*
X185322619Y-11154761D01*
X186127380Y-11154761D01*
D10*
D11*
X236003571Y-10288095D02*
X235384523Y-10288095D01*
X235322619Y-10907142D01*
X235384523Y-10845238D01*
X235508333Y-10783333D01*
X235817857Y-10783333D01*
X235941666Y-10845238D01*
X236003571Y-10907142D01*
X236065476Y-11030952D01*
X236065476Y-11340476D01*
X236003571Y-11464285D01*
X235941666Y-11526190D01*
X235817857Y-11588095D01*
X235508333Y-11588095D01*
X235384523Y-11526190D01*
X235322619Y-11464285D01*
D10*
D11*
X285941666Y-10288095D02*
X285694047Y-10288095D01*
X285570238Y-10350000D01*
X285508333Y-10411904D01*
X285384523Y-10597619D01*
X285322619Y-10845238D01*
X285322619Y-11340476D01*
X285384523Y-11464285D01*
X285446428Y-11526190D01*
X285570238Y-11588095D01*
X285817857Y-11588095D01*
X285941666Y-11526190D01*
X286003571Y-11464285D01*
X286065476Y-11340476D01*
X286065476Y-11030952D01*
X286003571Y-10907142D01*
X285941666Y-10845238D01*
X285817857Y-10783333D01*
X285570238Y-10783333D01*
X285446428Y-10845238D01*
X285384523Y-10907142D01*
X285322619Y-11030952D01*
D10*
D11*
X60000000Y-198007200D02*
X60000000Y-200007200D01*
D10*
D11*
X110000000Y-198007200D02*
X110000000Y-200007200D01*
D10*
D11*
X160000000Y-198007200D02*
X160000000Y-200007200D01*
D10*
D11*
X210000000Y-198007200D02*
X210000000Y-200007200D01*
D10*
D11*
X260000000Y-198007200D02*
X260000000Y-200007200D01*
D10*
D11*
X36065476Y-199595295D02*
X35322619Y-199595295D01*
X35694047Y-199595295D02*
X35694047Y-198295295D01*
X35570238Y-198481009D01*
X35446428Y-198604819D01*
X35322619Y-198666723D01*
D10*
D11*
X85322619Y-198419104D02*
X85384523Y-198357200D01*
X85508333Y-198295295D01*
X85817857Y-198295295D01*
X85941666Y-198357200D01*
X86003571Y-198419104D01*
X86065476Y-198542914D01*
X86065476Y-198666723D01*
X86003571Y-198852438D01*
X85260714Y-199595295D01*
X86065476Y-199595295D01*
D10*
D11*
X135260714Y-198295295D02*
X136065476Y-198295295D01*
X135632142Y-198790533D01*
X135817857Y-198790533D01*
X135941666Y-198852438D01*
X136003571Y-198914342D01*
X136065476Y-199038152D01*
X136065476Y-199347676D01*
X136003571Y-199471485D01*
X135941666Y-199533390D01*
X135817857Y-199595295D01*
X135446428Y-199595295D01*
X135322619Y-199533390D01*
X135260714Y-199471485D01*
D10*
D11*
X185941666Y-198728628D02*
X185941666Y-199595295D01*
X185632142Y-198233390D02*
X185322619Y-199161961D01*
X186127380Y-199161961D01*
D10*
D11*
X236003571Y-198295295D02*
X235384523Y-198295295D01*
X235322619Y-198914342D01*
X235384523Y-198852438D01*
X235508333Y-198790533D01*
X235817857Y-198790533D01*
X235941666Y-198852438D01*
X236003571Y-198914342D01*
X236065476Y-199038152D01*
X236065476Y-199347676D01*
X236003571Y-199471485D01*
X235941666Y-199533390D01*
X235817857Y-199595295D01*
X235508333Y-199595295D01*
X235384523Y-199533390D01*
X235322619Y-199471485D01*
D10*
D11*
X285941666Y-198295295D02*
X285694047Y-198295295D01*
X285570238Y-198357200D01*
X285508333Y-198419104D01*
X285384523Y-198604819D01*
X285322619Y-198852438D01*
X285322619Y-199347676D01*
X285384523Y-199471485D01*
X285446428Y-199533390D01*
X285570238Y-199595295D01*
X285817857Y-199595295D01*
X285941666Y-199533390D01*
X286003571Y-199471485D01*
X286065476Y-199347676D01*
X286065476Y-199038152D01*
X286003571Y-198914342D01*
X285941666Y-198852438D01*
X285817857Y-198790533D01*
X285570238Y-198790533D01*
X285446428Y-198852438D01*
X285384523Y-198914342D01*
X285322619Y-199038152D01*
D10*
D11*
X10000000Y-60000000D02*
X12000000Y-60000000D01*
D10*
D11*
X10000000Y-110000000D02*
X12000000Y-110000000D01*
D10*
D11*
X10000000Y-160000000D02*
X12000000Y-160000000D01*
D10*
D11*
X10690476Y-35216666D02*
X11309523Y-35216666D01*
X10566666Y-35588095D02*
X11000000Y-34288095D01*
X11433333Y-35588095D01*
D10*
D11*
X11092857Y-84907142D02*
X11278571Y-84969047D01*
X11340476Y-85030952D01*
X11402380Y-85154761D01*
X11402380Y-85340476D01*
X11340476Y-85464285D01*
X11278571Y-85526190D01*
X11154761Y-85588095D01*
X10659523Y-85588095D01*
X10659523Y-84288095D01*
X11092857Y-84288095D01*
X11216666Y-84350000D01*
X11278571Y-84411904D01*
X11340476Y-84535714D01*
X11340476Y-84659523D01*
X11278571Y-84783333D01*
X11216666Y-84845238D01*
X11092857Y-84907142D01*
X10659523Y-84907142D01*
D10*
D11*
X11402380Y-135464285D02*
X11340476Y-135526190D01*
X11154761Y-135588095D01*
X11030952Y-135588095D01*
X10845238Y-135526190D01*
X10721428Y-135402380D01*
X10659523Y-135278571D01*
X10597619Y-135030952D01*
X10597619Y-134845238D01*
X10659523Y-134597619D01*
X10721428Y-134473809D01*
X10845238Y-134350000D01*
X11030952Y-134288095D01*
X11154761Y-134288095D01*
X11340476Y-134350000D01*
X11402380Y-134411904D01*
D10*
D11*
X10659523Y-185588095D02*
X10659523Y-184288095D01*
X10969047Y-184288095D01*
X11154761Y-184350000D01*
X11278571Y-184473809D01*
X11340476Y-184597619D01*
X11402380Y-184845238D01*
X11402380Y-185030952D01*
X11340476Y-185278571D01*
X11278571Y-185402380D01*
X11154761Y-185526190D01*
X10969047Y-185588095D01*
X10659523Y-185588095D01*
D10*
D11*
X287002200Y-60000000D02*
X285002200Y-60000000D01*
D10*
D11*
X287002200Y-110000000D02*
X285002200Y-110000000D01*
D10*
D11*
X287002200Y-160000000D02*
X285002200Y-160000000D01*
D10*
D11*
X285692676Y-35216666D02*
X286311723Y-35216666D01*
X285568866Y-35588095D02*
X286002200Y-34288095D01*
X286435533Y-35588095D01*
D10*
D11*
X286095057Y-84907142D02*
X286280771Y-84969047D01*
X286342676Y-85030952D01*
X286404580Y-85154761D01*
X286404580Y-85340476D01*
X286342676Y-85464285D01*
X286280771Y-85526190D01*
X286156961Y-85588095D01*
X285661723Y-85588095D01*
X285661723Y-84288095D01*
X286095057Y-84288095D01*
X286218866Y-84350000D01*
X286280771Y-84411904D01*
X286342676Y-84535714D01*
X286342676Y-84659523D01*
X286280771Y-84783333D01*
X286218866Y-84845238D01*
X286095057Y-84907142D01*
X285661723Y-84907142D01*
D10*
D11*
X286404580Y-135464285D02*
X286342676Y-135526190D01*
X286156961Y-135588095D01*
X286033152Y-135588095D01*
X285847438Y-135526190D01*
X285723628Y-135402380D01*
X285661723Y-135278571D01*
X285599819Y-135030952D01*
X285599819Y-134845238D01*
X285661723Y-134597619D01*
X285723628Y-134473809D01*
X285847438Y-134350000D01*
X286033152Y-134288095D01*
X286156961Y-134288095D01*
X286342676Y-134350000D01*
X286404580Y-134411904D01*
D10*
D11*
X285661723Y-185588095D02*
X285661723Y-184288095D01*
X285971247Y-184288095D01*
X286156961Y-184350000D01*
X286280771Y-184473809D01*
X286342676Y-184597619D01*
X286404580Y-184845238D01*
X286404580Y-185030952D01*
X286342676Y-185278571D01*
X286280771Y-185402380D01*
X286156961Y-185526190D01*
X285971247Y-185588095D01*
X285661723Y-185588095D01*
D10*
D11*
X200434342Y-193785771D02*
X200434342Y-192285771D01*
X200791485Y-192285771D01*
X201005771Y-192357200D01*
X201148628Y-192500057D01*
X201220057Y-192642914D01*
X201291485Y-192928628D01*
X201291485Y-193142914D01*
X201220057Y-193428628D01*
X201148628Y-193571485D01*
X201005771Y-193714342D01*
X200791485Y-193785771D01*
X200434342Y-193785771D01*
X202577200Y-193785771D02*
X202577200Y-193000057D01*
X202505771Y-192857200D01*
X202362914Y-192785771D01*
X202077200Y-192785771D01*
X201934342Y-192857200D01*
X202577200Y-193714342D02*
X202434342Y-193785771D01*
X202077200Y-193785771D01*
X201934342Y-193714342D01*
X201862914Y-193571485D01*
X201862914Y-193428628D01*
X201934342Y-193285771D01*
X202077200Y-193214342D01*
X202434342Y-193214342D01*
X202577200Y-193142914D01*
X203077200Y-192785771D02*
X203648628Y-192785771D01*
X203291485Y-192285771D02*
X203291485Y-193571485D01*
X203362914Y-193714342D01*
X203505771Y-193785771D01*
X203648628Y-193785771D01*
X204720057Y-193714342D02*
X204577200Y-193785771D01*
X204291485Y-193785771D01*
X204148628Y-193714342D01*
X204077200Y-193571485D01*
X204077200Y-193000057D01*
X204148628Y-192857200D01*
X204291485Y-192785771D01*
X204577200Y-192785771D01*
X204720057Y-192857200D01*
X204791485Y-193000057D01*
X204791485Y-193142914D01*
X204077200Y-193285771D01*
X205434342Y-193642914D02*
X205505771Y-193714342D01*
X205434342Y-193785771D01*
X205362914Y-193714342D01*
X205434342Y-193642914D01*
X205434342Y-193785771D01*
X205434342Y-192857200D02*
X205505771Y-192928628D01*
X205434342Y-193000057D01*
X205362914Y-192928628D01*
X205434342Y-192857200D01*
X205434342Y-193000057D01*
D10*
D11*
X177002200Y-194507200D02*
X285002200Y-194507200D01*
D10*
D11*
X178434342Y-196585771D02*
X178434342Y-195085771D01*
X179291485Y-196585771D02*
X178648628Y-195728628D01*
X179291485Y-195085771D02*
X178434342Y-195942914D01*
X179934342Y-196585771D02*
X179934342Y-195585771D01*
X179934342Y-195085771D02*
X179862914Y-195157200D01*
X179934342Y-195228628D01*
X180005771Y-195157200D01*
X179934342Y-195085771D01*
X179934342Y-195228628D01*
X181505771Y-196442914D02*
X181434342Y-196514342D01*
X181220057Y-196585771D01*
X181077200Y-196585771D01*
X180862914Y-196514342D01*
X180720057Y-196371485D01*
X180648628Y-196228628D01*
X180577200Y-195942914D01*
X180577200Y-195728628D01*
X180648628Y-195442914D01*
X180720057Y-195300057D01*
X180862914Y-195157200D01*
X181077200Y-195085771D01*
X181220057Y-195085771D01*
X181434342Y-195157200D01*
X181505771Y-195228628D01*
X182791485Y-196585771D02*
X182791485Y-195800057D01*
X182720057Y-195657200D01*
X182577200Y-195585771D01*
X182291485Y-195585771D01*
X182148628Y-195657200D01*
X182791485Y-196514342D02*
X182648628Y-196585771D01*
X182291485Y-196585771D01*
X182148628Y-196514342D01*
X182077200Y-196371485D01*
X182077200Y-196228628D01*
X182148628Y-196085771D01*
X182291485Y-196014342D01*
X182648628Y-196014342D01*
X182791485Y-195942914D01*
X184148628Y-196585771D02*
X184148628Y-195085771D01*
X184148628Y-196514342D02*
X184005771Y-196585771D01*
X183720057Y-196585771D01*
X183577200Y-196514342D01*
X183505771Y-196442914D01*
X183434342Y-196300057D01*
X183434342Y-195871485D01*
X183505771Y-195728628D01*
X183577200Y-195657200D01*
X183720057Y-195585771D01*
X184005771Y-195585771D01*
X184148628Y-195657200D01*
X186005771Y-195800057D02*
X186505771Y-195800057D01*
X186720057Y-196585771D02*
X186005771Y-196585771D01*
X186005771Y-195085771D01*
X186720057Y-195085771D01*
X187362914Y-196442914D02*
X187434342Y-196514342D01*
X187362914Y-196585771D01*
X187291485Y-196514342D01*
X187362914Y-196442914D01*
X187362914Y-196585771D01*
X188077200Y-196585771D02*
X188077200Y-195085771D01*
X188434342Y-195085771D01*
X188648628Y-195157200D01*
X188791485Y-195300057D01*
X188862914Y-195442914D01*
X188934342Y-195728628D01*
X188934342Y-195942914D01*
X188862914Y-196228628D01*
X188791485Y-196371485D01*
X188648628Y-196514342D01*
X188434342Y-196585771D01*
X188077200Y-196585771D01*
X189577200Y-196442914D02*
X189648628Y-196514342D01*
X189577200Y-196585771D01*
X189505771Y-196514342D01*
X189577200Y-196442914D01*
X189577200Y-196585771D01*
X190220057Y-196157200D02*
X190934342Y-196157200D01*
X190077200Y-196585771D02*
X190577200Y-195085771D01*
X191077200Y-196585771D01*
X191577200Y-196442914D02*
X191648628Y-196514342D01*
X191577200Y-196585771D01*
X191505771Y-196514342D01*
X191577200Y-196442914D01*
X191577200Y-196585771D01*
X194577200Y-196585771D02*
X194577200Y-195085771D01*
X194720057Y-196014342D02*
X195148628Y-196585771D01*
X195148628Y-195585771D02*
X194577200Y-196157200D01*
X195791485Y-196585771D02*
X195791485Y-195585771D01*
X195791485Y-195085771D02*
X195720057Y-195157200D01*
X195791485Y-195228628D01*
X195862914Y-195157200D01*
X195791485Y-195085771D01*
X195791485Y-195228628D01*
X197148628Y-196514342D02*
X197005771Y-196585771D01*
X196720057Y-196585771D01*
X196577200Y-196514342D01*
X196505771Y-196442914D01*
X196434342Y-196300057D01*
X196434342Y-195871485D01*
X196505771Y-195728628D01*
X196577200Y-195657200D01*
X196720057Y-195585771D01*
X197005771Y-195585771D01*
X197148628Y-195657200D01*
X198434342Y-196585771D02*
X198434342Y-195800057D01*
X198362914Y-195657200D01*
X198220057Y-195585771D01*
X197934342Y-195585771D01*
X197791485Y-195657200D01*
X198434342Y-196514342D02*
X198291485Y-196585771D01*
X197934342Y-196585771D01*
X197791485Y-196514342D01*
X197720057Y-196371485D01*
X197720057Y-196228628D01*
X197791485Y-196085771D01*
X197934342Y-196014342D01*
X198291485Y-196014342D01*
X198434342Y-195942914D01*
X199791485Y-196585771D02*
X199791485Y-195085771D01*
X199791485Y-196514342D02*
X199648628Y-196585771D01*
X199362914Y-196585771D01*
X199220057Y-196514342D01*
X199148628Y-196442914D01*
X199077200Y-196300057D01*
X199077200Y-195871485D01*
X199148628Y-195728628D01*
X199220057Y-195657200D01*
X199362914Y-195585771D01*
X199648628Y-195585771D01*
X199791485Y-195657200D01*
X202077200Y-197157200D02*
X202005771Y-197085771D01*
X201862914Y-196871485D01*
X201791485Y-196728628D01*
X201720057Y-196514342D01*
X201648628Y-196157200D01*
X201648628Y-195871485D01*
X201720057Y-195514342D01*
X201791485Y-195300057D01*
X201862914Y-195157200D01*
X202005771Y-194942914D01*
X202077200Y-194871485D01*
X203362914Y-195085771D02*
X202648628Y-195085771D01*
X202577200Y-195800057D01*
X202648628Y-195728628D01*
X202791485Y-195657200D01*
X203148628Y-195657200D01*
X203291485Y-195728628D01*
X203362914Y-195800057D01*
X203434342Y-195942914D01*
X203434342Y-196300057D01*
X203362914Y-196442914D01*
X203291485Y-196514342D01*
X203148628Y-196585771D01*
X202791485Y-196585771D01*
X202648628Y-196514342D01*
X202577200Y-196442914D01*
X204077200Y-196442914D02*
X204148628Y-196514342D01*
X204077200Y-196585771D01*
X204005771Y-196514342D01*
X204077200Y-196442914D01*
X204077200Y-196585771D01*
X205577200Y-196585771D02*
X204720057Y-196585771D01*
X205148628Y-196585771D02*
X205148628Y-195085771D01*
X205005771Y-195300057D01*
X204862914Y-195442914D01*
X204720057Y-195514342D01*
X206220057Y-196442914D02*
X206291485Y-196514342D01*
X206220057Y-196585771D01*
X206148628Y-196514342D01*
X206220057Y-196442914D01*
X206220057Y-196585771D01*
X207720057Y-196585771D02*
X206862914Y-196585771D01*
X207291485Y-196585771D02*
X207291485Y-195085771D01*
X207148628Y-195300057D01*
X207005771Y-195442914D01*
X206862914Y-195514342D01*
X208648628Y-195085771D02*
X208791485Y-195085771D01*
X208934342Y-195157200D01*
X209005771Y-195228628D01*
X209077200Y-195371485D01*
X209148628Y-195657200D01*
X209148628Y-196014342D01*
X209077200Y-196300057D01*
X209005771Y-196442914D01*
X208934342Y-196514342D01*
X208791485Y-196585771D01*
X208648628Y-196585771D01*
X208505771Y-196514342D01*
X208434342Y-196442914D01*
X208362914Y-196300057D01*
X208291485Y-196014342D01*
X208291485Y-195657200D01*
X208362914Y-195371485D01*
X208434342Y-195228628D01*
X208505771Y-195157200D01*
X208648628Y-195085771D01*
X209648628Y-197157200D02*
X209720057Y-197085771D01*
X209862914Y-196871485D01*
X209934342Y-196728628D01*
X210005771Y-196514342D01*
X210077200Y-196157200D01*
X210077200Y-195871485D01*
X210005771Y-195514342D01*
X209934342Y-195300057D01*
X209862914Y-195157200D01*
X209720057Y-194942914D01*
X209648628Y-194871485D01*
X210791485Y-196014342D02*
X211934342Y-196014342D01*
X213434342Y-196585771D02*
X212577200Y-196585771D01*
X213005771Y-196585771D02*
X213005771Y-195085771D01*
X212862914Y-195300057D01*
X212720057Y-195442914D01*
X212577200Y-195514342D01*
D10*
D11*
X177002200Y-191507200D02*
X285002200Y-191507200D01*
D10*
D12*
X264411485Y-193785771D02*
X263911485Y-193071485D01*
X263554342Y-193785771D02*
X263554342Y-192285771D01*
X264125771Y-192285771D01*
X264268628Y-192357200D01*
X264340057Y-192428628D01*
X264411485Y-192571485D01*
X264411485Y-192785771D01*
X264340057Y-192928628D01*
X264268628Y-193000057D01*
X264125771Y-193071485D01*
X263554342Y-193071485D01*
X265625771Y-193714342D02*
X265482914Y-193785771D01*
X265197200Y-193785771D01*
X265054342Y-193714342D01*
X264982914Y-193571485D01*
X264982914Y-193000057D01*
X265054342Y-192857200D01*
X265197200Y-192785771D01*
X265482914Y-192785771D01*
X265625771Y-192857200D01*
X265697200Y-193000057D01*
X265697200Y-193142914D01*
X264982914Y-193285771D01*
X266197200Y-192785771D02*
X266554342Y-193785771D01*
X266911485Y-192785771D01*
X267482914Y-193642914D02*
X267554342Y-193714342D01*
X267482914Y-193785771D01*
X267411485Y-193714342D01*
X267482914Y-193642914D01*
X267482914Y-193785771D01*
X267482914Y-192857200D02*
X267554342Y-192928628D01*
X267482914Y-193000057D01*
X267411485Y-192928628D01*
X267482914Y-192857200D01*
X267482914Y-193000057D01*
D10*
D11*
X178362914Y-193714342D02*
X178577200Y-193785771D01*
X178934342Y-193785771D01*
X179077200Y-193714342D01*
X179148628Y-193642914D01*
X179220057Y-193500057D01*
X179220057Y-193357200D01*
X179148628Y-193214342D01*
X179077200Y-193142914D01*
X178934342Y-193071485D01*
X178648628Y-193000057D01*
X178505771Y-192928628D01*
X178434342Y-192857200D01*
X178362914Y-192714342D01*
X178362914Y-192571485D01*
X178434342Y-192428628D01*
X178505771Y-192357200D01*
X178648628Y-192285771D01*
X179005771Y-192285771D01*
X179220057Y-192357200D01*
X179862914Y-193785771D02*
X179862914Y-192785771D01*
X179862914Y-192285771D02*
X179791485Y-192357200D01*
X179862914Y-192428628D01*
X179934342Y-192357200D01*
X179862914Y-192285771D01*
X179862914Y-192428628D01*
X180434342Y-192785771D02*
X181220057Y-192785771D01*
X180434342Y-193785771D01*
X181220057Y-193785771D01*
X182362914Y-193714342D02*
X182220057Y-193785771D01*
X181934342Y-193785771D01*
X181791485Y-193714342D01*
X181720057Y-193571485D01*
X181720057Y-193000057D01*
X181791485Y-192857200D01*
X181934342Y-192785771D01*
X182220057Y-192785771D01*
X182362914Y-192857200D01*
X182434342Y-193000057D01*
X182434342Y-193142914D01*
X181720057Y-193285771D01*
X183077200Y-193642914D02*
X183148628Y-193714342D01*
X183077200Y-193785771D01*
X183005771Y-193714342D01*
X183077200Y-193642914D01*
X183077200Y-193785771D01*
X183077200Y-192857200D02*
X183148628Y-192928628D01*
X183077200Y-193000057D01*
X183005771Y-192928628D01*
X183077200Y-192857200D01*
X183077200Y-193000057D01*
X184862914Y-193357200D02*
X185577200Y-193357200D01*
X184720057Y-193785771D02*
X185220057Y-192285771D01*
X185720057Y-193785771D01*
X186862914Y-192785771D02*
X186862914Y-193785771D01*
X186505771Y-192214342D02*
X186148628Y-193285771D01*
X187077200Y-193285771D01*
D10*
D11*
X263434342Y-196585771D02*
X263434342Y-195085771D01*
X264791485Y-196585771D02*
X264791485Y-195085771D01*
X264791485Y-196514342D02*
X264648628Y-196585771D01*
X264362914Y-196585771D01*
X264220057Y-196514342D01*
X264148628Y-196442914D01*
X264077200Y-196300057D01*
X264077200Y-195871485D01*
X264148628Y-195728628D01*
X264220057Y-195657200D01*
X264362914Y-195585771D01*
X264648628Y-195585771D01*
X264791485Y-195657200D01*
X265505771Y-196442914D02*
X265577200Y-196514342D01*
X265505771Y-196585771D01*
X265434342Y-196514342D01*
X265505771Y-196442914D01*
X265505771Y-196585771D01*
X265505771Y-195657200D02*
X265577200Y-195728628D01*
X265505771Y-195800057D01*
X265434342Y-195728628D01*
X265505771Y-195657200D01*
X265505771Y-195800057D01*
X268148628Y-196585771D02*
X267291485Y-196585771D01*
X267720057Y-196585771D02*
X267720057Y-195085771D01*
X267577200Y-195300057D01*
X267434342Y-195442914D01*
X267291485Y-195514342D01*
X269862914Y-195014342D02*
X268577200Y-196942914D01*
X271148628Y-196585771D02*
X270291485Y-196585771D01*
X270720057Y-196585771D02*
X270720057Y-195085771D01*
X270577200Y-195300057D01*
X270434342Y-195442914D01*
X270291485Y-195514342D01*
D10*
D11*
X177002200Y-187507200D02*
X285002200Y-187507200D01*
D10*
D13*
X178714580Y-188211961D02*
X179857438Y-188211961D01*
X179036009Y-190211961D02*
X179286009Y-188211961D01*
X180274104Y-190211961D02*
X180440771Y-188878628D01*
X180524104Y-188211961D02*
X180416961Y-188307200D01*
X180500295Y-188402438D01*
X180607438Y-188307200D01*
X180524104Y-188211961D01*
X180500295Y-188402438D01*
X181107438Y-188878628D02*
X181869342Y-188878628D01*
X181476485Y-188211961D02*
X181262200Y-189926247D01*
X181333628Y-190116723D01*
X181512200Y-190211961D01*
X181702676Y-190211961D01*
X182655057Y-190211961D02*
X182476485Y-190116723D01*
X182405057Y-189926247D01*
X182619342Y-188211961D01*
X184190771Y-190116723D02*
X183988390Y-190211961D01*
X183607438Y-190211961D01*
X183428866Y-190116723D01*
X183357438Y-189926247D01*
X183452676Y-189164342D01*
X183571723Y-188973866D01*
X183774104Y-188878628D01*
X184155057Y-188878628D01*
X184333628Y-188973866D01*
X184405057Y-189164342D01*
X184381247Y-189354819D01*
X183405057Y-189545295D01*
X185155057Y-190021485D02*
X185238390Y-190116723D01*
X185131247Y-190211961D01*
X185047914Y-190116723D01*
X185155057Y-190021485D01*
X185131247Y-190211961D01*
X185286009Y-188973866D02*
X185369342Y-189069104D01*
X185262200Y-189164342D01*
X185178866Y-189069104D01*
X185286009Y-188973866D01*
X185262200Y-189164342D01*
D10*
D11*
X178934342Y-185600057D02*
X178434342Y-185600057D01*
X178434342Y-186385771D02*
X178434342Y-184885771D01*
X179148628Y-184885771D01*
X179720057Y-186385771D02*
X179720057Y-185385771D01*
X179720057Y-184885771D02*
X179648628Y-184957200D01*
X179720057Y-185028628D01*
X179791485Y-184957200D01*
X179720057Y-184885771D01*
X179720057Y-185028628D01*
X180648628Y-186385771D02*
X180505771Y-186314342D01*
X180434342Y-186171485D01*
X180434342Y-184885771D01*
X181791485Y-186314342D02*
X181648628Y-186385771D01*
X181362914Y-186385771D01*
X181220057Y-186314342D01*
X181148628Y-186171485D01*
X181148628Y-185600057D01*
X181220057Y-185457200D01*
X181362914Y-185385771D01*
X181648628Y-185385771D01*
X181791485Y-185457200D01*
X181862914Y-185600057D01*
X181862914Y-185742914D01*
X181148628Y-185885771D01*
X182505771Y-186242914D02*
X182577200Y-186314342D01*
X182505771Y-186385771D01*
X182434342Y-186314342D01*
X182505771Y-186242914D01*
X182505771Y-186385771D01*
X182505771Y-185457200D02*
X182577200Y-185528628D01*
X182505771Y-185600057D01*
X182434342Y-185528628D01*
X182505771Y-185457200D01*
X182505771Y-185600057D01*
X184362914Y-185385771D02*
X184362914Y-186885771D01*
X184362914Y-185457200D02*
X184505771Y-185385771D01*
X184791485Y-185385771D01*
X184934342Y-185457200D01*
X185005771Y-185528628D01*
X185077200Y-185671485D01*
X185077200Y-186100057D01*
X185005771Y-186242914D01*
X184934342Y-186314342D01*
X184791485Y-186385771D01*
X184505771Y-186385771D01*
X184362914Y-186314342D01*
X186362914Y-186314342D02*
X186220057Y-186385771D01*
X185934342Y-186385771D01*
X185791485Y-186314342D01*
X185720057Y-186242914D01*
X185648628Y-186100057D01*
X185648628Y-185671485D01*
X185720057Y-185528628D01*
X185791485Y-185457200D01*
X185934342Y-185385771D01*
X186220057Y-185385771D01*
X186362914Y-185457200D01*
X187005771Y-186385771D02*
X187005771Y-184885771D01*
X187005771Y-185457200D02*
X187148628Y-185385771D01*
X187434342Y-185385771D01*
X187577200Y-185457200D01*
X187648628Y-185528628D01*
X187720057Y-185671485D01*
X187720057Y-186100057D01*
X187648628Y-186242914D01*
X187577200Y-186314342D01*
X187434342Y-186385771D01*
X187148628Y-186385771D01*
X187005771Y-186314342D01*
X188291485Y-186314342D02*
X188434342Y-186385771D01*
X188720057Y-186385771D01*
X188862914Y-186314342D01*
X188934342Y-186171485D01*
X188934342Y-186100057D01*
X188862914Y-185957200D01*
X188720057Y-185885771D01*
X188505771Y-185885771D01*
X188362914Y-185814342D01*
X188291485Y-185671485D01*
X188291485Y-185600057D01*
X188362914Y-185457200D01*
X188505771Y-185385771D01*
X188720057Y-185385771D01*
X188862914Y-185457200D01*
X190220057Y-186314342D02*
X190077200Y-186385771D01*
X189791485Y-186385771D01*
X189648628Y-186314342D01*
X189577200Y-186242914D01*
X189505771Y-186100057D01*
X189505771Y-185671485D01*
X189577200Y-185528628D01*
X189648628Y-185457200D01*
X189791485Y-185385771D01*
X190077200Y-185385771D01*
X190220057Y-185457200D01*
X190862914Y-186385771D02*
X190862914Y-184885771D01*
X191505771Y-186385771D02*
X191505771Y-185600057D01*
X191434342Y-185457200D01*
X191291485Y-185385771D01*
X191077200Y-185385771D01*
X190934342Y-185457200D01*
X190862914Y-185528628D01*
X192791485Y-186314342D02*
X192648628Y-186385771D01*
X192362914Y-186385771D01*
X192220057Y-186314342D01*
X192148628Y-186171485D01*
X192148628Y-185600057D01*
X192220057Y-185457200D01*
X192362914Y-185385771D01*
X192648628Y-185385771D01*
X192791485Y-185457200D01*
X192862914Y-185600057D01*
X192862914Y-185742914D01*
X192148628Y-185885771D01*
X193505771Y-186385771D02*
X193505771Y-185385771D01*
X193505771Y-185528628D02*
X193577200Y-185457200D01*
X193720057Y-185385771D01*
X193934342Y-185385771D01*
X194077200Y-185457200D01*
X194148628Y-185600057D01*
X194148628Y-186385771D01*
X194148628Y-185600057D02*
X194220057Y-185457200D01*
X194362914Y-185385771D01*
X194577200Y-185385771D01*
X194720057Y-185457200D01*
X194791485Y-185600057D01*
X194791485Y-186385771D01*
X195505771Y-186242914D02*
X195577200Y-186314342D01*
X195505771Y-186385771D01*
X195434342Y-186314342D01*
X195505771Y-186242914D01*
X195505771Y-186385771D01*
X196220057Y-186385771D02*
X196220057Y-184885771D01*
X196362914Y-185814342D02*
X196791485Y-186385771D01*
X196791485Y-185385771D02*
X196220057Y-185957200D01*
X197434342Y-186385771D02*
X197434342Y-185385771D01*
X197434342Y-184885771D02*
X197362914Y-184957200D01*
X197434342Y-185028628D01*
X197505771Y-184957200D01*
X197434342Y-184885771D01*
X197434342Y-185028628D01*
X198791485Y-186314342D02*
X198648628Y-186385771D01*
X198362914Y-186385771D01*
X198220057Y-186314342D01*
X198148628Y-186242914D01*
X198077200Y-186100057D01*
X198077200Y-185671485D01*
X198148628Y-185528628D01*
X198220057Y-185457200D01*
X198362914Y-185385771D01*
X198648628Y-185385771D01*
X198791485Y-185457200D01*
X200077200Y-186385771D02*
X200077200Y-185600057D01*
X200005771Y-185457200D01*
X199862914Y-185385771D01*
X199577200Y-185385771D01*
X199434342Y-185457200D01*
X200077200Y-186314342D02*
X199934342Y-186385771D01*
X199577200Y-186385771D01*
X199434342Y-186314342D01*
X199362914Y-186171485D01*
X199362914Y-186028628D01*
X199434342Y-185885771D01*
X199577200Y-185814342D01*
X199934342Y-185814342D01*
X200077200Y-185742914D01*
X201434342Y-186385771D02*
X201434342Y-184885771D01*
X201434342Y-186314342D02*
X201291485Y-186385771D01*
X201005771Y-186385771D01*
X200862914Y-186314342D01*
X200791485Y-186242914D01*
X200720057Y-186100057D01*
X200720057Y-185671485D01*
X200791485Y-185528628D01*
X200862914Y-185457200D01*
X201005771Y-185385771D01*
X201291485Y-185385771D01*
X201434342Y-185457200D01*
X201791485Y-186528628D02*
X202934342Y-186528628D01*
X203291485Y-185385771D02*
X203291485Y-186885771D01*
X203291485Y-185457200D02*
X203434342Y-185385771D01*
X203720057Y-185385771D01*
X203862914Y-185457200D01*
X203934342Y-185528628D01*
X204005771Y-185671485D01*
X204005771Y-186100057D01*
X203934342Y-186242914D01*
X203862914Y-186314342D01*
X203720057Y-186385771D01*
X203434342Y-186385771D01*
X203291485Y-186314342D01*
X205291485Y-186314342D02*
X205148628Y-186385771D01*
X204862914Y-186385771D01*
X204720057Y-186314342D01*
X204648628Y-186242914D01*
X204577200Y-186100057D01*
X204577200Y-185671485D01*
X204648628Y-185528628D01*
X204720057Y-185457200D01*
X204862914Y-185385771D01*
X205148628Y-185385771D01*
X205291485Y-185457200D01*
X205934342Y-186385771D02*
X205934342Y-184885771D01*
X205934342Y-185457200D02*
X206077200Y-185385771D01*
X206362914Y-185385771D01*
X206505771Y-185457200D01*
X206577200Y-185528628D01*
X206648628Y-185671485D01*
X206648628Y-186100057D01*
X206577200Y-186242914D01*
X206505771Y-186314342D01*
X206362914Y-186385771D01*
X206077200Y-186385771D01*
X205934342Y-186314342D01*
D10*
D11*
X177002200Y-181507200D02*
X285002200Y-181507200D01*
D10*
D11*
X178362914Y-183614342D02*
X178577200Y-183685771D01*
X178934342Y-183685771D01*
X179077200Y-183614342D01*
X179148628Y-183542914D01*
X179220057Y-183400057D01*
X179220057Y-183257200D01*
X179148628Y-183114342D01*
X179077200Y-183042914D01*
X178934342Y-182971485D01*
X178648628Y-182900057D01*
X178505771Y-182828628D01*
X178434342Y-182757200D01*
X178362914Y-182614342D01*
X178362914Y-182471485D01*
X178434342Y-182328628D01*
X178505771Y-182257200D01*
X178648628Y-182185771D01*
X179005771Y-182185771D01*
X179220057Y-182257200D01*
X179862914Y-183685771D02*
X179862914Y-182185771D01*
X180505771Y-183685771D02*
X180505771Y-182900057D01*
X180434342Y-182757200D01*
X180291485Y-182685771D01*
X180077200Y-182685771D01*
X179934342Y-182757200D01*
X179862914Y-182828628D01*
X181791485Y-183614342D02*
X181648628Y-183685771D01*
X181362914Y-183685771D01*
X181220057Y-183614342D01*
X181148628Y-183471485D01*
X181148628Y-182900057D01*
X181220057Y-182757200D01*
X181362914Y-182685771D01*
X181648628Y-182685771D01*
X181791485Y-182757200D01*
X181862914Y-182900057D01*
X181862914Y-183042914D01*
X181148628Y-183185771D01*
X183077200Y-183614342D02*
X182934342Y-183685771D01*
X182648628Y-183685771D01*
X182505771Y-183614342D01*
X182434342Y-183471485D01*
X182434342Y-182900057D01*
X182505771Y-182757200D01*
X182648628Y-182685771D01*
X182934342Y-182685771D01*
X183077200Y-182757200D01*
X183148628Y-182900057D01*
X183148628Y-183042914D01*
X182434342Y-183185771D01*
X183577200Y-182685771D02*
X184148628Y-182685771D01*
X183791485Y-182185771D02*
X183791485Y-183471485D01*
X183862914Y-183614342D01*
X184005771Y-183685771D01*
X184148628Y-183685771D01*
X184648628Y-183542914D02*
X184720057Y-183614342D01*
X184648628Y-183685771D01*
X184577200Y-183614342D01*
X184648628Y-183542914D01*
X184648628Y-183685771D01*
X184648628Y-182757200D02*
X184720057Y-182828628D01*
X184648628Y-182900057D01*
X184577200Y-182828628D01*
X184648628Y-182757200D01*
X184648628Y-182900057D01*
D10*
D11*
X197002200Y-191507200D02*
X197002200Y-194507200D01*
D10*
D11*
X261002200Y-191507200D02*
X261002200Y-198007200D01*
D14*
%TO.C,U$34*%
X134646100Y-94716600D02*
G75*
G03*
X133896100Y-93966600I-750000J0D01*
G01*
X133896100Y-95466600D02*
G75*
G03*
X134646100Y-94716600I0J750000D01*
G01*
X133146100Y-94716600D02*
G75*
G03*
X133896100Y-95466600I750000J0D01*
G01*
X133896100Y-93966600D02*
G75*
G03*
X133146100Y-94716600I0J-750000D01*
G01*
%TD*%
D15*
%TO.C,JP1*%
X167540000Y-116510000D03*
X165000000Y-116510000D03*
X162460000Y-116510000D03*
X159920000Y-116510000D03*
X157380000Y-116510000D03*
X154840000Y-116510000D03*
X152300000Y-116510000D03*
X149760000Y-116510000D03*
X147220000Y-116510000D03*
X144680000Y-116510000D03*
X142140000Y-116510000D03*
X139600000Y-116510000D03*
X137060000Y-116510000D03*
X134520000Y-116510000D03*
X131980000Y-116510000D03*
X129440000Y-116510000D03*
%TD*%
%TO.C,C2*%
G36*
G01*
X171580099Y-110588400D02*
X172580101Y-110588400D01*
G75*
G02*
X172681700Y-110689999I0J-101599D01*
G01*
X172681700Y-111790001D01*
G75*
G02*
X172580101Y-111891600I-101599J0D01*
G01*
X171580099Y-111891600D01*
G75*
G02*
X171478500Y-111790001I0J101599D01*
G01*
X171478500Y-110689999D01*
G75*
G02*
X171580099Y-110588400I101599J0D01*
G01*
G37*
G36*
G01*
X171580099Y-108888400D02*
X172580101Y-108888400D01*
G75*
G02*
X172681700Y-108989999I0J-101599D01*
G01*
X172681700Y-110090001D01*
G75*
G02*
X172580101Y-110191600I-101599J0D01*
G01*
X171580099Y-110191600D01*
G75*
G02*
X171478500Y-110090001I0J101599D01*
G01*
X171478500Y-108989999D01*
G75*
G02*
X171580099Y-108888400I101599J0D01*
G01*
G37*
%TD*%
%TO.C,R3*%
G36*
G01*
X163124599Y-111270900D02*
X164124601Y-111270900D01*
G75*
G02*
X164226200Y-111372499I0J-101599D01*
G01*
X164226200Y-112472501D01*
G75*
G02*
X164124601Y-112574100I-101599J0D01*
G01*
X163124599Y-112574100D01*
G75*
G02*
X163023000Y-112472501I0J101599D01*
G01*
X163023000Y-111372499D01*
G75*
G02*
X163124599Y-111270900I101599J0D01*
G01*
G37*
G36*
G01*
X163124599Y-112970900D02*
X164124601Y-112970900D01*
G75*
G02*
X164226200Y-113072499I0J-101599D01*
G01*
X164226200Y-114172501D01*
G75*
G02*
X164124601Y-114274100I-101599J0D01*
G01*
X163124599Y-114274100D01*
G75*
G02*
X163023000Y-114172501I0J101599D01*
G01*
X163023000Y-113072499D01*
G75*
G02*
X163124599Y-112970900I101599J0D01*
G01*
G37*
%TD*%
%TO.C,R2*%
G36*
G01*
X164394599Y-111270900D02*
X165394601Y-111270900D01*
G75*
G02*
X165496200Y-111372499I0J-101599D01*
G01*
X165496200Y-112472501D01*
G75*
G02*
X165394601Y-112574100I-101599J0D01*
G01*
X164394599Y-112574100D01*
G75*
G02*
X164293000Y-112472501I0J101599D01*
G01*
X164293000Y-111372499D01*
G75*
G02*
X164394599Y-111270900I101599J0D01*
G01*
G37*
G36*
G01*
X164394599Y-112970900D02*
X165394601Y-112970900D01*
G75*
G02*
X165496200Y-113072499I0J-101599D01*
G01*
X165496200Y-114172501D01*
G75*
G02*
X165394601Y-114274100I-101599J0D01*
G01*
X164394599Y-114274100D01*
G75*
G02*
X164293000Y-114172501I0J101599D01*
G01*
X164293000Y-113072499D01*
G75*
G02*
X164394599Y-112970900I101599J0D01*
G01*
G37*
%TD*%
%TO.C,R1*%
G36*
G01*
X165664599Y-111270900D02*
X166664601Y-111270900D01*
G75*
G02*
X166766200Y-111372499I0J-101599D01*
G01*
X166766200Y-112472501D01*
G75*
G02*
X166664601Y-112574100I-101599J0D01*
G01*
X165664599Y-112574100D01*
G75*
G02*
X165563000Y-112472501I0J101599D01*
G01*
X165563000Y-111372499D01*
G75*
G02*
X165664599Y-111270900I101599J0D01*
G01*
G37*
G36*
G01*
X165664599Y-112970900D02*
X166664601Y-112970900D01*
G75*
G02*
X166766200Y-113072499I0J-101599D01*
G01*
X166766200Y-114172501D01*
G75*
G02*
X166664601Y-114274100I-101599J0D01*
G01*
X165664599Y-114274100D01*
G75*
G02*
X165563000Y-114172501I0J101599D01*
G01*
X165563000Y-113072499D01*
G75*
G02*
X165664599Y-112970900I101599J0D01*
G01*
G37*
%TD*%
%TO.C,U1*%
G36*
G01*
X169977100Y-105085250D02*
X169977100Y-104921950D01*
G75*
G02*
X170147050Y-104752000I169950J0D01*
G01*
X170260350Y-104752000D01*
G75*
G02*
X170430300Y-104921950I0J-169950D01*
G01*
X170430300Y-105085250D01*
G75*
G02*
X170260350Y-105255200I-169950J0D01*
G01*
X170147050Y-105255200D01*
G75*
G02*
X169977100Y-105085250I0J169950D01*
G01*
G37*
G36*
G01*
X169977100Y-105003600D02*
X169977100Y-104503600D01*
G75*
G02*
X170078700Y-104402000I101600J0D01*
G01*
X170328700Y-104402000D01*
G75*
G02*
X170430300Y-104503600I0J-101600D01*
G01*
X170430300Y-105003600D01*
G75*
G02*
X170328700Y-105105200I-101600J0D01*
G01*
X170078700Y-105105200D01*
G75*
G02*
X169977100Y-105003600I0J101600D01*
G01*
G37*
G36*
G01*
X170377100Y-105085250D02*
X170377100Y-104921950D01*
G75*
G02*
X170547050Y-104752000I169950J0D01*
G01*
X170660350Y-104752000D01*
G75*
G02*
X170830300Y-104921950I0J-169950D01*
G01*
X170830300Y-105085250D01*
G75*
G02*
X170660350Y-105255200I-169950J0D01*
G01*
X170547050Y-105255200D01*
G75*
G02*
X170377100Y-105085250I0J169950D01*
G01*
G37*
G36*
G01*
X170377100Y-105003600D02*
X170377100Y-104503600D01*
G75*
G02*
X170478700Y-104402000I101600J0D01*
G01*
X170728700Y-104402000D01*
G75*
G02*
X170830300Y-104503600I0J-101600D01*
G01*
X170830300Y-105003600D01*
G75*
G02*
X170728700Y-105105200I-101600J0D01*
G01*
X170478700Y-105105200D01*
G75*
G02*
X170377100Y-105003600I0J101600D01*
G01*
G37*
G36*
G01*
X170777100Y-105085250D02*
X170777100Y-104921950D01*
G75*
G02*
X170947050Y-104752000I169950J0D01*
G01*
X171060350Y-104752000D01*
G75*
G02*
X171230300Y-104921950I0J-169950D01*
G01*
X171230300Y-105085250D01*
G75*
G02*
X171060350Y-105255200I-169950J0D01*
G01*
X170947050Y-105255200D01*
G75*
G02*
X170777100Y-105085250I0J169950D01*
G01*
G37*
G36*
G01*
X170777100Y-105003600D02*
X170777100Y-104503600D01*
G75*
G02*
X170878700Y-104402000I101600J0D01*
G01*
X171128700Y-104402000D01*
G75*
G02*
X171230300Y-104503600I0J-101600D01*
G01*
X171230300Y-105003600D01*
G75*
G02*
X171128700Y-105105200I-101600J0D01*
G01*
X170878700Y-105105200D01*
G75*
G02*
X170777100Y-105003600I0J101600D01*
G01*
G37*
G36*
G01*
X171177100Y-105003600D02*
X171177100Y-104503600D01*
G75*
G02*
X171278700Y-104402000I101600J0D01*
G01*
X171528700Y-104402000D01*
G75*
G02*
X171630300Y-104503600I0J-101600D01*
G01*
X171630300Y-105003600D01*
G75*
G02*
X171528700Y-105105200I-101600J0D01*
G01*
X171278700Y-105105200D01*
G75*
G02*
X171177100Y-105003600I0J101600D01*
G01*
G37*
G36*
G01*
X169177100Y-105003600D02*
X169177100Y-104503600D01*
G75*
G02*
X169278700Y-104402000I101600J0D01*
G01*
X169528700Y-104402000D01*
G75*
G02*
X169630300Y-104503600I0J-101600D01*
G01*
X169630300Y-105003600D01*
G75*
G02*
X169528700Y-105105200I-101600J0D01*
G01*
X169278700Y-105105200D01*
G75*
G02*
X169177100Y-105003600I0J101600D01*
G01*
G37*
G36*
G01*
X169577100Y-105085250D02*
X169577100Y-104921950D01*
G75*
G02*
X169747050Y-104752000I169950J0D01*
G01*
X169860350Y-104752000D01*
G75*
G02*
X170030300Y-104921950I0J-169950D01*
G01*
X170030300Y-105085250D01*
G75*
G02*
X169860350Y-105255200I-169950J0D01*
G01*
X169747050Y-105255200D01*
G75*
G02*
X169577100Y-105085250I0J169950D01*
G01*
G37*
G36*
G01*
X169577100Y-105003600D02*
X169577100Y-104503600D01*
G75*
G02*
X169678700Y-104402000I101600J0D01*
G01*
X169928700Y-104402000D01*
G75*
G02*
X170030300Y-104503600I0J-101600D01*
G01*
X170030300Y-105003600D01*
G75*
G02*
X169928700Y-105105200I-101600J0D01*
G01*
X169678700Y-105105200D01*
G75*
G02*
X169577100Y-105003600I0J101600D01*
G01*
G37*
G36*
G01*
X170077100Y-107017752D02*
X170077100Y-105589448D01*
G75*
G02*
X170259548Y-105407000I182448J0D01*
G01*
X171197852Y-105407000D01*
G75*
G02*
X171380300Y-105589448I0J-182448D01*
G01*
X171380300Y-107017752D01*
G75*
G02*
X171197852Y-107200200I-182448J0D01*
G01*
X170259548Y-107200200D01*
G75*
G02*
X170077100Y-107017752I0J182448D01*
G01*
G37*
G36*
G01*
X169457015Y-105790469D02*
X169810569Y-105436915D01*
G75*
G02*
X169954253Y-105436915I71842J-71842D01*
G01*
X170166385Y-105649047D01*
G75*
G02*
X170166385Y-105792731I-71842J-71842D01*
G01*
X169812831Y-106146285D01*
G75*
G02*
X169669147Y-106146285I-71842J71842D01*
G01*
X169457015Y-105934153D01*
G75*
G02*
X169457015Y-105790469I71842J71842D01*
G01*
G37*
G36*
G01*
X170177100Y-106428600D02*
X170177100Y-106178600D01*
G75*
G02*
X170278700Y-106077000I101600J0D01*
G01*
X170528700Y-106077000D01*
G75*
G02*
X170630300Y-106178600I0J-101600D01*
G01*
X170630300Y-106428600D01*
G75*
G02*
X170528700Y-106530200I-101600J0D01*
G01*
X170278700Y-106530200D01*
G75*
G02*
X170177100Y-106428600I0J101600D01*
G01*
G37*
G36*
G01*
X169782100Y-107098600D02*
X169782100Y-105508600D01*
G75*
G02*
X169883700Y-105407000I101600J0D01*
G01*
X170383700Y-105407000D01*
G75*
G02*
X170485300Y-105508600I0J-101600D01*
G01*
X170485300Y-107098600D01*
G75*
G02*
X170383700Y-107200200I-101600J0D01*
G01*
X169883700Y-107200200D01*
G75*
G02*
X169782100Y-107098600I0J101600D01*
G01*
G37*
G36*
G01*
X169427100Y-106263600D02*
X169427100Y-105863600D01*
G75*
G02*
X169528700Y-105762000I101600J0D01*
G01*
X169928700Y-105762000D01*
G75*
G02*
X170030300Y-105863600I0J-101600D01*
G01*
X170030300Y-106263600D01*
G75*
G02*
X169928700Y-106365200I-101600J0D01*
G01*
X169528700Y-106365200D01*
G75*
G02*
X169427100Y-106263600I0J101600D01*
G01*
G37*
G36*
G01*
X169427100Y-106999400D02*
X169427100Y-105997800D01*
G75*
G02*
X169627900Y-105797000I200800J0D01*
G01*
X170029500Y-105797000D01*
G75*
G02*
X170230300Y-105997800I0J-200800D01*
G01*
X170230300Y-106999400D01*
G75*
G02*
X170029500Y-107200200I-200800J0D01*
G01*
X169627900Y-107200200D01*
G75*
G02*
X169427100Y-106999400I0J200800D01*
G01*
G37*
G36*
G01*
X170830300Y-107521950D02*
X170830300Y-107685250D01*
G75*
G02*
X170660350Y-107855200I-169950J0D01*
G01*
X170547050Y-107855200D01*
G75*
G02*
X170377100Y-107685250I0J169950D01*
G01*
X170377100Y-107521950D01*
G75*
G02*
X170547050Y-107352000I169950J0D01*
G01*
X170660350Y-107352000D01*
G75*
G02*
X170830300Y-107521950I0J-169950D01*
G01*
G37*
G36*
G01*
X170830300Y-107603600D02*
X170830300Y-108103600D01*
G75*
G02*
X170728700Y-108205200I-101600J0D01*
G01*
X170478700Y-108205200D01*
G75*
G02*
X170377100Y-108103600I0J101600D01*
G01*
X170377100Y-107603600D01*
G75*
G02*
X170478700Y-107502000I101600J0D01*
G01*
X170728700Y-107502000D01*
G75*
G02*
X170830300Y-107603600I0J-101600D01*
G01*
G37*
G36*
G01*
X170430300Y-107521950D02*
X170430300Y-107685250D01*
G75*
G02*
X170260350Y-107855200I-169950J0D01*
G01*
X170147050Y-107855200D01*
G75*
G02*
X169977100Y-107685250I0J169950D01*
G01*
X169977100Y-107521950D01*
G75*
G02*
X170147050Y-107352000I169950J0D01*
G01*
X170260350Y-107352000D01*
G75*
G02*
X170430300Y-107521950I0J-169950D01*
G01*
G37*
G36*
G01*
X170430300Y-107603600D02*
X170430300Y-108103600D01*
G75*
G02*
X170328700Y-108205200I-101600J0D01*
G01*
X170078700Y-108205200D01*
G75*
G02*
X169977100Y-108103600I0J101600D01*
G01*
X169977100Y-107603600D01*
G75*
G02*
X170078700Y-107502000I101600J0D01*
G01*
X170328700Y-107502000D01*
G75*
G02*
X170430300Y-107603600I0J-101600D01*
G01*
G37*
G36*
G01*
X170030300Y-107521950D02*
X170030300Y-107685250D01*
G75*
G02*
X169860350Y-107855200I-169950J0D01*
G01*
X169747050Y-107855200D01*
G75*
G02*
X169577100Y-107685250I0J169950D01*
G01*
X169577100Y-107521950D01*
G75*
G02*
X169747050Y-107352000I169950J0D01*
G01*
X169860350Y-107352000D01*
G75*
G02*
X170030300Y-107521950I0J-169950D01*
G01*
G37*
G36*
G01*
X170030300Y-107603600D02*
X170030300Y-108103600D01*
G75*
G02*
X169928700Y-108205200I-101600J0D01*
G01*
X169678700Y-108205200D01*
G75*
G02*
X169577100Y-108103600I0J101600D01*
G01*
X169577100Y-107603600D01*
G75*
G02*
X169678700Y-107502000I101600J0D01*
G01*
X169928700Y-107502000D01*
G75*
G02*
X170030300Y-107603600I0J-101600D01*
G01*
G37*
G36*
G01*
X169630300Y-107603600D02*
X169630300Y-108103600D01*
G75*
G02*
X169528700Y-108205200I-101600J0D01*
G01*
X169278700Y-108205200D01*
G75*
G02*
X169177100Y-108103600I0J101600D01*
G01*
X169177100Y-107603600D01*
G75*
G02*
X169278700Y-107502000I101600J0D01*
G01*
X169528700Y-107502000D01*
G75*
G02*
X169630300Y-107603600I0J-101600D01*
G01*
G37*
G36*
G01*
X171630300Y-107603600D02*
X171630300Y-108103600D01*
G75*
G02*
X171528700Y-108205200I-101600J0D01*
G01*
X171278700Y-108205200D01*
G75*
G02*
X171177100Y-108103600I0J101600D01*
G01*
X171177100Y-107603600D01*
G75*
G02*
X171278700Y-107502000I101600J0D01*
G01*
X171528700Y-107502000D01*
G75*
G02*
X171630300Y-107603600I0J-101600D01*
G01*
G37*
G36*
G01*
X171230300Y-107521950D02*
X171230300Y-107685250D01*
G75*
G02*
X171060350Y-107855200I-169950J0D01*
G01*
X170947050Y-107855200D01*
G75*
G02*
X170777100Y-107685250I0J169950D01*
G01*
X170777100Y-107521950D01*
G75*
G02*
X170947050Y-107352000I169950J0D01*
G01*
X171060350Y-107352000D01*
G75*
G02*
X171230300Y-107521950I0J-169950D01*
G01*
G37*
G36*
G01*
X171230300Y-107603600D02*
X171230300Y-108103600D01*
G75*
G02*
X171128700Y-108205200I-101600J0D01*
G01*
X170878700Y-108205200D01*
G75*
G02*
X170777100Y-108103600I0J101600D01*
G01*
X170777100Y-107603600D01*
G75*
G02*
X170878700Y-107502000I101600J0D01*
G01*
X171128700Y-107502000D01*
G75*
G02*
X171230300Y-107603600I0J-101600D01*
G01*
G37*
G36*
G01*
X169185350Y-106730200D02*
X169022050Y-106730200D01*
G75*
G02*
X168852100Y-106560250I0J169950D01*
G01*
X168852100Y-106446950D01*
G75*
G02*
X169022050Y-106277000I169950J0D01*
G01*
X169185350Y-106277000D01*
G75*
G02*
X169355300Y-106446950I0J-169950D01*
G01*
X169355300Y-106560250D01*
G75*
G02*
X169185350Y-106730200I-169950J0D01*
G01*
G37*
G36*
G01*
X169103700Y-106730200D02*
X168603700Y-106730200D01*
G75*
G02*
X168502100Y-106628600I0J101600D01*
G01*
X168502100Y-106378600D01*
G75*
G02*
X168603700Y-106277000I101600J0D01*
G01*
X169103700Y-106277000D01*
G75*
G02*
X169205300Y-106378600I0J-101600D01*
G01*
X169205300Y-106628600D01*
G75*
G02*
X169103700Y-106730200I-101600J0D01*
G01*
G37*
G36*
G01*
X169103700Y-106330200D02*
X168603700Y-106330200D01*
G75*
G02*
X168502100Y-106228600I0J101600D01*
G01*
X168502100Y-105978600D01*
G75*
G02*
X168603700Y-105877000I101600J0D01*
G01*
X169103700Y-105877000D01*
G75*
G02*
X169205300Y-105978600I0J-101600D01*
G01*
X169205300Y-106228600D01*
G75*
G02*
X169103700Y-106330200I-101600J0D01*
G01*
G37*
G36*
G01*
X169103700Y-105930200D02*
X168603700Y-105930200D01*
G75*
G02*
X168502100Y-105828600I0J101600D01*
G01*
X168502100Y-105578600D01*
G75*
G02*
X168603700Y-105477000I101600J0D01*
G01*
X169103700Y-105477000D01*
G75*
G02*
X169205300Y-105578600I0J-101600D01*
G01*
X169205300Y-105828600D01*
G75*
G02*
X169103700Y-105930200I-101600J0D01*
G01*
G37*
G36*
G01*
X169103700Y-105530200D02*
X168603700Y-105530200D01*
G75*
G02*
X168502100Y-105428600I0J101600D01*
G01*
X168502100Y-105178600D01*
G75*
G02*
X168603700Y-105077000I101600J0D01*
G01*
X169103700Y-105077000D01*
G75*
G02*
X169205300Y-105178600I0J-101600D01*
G01*
X169205300Y-105428600D01*
G75*
G02*
X169103700Y-105530200I-101600J0D01*
G01*
G37*
G36*
G01*
X169103700Y-107530200D02*
X168603700Y-107530200D01*
G75*
G02*
X168502100Y-107428600I0J101600D01*
G01*
X168502100Y-107178600D01*
G75*
G02*
X168603700Y-107077000I101600J0D01*
G01*
X169103700Y-107077000D01*
G75*
G02*
X169205300Y-107178600I0J-101600D01*
G01*
X169205300Y-107428600D01*
G75*
G02*
X169103700Y-107530200I-101600J0D01*
G01*
G37*
G36*
G01*
X169185350Y-107130200D02*
X169022050Y-107130200D01*
G75*
G02*
X168852100Y-106960250I0J169950D01*
G01*
X168852100Y-106846950D01*
G75*
G02*
X169022050Y-106677000I169950J0D01*
G01*
X169185350Y-106677000D01*
G75*
G02*
X169355300Y-106846950I0J-169950D01*
G01*
X169355300Y-106960250D01*
G75*
G02*
X169185350Y-107130200I-169950J0D01*
G01*
G37*
G36*
G01*
X169103700Y-107130200D02*
X168603700Y-107130200D01*
G75*
G02*
X168502100Y-107028600I0J101600D01*
G01*
X168502100Y-106778600D01*
G75*
G02*
X168603700Y-106677000I101600J0D01*
G01*
X169103700Y-106677000D01*
G75*
G02*
X169205300Y-106778600I0J-101600D01*
G01*
X169205300Y-107028600D01*
G75*
G02*
X169103700Y-107130200I-101600J0D01*
G01*
G37*
G36*
G01*
X171622050Y-105877000D02*
X171785350Y-105877000D01*
G75*
G02*
X171955300Y-106046950I0J-169950D01*
G01*
X171955300Y-106160250D01*
G75*
G02*
X171785350Y-106330200I-169950J0D01*
G01*
X171622050Y-106330200D01*
G75*
G02*
X171452100Y-106160250I0J169950D01*
G01*
X171452100Y-106046950D01*
G75*
G02*
X171622050Y-105877000I169950J0D01*
G01*
G37*
G36*
G01*
X171703700Y-105877000D02*
X172203700Y-105877000D01*
G75*
G02*
X172305300Y-105978600I0J-101600D01*
G01*
X172305300Y-106228600D01*
G75*
G02*
X172203700Y-106330200I-101600J0D01*
G01*
X171703700Y-106330200D01*
G75*
G02*
X171602100Y-106228600I0J101600D01*
G01*
X171602100Y-105978600D01*
G75*
G02*
X171703700Y-105877000I101600J0D01*
G01*
G37*
G36*
G01*
X171622050Y-106277000D02*
X171785350Y-106277000D01*
G75*
G02*
X171955300Y-106446950I0J-169950D01*
G01*
X171955300Y-106560250D01*
G75*
G02*
X171785350Y-106730200I-169950J0D01*
G01*
X171622050Y-106730200D01*
G75*
G02*
X171452100Y-106560250I0J169950D01*
G01*
X171452100Y-106446950D01*
G75*
G02*
X171622050Y-106277000I169950J0D01*
G01*
G37*
G36*
G01*
X171703700Y-106277000D02*
X172203700Y-106277000D01*
G75*
G02*
X172305300Y-106378600I0J-101600D01*
G01*
X172305300Y-106628600D01*
G75*
G02*
X172203700Y-106730200I-101600J0D01*
G01*
X171703700Y-106730200D01*
G75*
G02*
X171602100Y-106628600I0J101600D01*
G01*
X171602100Y-106378600D01*
G75*
G02*
X171703700Y-106277000I101600J0D01*
G01*
G37*
G36*
G01*
X171622050Y-106677000D02*
X171785350Y-106677000D01*
G75*
G02*
X171955300Y-106846950I0J-169950D01*
G01*
X171955300Y-106960250D01*
G75*
G02*
X171785350Y-107130200I-169950J0D01*
G01*
X171622050Y-107130200D01*
G75*
G02*
X171452100Y-106960250I0J169950D01*
G01*
X171452100Y-106846950D01*
G75*
G02*
X171622050Y-106677000I169950J0D01*
G01*
G37*
G36*
G01*
X171703700Y-106677000D02*
X172203700Y-106677000D01*
G75*
G02*
X172305300Y-106778600I0J-101600D01*
G01*
X172305300Y-107028600D01*
G75*
G02*
X172203700Y-107130200I-101600J0D01*
G01*
X171703700Y-107130200D01*
G75*
G02*
X171602100Y-107028600I0J101600D01*
G01*
X171602100Y-106778600D01*
G75*
G02*
X171703700Y-106677000I101600J0D01*
G01*
G37*
G36*
G01*
X171703700Y-107077000D02*
X172203700Y-107077000D01*
G75*
G02*
X172305300Y-107178600I0J-101600D01*
G01*
X172305300Y-107428600D01*
G75*
G02*
X172203700Y-107530200I-101600J0D01*
G01*
X171703700Y-107530200D01*
G75*
G02*
X171602100Y-107428600I0J101600D01*
G01*
X171602100Y-107178600D01*
G75*
G02*
X171703700Y-107077000I101600J0D01*
G01*
G37*
G36*
G01*
X171703700Y-105077000D02*
X172203700Y-105077000D01*
G75*
G02*
X172305300Y-105178600I0J-101600D01*
G01*
X172305300Y-105428600D01*
G75*
G02*
X172203700Y-105530200I-101600J0D01*
G01*
X171703700Y-105530200D01*
G75*
G02*
X171602100Y-105428600I0J101600D01*
G01*
X171602100Y-105178600D01*
G75*
G02*
X171703700Y-105077000I101600J0D01*
G01*
G37*
G36*
G01*
X171622050Y-105477000D02*
X171785350Y-105477000D01*
G75*
G02*
X171955300Y-105646950I0J-169950D01*
G01*
X171955300Y-105760250D01*
G75*
G02*
X171785350Y-105930200I-169950J0D01*
G01*
X171622050Y-105930200D01*
G75*
G02*
X171452100Y-105760250I0J169950D01*
G01*
X171452100Y-105646950D01*
G75*
G02*
X171622050Y-105477000I169950J0D01*
G01*
G37*
G36*
G01*
X171703700Y-105477000D02*
X172203700Y-105477000D01*
G75*
G02*
X172305300Y-105578600I0J-101600D01*
G01*
X172305300Y-105828600D01*
G75*
G02*
X172203700Y-105930200I-101600J0D01*
G01*
X171703700Y-105930200D01*
G75*
G02*
X171602100Y-105828600I0J101600D01*
G01*
X171602100Y-105578600D01*
G75*
G02*
X171703700Y-105477000I101600J0D01*
G01*
G37*
G36*
G01*
X169111910Y-105452705D02*
X168981095Y-105321890D01*
G75*
G02*
X168981095Y-105178206I71842J71842D01*
G01*
X169051806Y-105107495D01*
G75*
G02*
X169195490Y-105107495I71842J-71842D01*
G01*
X169326305Y-105238310D01*
G75*
G02*
X169326305Y-105381994I-71842J-71842D01*
G01*
X169255594Y-105452705D01*
G75*
G02*
X169111910Y-105452705I-71842J71842D01*
G01*
G37*
G36*
G01*
X169012100Y-105358600D02*
X169012100Y-105358600D01*
G75*
G02*
X169183700Y-105187000I171600J0D01*
G01*
X169183700Y-105187000D01*
G75*
G02*
X169355300Y-105358600I0J-171600D01*
G01*
X169355300Y-105358600D01*
G75*
G02*
X169183700Y-105530200I-171600J0D01*
G01*
X169183700Y-105530200D01*
G75*
G02*
X169012100Y-105358600I0J171600D01*
G01*
G37*
G36*
G01*
X169102100Y-105358600D02*
X169102100Y-105308600D01*
G75*
G02*
X169203700Y-105207000I101600J0D01*
G01*
X169253700Y-105207000D01*
G75*
G02*
X169355300Y-105308600I0J-101600D01*
G01*
X169355300Y-105358600D01*
G75*
G02*
X169253700Y-105460200I-101600J0D01*
G01*
X169203700Y-105460200D01*
G75*
G02*
X169102100Y-105358600I0J101600D01*
G01*
G37*
G36*
G01*
X169002100Y-105428600D02*
X169002100Y-105298600D01*
G75*
G02*
X169103700Y-105197000I101600J0D01*
G01*
X169183700Y-105197000D01*
G75*
G02*
X169285300Y-105298600I0J-101600D01*
G01*
X169285300Y-105428600D01*
G75*
G02*
X169183700Y-105530200I-101600J0D01*
G01*
X169103700Y-105530200D01*
G75*
G02*
X169002100Y-105428600I0J101600D01*
G01*
G37*
G36*
G01*
X168942100Y-105308600D02*
X168942100Y-105178600D01*
G75*
G02*
X169043700Y-105077000I101600J0D01*
G01*
X169123700Y-105077000D01*
G75*
G02*
X169225300Y-105178600I0J-101600D01*
G01*
X169225300Y-105308600D01*
G75*
G02*
X169123700Y-105410200I-101600J0D01*
G01*
X169043700Y-105410200D01*
G75*
G02*
X168942100Y-105308600I0J101600D01*
G01*
G37*
G36*
G01*
X169552805Y-107595390D02*
X169421990Y-107726205D01*
G75*
G02*
X169278306Y-107726205I-71842J71842D01*
G01*
X169207595Y-107655494D01*
G75*
G02*
X169207595Y-107511810I71842J71842D01*
G01*
X169338410Y-107380995D01*
G75*
G02*
X169482094Y-107380995I71842J-71842D01*
G01*
X169552805Y-107451706D01*
G75*
G02*
X169552805Y-107595390I-71842J-71842D01*
G01*
G37*
G36*
G01*
X169458700Y-107695200D02*
X169458700Y-107695200D01*
G75*
G02*
X169287100Y-107523600I0J171600D01*
G01*
X169287100Y-107523600D01*
G75*
G02*
X169458700Y-107352000I171600J0D01*
G01*
X169458700Y-107352000D01*
G75*
G02*
X169630300Y-107523600I0J-171600D01*
G01*
X169630300Y-107523600D01*
G75*
G02*
X169458700Y-107695200I-171600J0D01*
G01*
G37*
G36*
G01*
X169458700Y-107605200D02*
X169408700Y-107605200D01*
G75*
G02*
X169307100Y-107503600I0J101600D01*
G01*
X169307100Y-107453600D01*
G75*
G02*
X169408700Y-107352000I101600J0D01*
G01*
X169458700Y-107352000D01*
G75*
G02*
X169560300Y-107453600I0J-101600D01*
G01*
X169560300Y-107503600D01*
G75*
G02*
X169458700Y-107605200I-101600J0D01*
G01*
G37*
G36*
G01*
X169528700Y-107705200D02*
X169398700Y-107705200D01*
G75*
G02*
X169297100Y-107603600I0J101600D01*
G01*
X169297100Y-107523600D01*
G75*
G02*
X169398700Y-107422000I101600J0D01*
G01*
X169528700Y-107422000D01*
G75*
G02*
X169630300Y-107523600I0J-101600D01*
G01*
X169630300Y-107603600D01*
G75*
G02*
X169528700Y-107705200I-101600J0D01*
G01*
G37*
G36*
G01*
X169408700Y-107765200D02*
X169278700Y-107765200D01*
G75*
G02*
X169177100Y-107663600I0J101600D01*
G01*
X169177100Y-107583600D01*
G75*
G02*
X169278700Y-107482000I101600J0D01*
G01*
X169408700Y-107482000D01*
G75*
G02*
X169510300Y-107583600I0J-101600D01*
G01*
X169510300Y-107663600D01*
G75*
G02*
X169408700Y-107765200I-101600J0D01*
G01*
G37*
G36*
G01*
X171695490Y-107154495D02*
X171826305Y-107285310D01*
G75*
G02*
X171826305Y-107428994I-71842J-71842D01*
G01*
X171755594Y-107499705D01*
G75*
G02*
X171611910Y-107499705I-71842J71842D01*
G01*
X171481095Y-107368890D01*
G75*
G02*
X171481095Y-107225206I71842J71842D01*
G01*
X171551806Y-107154495D01*
G75*
G02*
X171695490Y-107154495I71842J-71842D01*
G01*
G37*
G36*
G01*
X171795300Y-107248600D02*
X171795300Y-107248600D01*
G75*
G02*
X171623700Y-107420200I-171600J0D01*
G01*
X171623700Y-107420200D01*
G75*
G02*
X171452100Y-107248600I0J171600D01*
G01*
X171452100Y-107248600D01*
G75*
G02*
X171623700Y-107077000I171600J0D01*
G01*
X171623700Y-107077000D01*
G75*
G02*
X171795300Y-107248600I0J-171600D01*
G01*
G37*
G36*
G01*
X171705300Y-107248600D02*
X171705300Y-107298600D01*
G75*
G02*
X171603700Y-107400200I-101600J0D01*
G01*
X171553700Y-107400200D01*
G75*
G02*
X171452100Y-107298600I0J101600D01*
G01*
X171452100Y-107248600D01*
G75*
G02*
X171553700Y-107147000I101600J0D01*
G01*
X171603700Y-107147000D01*
G75*
G02*
X171705300Y-107248600I0J-101600D01*
G01*
G37*
G36*
G01*
X171805300Y-107178600D02*
X171805300Y-107308600D01*
G75*
G02*
X171703700Y-107410200I-101600J0D01*
G01*
X171623700Y-107410200D01*
G75*
G02*
X171522100Y-107308600I0J101600D01*
G01*
X171522100Y-107178600D01*
G75*
G02*
X171623700Y-107077000I101600J0D01*
G01*
X171703700Y-107077000D01*
G75*
G02*
X171805300Y-107178600I0J-101600D01*
G01*
G37*
G36*
G01*
X171865300Y-107298600D02*
X171865300Y-107428600D01*
G75*
G02*
X171763700Y-107530200I-101600J0D01*
G01*
X171683700Y-107530200D01*
G75*
G02*
X171582100Y-107428600I0J101600D01*
G01*
X171582100Y-107298600D01*
G75*
G02*
X171683700Y-107197000I101600J0D01*
G01*
X171763700Y-107197000D01*
G75*
G02*
X171865300Y-107298600I0J-101600D01*
G01*
G37*
G36*
G01*
X171254595Y-105011810D02*
X171385410Y-104880995D01*
G75*
G02*
X171529094Y-104880995I71842J-71842D01*
G01*
X171599805Y-104951706D01*
G75*
G02*
X171599805Y-105095390I-71842J-71842D01*
G01*
X171468990Y-105226205D01*
G75*
G02*
X171325306Y-105226205I-71842J71842D01*
G01*
X171254595Y-105155494D01*
G75*
G02*
X171254595Y-105011810I71842J71842D01*
G01*
G37*
G36*
G01*
X171348700Y-104912000D02*
X171348700Y-104912000D01*
G75*
G02*
X171520300Y-105083600I0J-171600D01*
G01*
X171520300Y-105083600D01*
G75*
G02*
X171348700Y-105255200I-171600J0D01*
G01*
X171348700Y-105255200D01*
G75*
G02*
X171177100Y-105083600I0J171600D01*
G01*
X171177100Y-105083600D01*
G75*
G02*
X171348700Y-104912000I171600J0D01*
G01*
G37*
G36*
G01*
X171348700Y-105002000D02*
X171398700Y-105002000D01*
G75*
G02*
X171500300Y-105103600I0J-101600D01*
G01*
X171500300Y-105153600D01*
G75*
G02*
X171398700Y-105255200I-101600J0D01*
G01*
X171348700Y-105255200D01*
G75*
G02*
X171247100Y-105153600I0J101600D01*
G01*
X171247100Y-105103600D01*
G75*
G02*
X171348700Y-105002000I101600J0D01*
G01*
G37*
G36*
G01*
X171278700Y-104902000D02*
X171408700Y-104902000D01*
G75*
G02*
X171510300Y-105003600I0J-101600D01*
G01*
X171510300Y-105083600D01*
G75*
G02*
X171408700Y-105185200I-101600J0D01*
G01*
X171278700Y-105185200D01*
G75*
G02*
X171177100Y-105083600I0J101600D01*
G01*
X171177100Y-105003600D01*
G75*
G02*
X171278700Y-104902000I101600J0D01*
G01*
G37*
G36*
G01*
X171398700Y-104842000D02*
X171528700Y-104842000D01*
G75*
G02*
X171630300Y-104943600I0J-101600D01*
G01*
X171630300Y-105023600D01*
G75*
G02*
X171528700Y-105125200I-101600J0D01*
G01*
X171398700Y-105125200D01*
G75*
G02*
X171297100Y-105023600I0J101600D01*
G01*
X171297100Y-104943600D01*
G75*
G02*
X171398700Y-104842000I101600J0D01*
G01*
G37*
G36*
G01*
X171385410Y-107726205D02*
X171254595Y-107595390D01*
G75*
G02*
X171254595Y-107451706I71842J71842D01*
G01*
X171325306Y-107380995D01*
G75*
G02*
X171468990Y-107380995I71842J-71842D01*
G01*
X171599805Y-107511810D01*
G75*
G02*
X171599805Y-107655494I-71842J-71842D01*
G01*
X171529094Y-107726205D01*
G75*
G02*
X171385410Y-107726205I-71842J71842D01*
G01*
G37*
G36*
G01*
X171348700Y-107695200D02*
X171348700Y-107695200D01*
G75*
G02*
X171177100Y-107523600I0J171600D01*
G01*
X171177100Y-107523600D01*
G75*
G02*
X171348700Y-107352000I171600J0D01*
G01*
X171348700Y-107352000D01*
G75*
G02*
X171520300Y-107523600I0J-171600D01*
G01*
X171520300Y-107523600D01*
G75*
G02*
X171348700Y-107695200I-171600J0D01*
G01*
G37*
G36*
G01*
X171398700Y-107605200D02*
X171348700Y-107605200D01*
G75*
G02*
X171247100Y-107503600I0J101600D01*
G01*
X171247100Y-107453600D01*
G75*
G02*
X171348700Y-107352000I101600J0D01*
G01*
X171398700Y-107352000D01*
G75*
G02*
X171500300Y-107453600I0J-101600D01*
G01*
X171500300Y-107503600D01*
G75*
G02*
X171398700Y-107605200I-101600J0D01*
G01*
G37*
G36*
G01*
X171408700Y-107705200D02*
X171278700Y-107705200D01*
G75*
G02*
X171177100Y-107603600I0J101600D01*
G01*
X171177100Y-107523600D01*
G75*
G02*
X171278700Y-107422000I101600J0D01*
G01*
X171408700Y-107422000D01*
G75*
G02*
X171510300Y-107523600I0J-101600D01*
G01*
X171510300Y-107603600D01*
G75*
G02*
X171408700Y-107705200I-101600J0D01*
G01*
G37*
G36*
G01*
X171528700Y-107765200D02*
X171398700Y-107765200D01*
G75*
G02*
X171297100Y-107663600I0J101600D01*
G01*
X171297100Y-107583600D01*
G75*
G02*
X171398700Y-107482000I101600J0D01*
G01*
X171528700Y-107482000D01*
G75*
G02*
X171630300Y-107583600I0J-101600D01*
G01*
X171630300Y-107663600D01*
G75*
G02*
X171528700Y-107765200I-101600J0D01*
G01*
G37*
G36*
G01*
X171826305Y-105321890D02*
X171695490Y-105452705D01*
G75*
G02*
X171551806Y-105452705I-71842J71842D01*
G01*
X171481095Y-105381994D01*
G75*
G02*
X171481095Y-105238310I71842J71842D01*
G01*
X171611910Y-105107495D01*
G75*
G02*
X171755594Y-105107495I71842J-71842D01*
G01*
X171826305Y-105178206D01*
G75*
G02*
X171826305Y-105321890I-71842J-71842D01*
G01*
G37*
G36*
G01*
X171795300Y-105358600D02*
X171795300Y-105358600D01*
G75*
G02*
X171623700Y-105530200I-171600J0D01*
G01*
X171623700Y-105530200D01*
G75*
G02*
X171452100Y-105358600I0J171600D01*
G01*
X171452100Y-105358600D01*
G75*
G02*
X171623700Y-105187000I171600J0D01*
G01*
X171623700Y-105187000D01*
G75*
G02*
X171795300Y-105358600I0J-171600D01*
G01*
G37*
G36*
G01*
X171705300Y-105308600D02*
X171705300Y-105358600D01*
G75*
G02*
X171603700Y-105460200I-101600J0D01*
G01*
X171553700Y-105460200D01*
G75*
G02*
X171452100Y-105358600I0J101600D01*
G01*
X171452100Y-105308600D01*
G75*
G02*
X171553700Y-105207000I101600J0D01*
G01*
X171603700Y-105207000D01*
G75*
G02*
X171705300Y-105308600I0J-101600D01*
G01*
G37*
G36*
G01*
X171805300Y-105298600D02*
X171805300Y-105428600D01*
G75*
G02*
X171703700Y-105530200I-101600J0D01*
G01*
X171623700Y-105530200D01*
G75*
G02*
X171522100Y-105428600I0J101600D01*
G01*
X171522100Y-105298600D01*
G75*
G02*
X171623700Y-105197000I101600J0D01*
G01*
X171703700Y-105197000D01*
G75*
G02*
X171805300Y-105298600I0J-101600D01*
G01*
G37*
G36*
G01*
X171865300Y-105178600D02*
X171865300Y-105308600D01*
G75*
G02*
X171763700Y-105410200I-101600J0D01*
G01*
X171683700Y-105410200D01*
G75*
G02*
X171582100Y-105308600I0J101600D01*
G01*
X171582100Y-105178600D01*
G75*
G02*
X171683700Y-105077000I101600J0D01*
G01*
X171763700Y-105077000D01*
G75*
G02*
X171865300Y-105178600I0J-101600D01*
G01*
G37*
G36*
G01*
X169421990Y-104880995D02*
X169552805Y-105011810D01*
G75*
G02*
X169552805Y-105155494I-71842J-71842D01*
G01*
X169482094Y-105226205D01*
G75*
G02*
X169338410Y-105226205I-71842J71842D01*
G01*
X169207595Y-105095390D01*
G75*
G02*
X169207595Y-104951706I71842J71842D01*
G01*
X169278306Y-104880995D01*
G75*
G02*
X169421990Y-104880995I71842J-71842D01*
G01*
G37*
G36*
G01*
X169458700Y-104912000D02*
X169458700Y-104912000D01*
G75*
G02*
X169630300Y-105083600I0J-171600D01*
G01*
X169630300Y-105083600D01*
G75*
G02*
X169458700Y-105255200I-171600J0D01*
G01*
X169458700Y-105255200D01*
G75*
G02*
X169287100Y-105083600I0J171600D01*
G01*
X169287100Y-105083600D01*
G75*
G02*
X169458700Y-104912000I171600J0D01*
G01*
G37*
G36*
G01*
X169408700Y-105002000D02*
X169458700Y-105002000D01*
G75*
G02*
X169560300Y-105103600I0J-101600D01*
G01*
X169560300Y-105153600D01*
G75*
G02*
X169458700Y-105255200I-101600J0D01*
G01*
X169408700Y-105255200D01*
G75*
G02*
X169307100Y-105153600I0J101600D01*
G01*
X169307100Y-105103600D01*
G75*
G02*
X169408700Y-105002000I101600J0D01*
G01*
G37*
G36*
G01*
X169398700Y-104902000D02*
X169528700Y-104902000D01*
G75*
G02*
X169630300Y-105003600I0J-101600D01*
G01*
X169630300Y-105083600D01*
G75*
G02*
X169528700Y-105185200I-101600J0D01*
G01*
X169398700Y-105185200D01*
G75*
G02*
X169297100Y-105083600I0J101600D01*
G01*
X169297100Y-105003600D01*
G75*
G02*
X169398700Y-104902000I101600J0D01*
G01*
G37*
G36*
G01*
X169278700Y-104842000D02*
X169408700Y-104842000D01*
G75*
G02*
X169510300Y-104943600I0J-101600D01*
G01*
X169510300Y-105023600D01*
G75*
G02*
X169408700Y-105125200I-101600J0D01*
G01*
X169278700Y-105125200D01*
G75*
G02*
X169177100Y-105023600I0J101600D01*
G01*
X169177100Y-104943600D01*
G75*
G02*
X169278700Y-104842000I101600J0D01*
G01*
G37*
G36*
G01*
X168981095Y-107285310D02*
X169111910Y-107154495D01*
G75*
G02*
X169255594Y-107154495I71842J-71842D01*
G01*
X169326305Y-107225206D01*
G75*
G02*
X169326305Y-107368890I-71842J-71842D01*
G01*
X169195490Y-107499705D01*
G75*
G02*
X169051806Y-107499705I-71842J71842D01*
G01*
X168981095Y-107428994D01*
G75*
G02*
X168981095Y-107285310I71842J71842D01*
G01*
G37*
G36*
G01*
X169012100Y-107248600D02*
X169012100Y-107248600D01*
G75*
G02*
X169183700Y-107077000I171600J0D01*
G01*
X169183700Y-107077000D01*
G75*
G02*
X169355300Y-107248600I0J-171600D01*
G01*
X169355300Y-107248600D01*
G75*
G02*
X169183700Y-107420200I-171600J0D01*
G01*
X169183700Y-107420200D01*
G75*
G02*
X169012100Y-107248600I0J171600D01*
G01*
G37*
G36*
G01*
X169102100Y-107298600D02*
X169102100Y-107248600D01*
G75*
G02*
X169203700Y-107147000I101600J0D01*
G01*
X169253700Y-107147000D01*
G75*
G02*
X169355300Y-107248600I0J-101600D01*
G01*
X169355300Y-107298600D01*
G75*
G02*
X169253700Y-107400200I-101600J0D01*
G01*
X169203700Y-107400200D01*
G75*
G02*
X169102100Y-107298600I0J101600D01*
G01*
G37*
G36*
G01*
X169002100Y-107308600D02*
X169002100Y-107178600D01*
G75*
G02*
X169103700Y-107077000I101600J0D01*
G01*
X169183700Y-107077000D01*
G75*
G02*
X169285300Y-107178600I0J-101600D01*
G01*
X169285300Y-107308600D01*
G75*
G02*
X169183700Y-107410200I-101600J0D01*
G01*
X169103700Y-107410200D01*
G75*
G02*
X169002100Y-107308600I0J101600D01*
G01*
G37*
G36*
G01*
X168942100Y-107428600D02*
X168942100Y-107298600D01*
G75*
G02*
X169043700Y-107197000I101600J0D01*
G01*
X169123700Y-107197000D01*
G75*
G02*
X169225300Y-107298600I0J-101600D01*
G01*
X169225300Y-107428600D01*
G75*
G02*
X169123700Y-107530200I-101600J0D01*
G01*
X169043700Y-107530200D01*
G75*
G02*
X168942100Y-107428600I0J101600D01*
G01*
G37*
G36*
G01*
X169185350Y-106330200D02*
X169022050Y-106330200D01*
G75*
G02*
X168852100Y-106160250I0J169950D01*
G01*
X168852100Y-106046950D01*
G75*
G02*
X169022050Y-105877000I169950J0D01*
G01*
X169185350Y-105877000D01*
G75*
G02*
X169355300Y-106046950I0J-169950D01*
G01*
X169355300Y-106160250D01*
G75*
G02*
X169185350Y-106330200I-169950J0D01*
G01*
G37*
G36*
G01*
X169185350Y-105930200D02*
X169022050Y-105930200D01*
G75*
G02*
X168852100Y-105760250I0J169950D01*
G01*
X168852100Y-105646950D01*
G75*
G02*
X169022050Y-105477000I169950J0D01*
G01*
X169185350Y-105477000D01*
G75*
G02*
X169355300Y-105646950I0J-169950D01*
G01*
X169355300Y-105760250D01*
G75*
G02*
X169185350Y-105930200I-169950J0D01*
G01*
G37*
%TD*%
%TO.C,C1*%
G36*
G01*
X170106899Y-108866000D02*
X171106901Y-108866000D01*
G75*
G02*
X171208500Y-108967599I0J-101599D01*
G01*
X171208500Y-110067601D01*
G75*
G02*
X171106901Y-110169200I-101599J0D01*
G01*
X170106899Y-110169200D01*
G75*
G02*
X170005300Y-110067601I0J101599D01*
G01*
X170005300Y-108967599D01*
G75*
G02*
X170106899Y-108866000I101599J0D01*
G01*
G37*
G36*
G01*
X170106899Y-110566000D02*
X171106901Y-110566000D01*
G75*
G02*
X171208500Y-110667599I0J-101599D01*
G01*
X171208500Y-111767601D01*
G75*
G02*
X171106901Y-111869200I-101599J0D01*
G01*
X170106899Y-111869200D01*
G75*
G02*
X170005300Y-111767601I0J101599D01*
G01*
X170005300Y-110667599D01*
G75*
G02*
X170106899Y-110566000I101599J0D01*
G01*
G37*
%TD*%
%TO.C,SJ1*%
G36*
G01*
X172001000Y-112655000D02*
X172001000Y-113925000D01*
G75*
G02*
X171899400Y-114026600I-101600J0D01*
G01*
X171264400Y-114026600D01*
G75*
G02*
X171162800Y-113925000I0J101600D01*
G01*
X171162800Y-112655000D01*
G75*
G02*
X171264400Y-112553400I101600J0D01*
G01*
X171899400Y-112553400D01*
G75*
G02*
X172001000Y-112655000I0J-101600D01*
G01*
G37*
G36*
G01*
X171177200Y-112655000D02*
X171177200Y-113925000D01*
G75*
G02*
X171075600Y-114026600I-101600J0D01*
G01*
X170440600Y-114026600D01*
G75*
G02*
X170339000Y-113925000I0J101600D01*
G01*
X170339000Y-112655000D01*
G75*
G02*
X170440600Y-112553400I101600J0D01*
G01*
X171075600Y-112553400D01*
G75*
G02*
X171177200Y-112655000I0J-101600D01*
G01*
G37*
%TD*%
%TO.C,SJ2*%
G36*
G01*
X169155000Y-111034700D02*
X167885000Y-111034700D01*
G75*
G02*
X167783400Y-110933100I0J101600D01*
G01*
X167783400Y-110298100D01*
G75*
G02*
X167885000Y-110196500I101600J0D01*
G01*
X169155000Y-110196500D01*
G75*
G02*
X169256600Y-110298100I0J-101600D01*
G01*
X169256600Y-110933100D01*
G75*
G02*
X169155000Y-111034700I-101600J0D01*
G01*
G37*
G36*
G01*
X169155000Y-110221900D02*
X167885000Y-110221900D01*
G75*
G02*
X167783400Y-110120300I0J101600D01*
G01*
X167783400Y-109485300D01*
G75*
G02*
X167885000Y-109383700I101600J0D01*
G01*
X169155000Y-109383700D01*
G75*
G02*
X169256600Y-109485300I0J-101600D01*
G01*
X169256600Y-110120300D01*
G75*
G02*
X169155000Y-110221900I-101600J0D01*
G01*
G37*
G36*
G01*
X169155000Y-109409100D02*
X167885000Y-109409100D01*
G75*
G02*
X167783400Y-109307500I0J101600D01*
G01*
X167783400Y-108672500D01*
G75*
G02*
X167885000Y-108570900I101600J0D01*
G01*
X169155000Y-108570900D01*
G75*
G02*
X169256600Y-108672500I0J-101600D01*
G01*
X169256600Y-109307500D01*
G75*
G02*
X169155000Y-109409100I-101600J0D01*
G01*
G37*
%TD*%
%TO.C,R11*%
G36*
G01*
X169297600Y-98435900D02*
X168297600Y-98435900D01*
G75*
G02*
X168246800Y-98385100I0J50800D01*
G01*
X168246800Y-97310100D01*
G75*
G02*
X168297600Y-97259300I50800J0D01*
G01*
X169297600Y-97259300D01*
G75*
G02*
X169348400Y-97310100I0J-50800D01*
G01*
X169348400Y-98385100D01*
G75*
G02*
X169297600Y-98435900I-50800J0D01*
G01*
G37*
G36*
G01*
X169297600Y-96735900D02*
X168297600Y-96735900D01*
G75*
G02*
X168246800Y-96685100I0J50800D01*
G01*
X168246800Y-95610100D01*
G75*
G02*
X168297600Y-95559300I50800J0D01*
G01*
X169297600Y-95559300D01*
G75*
G02*
X169348400Y-95610100I0J-50800D01*
G01*
X169348400Y-96685100D01*
G75*
G02*
X169297600Y-96735900I-50800J0D01*
G01*
G37*
%TD*%
%TO.C,R10*%
G36*
G01*
X131983100Y-107330900D02*
X130983100Y-107330900D01*
G75*
G02*
X130932300Y-107280100I0J50800D01*
G01*
X130932300Y-106205100D01*
G75*
G02*
X130983100Y-106154300I50800J0D01*
G01*
X131983100Y-106154300D01*
G75*
G02*
X132033900Y-106205100I0J-50800D01*
G01*
X132033900Y-107280100D01*
G75*
G02*
X131983100Y-107330900I-50800J0D01*
G01*
G37*
G36*
G01*
X131983100Y-105630900D02*
X130983100Y-105630900D01*
G75*
G02*
X130932300Y-105580100I0J50800D01*
G01*
X130932300Y-104505100D01*
G75*
G02*
X130983100Y-104454300I50800J0D01*
G01*
X131983100Y-104454300D01*
G75*
G02*
X132033900Y-104505100I0J-50800D01*
G01*
X132033900Y-105580100D01*
G75*
G02*
X131983100Y-105630900I-50800J0D01*
G01*
G37*
%TD*%
%TO.C,C17*%
G36*
G01*
X149285300Y-110647100D02*
X149285300Y-109647100D01*
G75*
G02*
X149336100Y-109596300I50800J0D01*
G01*
X150411100Y-109596300D01*
G75*
G02*
X150461900Y-109647100I0J-50800D01*
G01*
X150461900Y-110647100D01*
G75*
G02*
X150411100Y-110697900I-50800J0D01*
G01*
X149336100Y-110697900D01*
G75*
G02*
X149285300Y-110647100I0J50800D01*
G01*
G37*
G36*
G01*
X150985300Y-110647100D02*
X150985300Y-109647100D01*
G75*
G02*
X151036100Y-109596300I50800J0D01*
G01*
X152111100Y-109596300D01*
G75*
G02*
X152161900Y-109647100I0J-50800D01*
G01*
X152161900Y-110647100D01*
G75*
G02*
X152111100Y-110697900I-50800J0D01*
G01*
X151036100Y-110697900D01*
G75*
G02*
X150985300Y-110647100I0J50800D01*
G01*
G37*
%TD*%
%TO.C,R6*%
G36*
G01*
X151239600Y-100834800D02*
X152239600Y-100834800D01*
G75*
G02*
X152290400Y-100885600I0J-50800D01*
G01*
X152290400Y-101960600D01*
G75*
G02*
X152239600Y-102011400I-50800J0D01*
G01*
X151239600Y-102011400D01*
G75*
G02*
X151188800Y-101960600I0J50800D01*
G01*
X151188800Y-100885600D01*
G75*
G02*
X151239600Y-100834800I50800J0D01*
G01*
G37*
G36*
G01*
X151239600Y-102534800D02*
X152239600Y-102534800D01*
G75*
G02*
X152290400Y-102585600I0J-50800D01*
G01*
X152290400Y-103660600D01*
G75*
G02*
X152239600Y-103711400I-50800J0D01*
G01*
X151239600Y-103711400D01*
G75*
G02*
X151188800Y-103660600I0J50800D01*
G01*
X151188800Y-102585600D01*
G75*
G02*
X151239600Y-102534800I50800J0D01*
G01*
G37*
%TD*%
%TO.C,C2*%
G36*
G01*
X149920300Y-97248600D02*
X149920300Y-96248600D01*
G75*
G02*
X149971100Y-96197800I50800J0D01*
G01*
X151046100Y-96197800D01*
G75*
G02*
X151096900Y-96248600I0J-50800D01*
G01*
X151096900Y-97248600D01*
G75*
G02*
X151046100Y-97299400I-50800J0D01*
G01*
X149971100Y-97299400D01*
G75*
G02*
X149920300Y-97248600I0J50800D01*
G01*
G37*
G36*
G01*
X151620300Y-97248600D02*
X151620300Y-96248600D01*
G75*
G02*
X151671100Y-96197800I50800J0D01*
G01*
X152746100Y-96197800D01*
G75*
G02*
X152796900Y-96248600I0J-50800D01*
G01*
X152796900Y-97248600D01*
G75*
G02*
X152746100Y-97299400I-50800J0D01*
G01*
X151671100Y-97299400D01*
G75*
G02*
X151620300Y-97248600I0J50800D01*
G01*
G37*
%TD*%
%TO.C,SW2*%
G36*
G01*
X171646100Y-98374400D02*
X170746100Y-98374400D01*
G75*
G02*
X170695300Y-98323600I0J50800D01*
G01*
X170695300Y-97423600D01*
G75*
G02*
X170746100Y-97372800I50800J0D01*
G01*
X171646100Y-97372800D01*
G75*
G02*
X171696900Y-97423600I0J-50800D01*
G01*
X171696900Y-98323600D01*
G75*
G02*
X171646100Y-98374400I-50800J0D01*
G01*
G37*
G36*
G01*
X173246100Y-98374400D02*
X172346100Y-98374400D01*
G75*
G02*
X172295300Y-98323600I0J50800D01*
G01*
X172295300Y-97423600D01*
G75*
G02*
X172346100Y-97372800I50800J0D01*
G01*
X173246100Y-97372800D01*
G75*
G02*
X173296900Y-97423600I0J-50800D01*
G01*
X173296900Y-98323600D01*
G75*
G02*
X173246100Y-98374400I-50800J0D01*
G01*
G37*
G36*
G01*
X173246100Y-102474400D02*
X172346100Y-102474400D01*
G75*
G02*
X172295300Y-102423600I0J50800D01*
G01*
X172295300Y-101523600D01*
G75*
G02*
X172346100Y-101472800I50800J0D01*
G01*
X173246100Y-101472800D01*
G75*
G02*
X173296900Y-101523600I0J-50800D01*
G01*
X173296900Y-102423600D01*
G75*
G02*
X173246100Y-102474400I-50800J0D01*
G01*
G37*
G36*
G01*
X171646100Y-102474400D02*
X170746100Y-102474400D01*
G75*
G02*
X170695300Y-102423600I0J50800D01*
G01*
X170695300Y-101523600D01*
G75*
G02*
X170746100Y-101472800I50800J0D01*
G01*
X171646100Y-101472800D01*
G75*
G02*
X171696900Y-101523600I0J-50800D01*
G01*
X171696900Y-102423600D01*
G75*
G02*
X171646100Y-102474400I-50800J0D01*
G01*
G37*
%TD*%
%TO.C,R9*%
G36*
G01*
X131284600Y-104282900D02*
X130284600Y-104282900D01*
G75*
G02*
X130233800Y-104232100I0J50800D01*
G01*
X130233800Y-103157100D01*
G75*
G02*
X130284600Y-103106300I50800J0D01*
G01*
X131284600Y-103106300D01*
G75*
G02*
X131335400Y-103157100I0J-50800D01*
G01*
X131335400Y-104232100D01*
G75*
G02*
X131284600Y-104282900I-50800J0D01*
G01*
G37*
G36*
G01*
X131284600Y-102582900D02*
X130284600Y-102582900D01*
G75*
G02*
X130233800Y-102532100I0J50800D01*
G01*
X130233800Y-101457100D01*
G75*
G02*
X130284600Y-101406300I50800J0D01*
G01*
X131284600Y-101406300D01*
G75*
G02*
X131335400Y-101457100I0J-50800D01*
G01*
X131335400Y-102532100D01*
G75*
G02*
X131284600Y-102582900I-50800J0D01*
G01*
G37*
%TD*%
%TO.C,C3*%
G36*
G01*
X149080600Y-97596300D02*
X150080600Y-97596300D01*
G75*
G02*
X150131400Y-97647100I0J-50800D01*
G01*
X150131400Y-98722100D01*
G75*
G02*
X150080600Y-98772900I-50800J0D01*
G01*
X149080600Y-98772900D01*
G75*
G02*
X149029800Y-98722100I0J50800D01*
G01*
X149029800Y-97647100D01*
G75*
G02*
X149080600Y-97596300I50800J0D01*
G01*
G37*
G36*
G01*
X149080600Y-99296300D02*
X150080600Y-99296300D01*
G75*
G02*
X150131400Y-99347100I0J-50800D01*
G01*
X150131400Y-100422100D01*
G75*
G02*
X150080600Y-100472900I-50800J0D01*
G01*
X149080600Y-100472900D01*
G75*
G02*
X149029800Y-100422100I0J50800D01*
G01*
X149029800Y-99347100D01*
G75*
G02*
X149080600Y-99296300I50800J0D01*
G01*
G37*
%TD*%
%TO.C,C8*%
G36*
G01*
X163495100Y-106041800D02*
X164495100Y-106041800D01*
G75*
G02*
X164545900Y-106092600I0J-50800D01*
G01*
X164545900Y-107167600D01*
G75*
G02*
X164495100Y-107218400I-50800J0D01*
G01*
X163495100Y-107218400D01*
G75*
G02*
X163444300Y-107167600I0J50800D01*
G01*
X163444300Y-106092600D01*
G75*
G02*
X163495100Y-106041800I50800J0D01*
G01*
G37*
G36*
G01*
X163495100Y-107741800D02*
X164495100Y-107741800D01*
G75*
G02*
X164545900Y-107792600I0J-50800D01*
G01*
X164545900Y-108867600D01*
G75*
G02*
X164495100Y-108918400I-50800J0D01*
G01*
X163495100Y-108918400D01*
G75*
G02*
X163444300Y-108867600I0J50800D01*
G01*
X163444300Y-107792600D01*
G75*
G02*
X163495100Y-107741800I50800J0D01*
G01*
G37*
%TD*%
%TO.C,C7*%
G36*
G01*
X162971100Y-108918400D02*
X161971100Y-108918400D01*
G75*
G02*
X161920300Y-108867600I0J50800D01*
G01*
X161920300Y-107792600D01*
G75*
G02*
X161971100Y-107741800I50800J0D01*
G01*
X162971100Y-107741800D01*
G75*
G02*
X163021900Y-107792600I0J-50800D01*
G01*
X163021900Y-108867600D01*
G75*
G02*
X162971100Y-108918400I-50800J0D01*
G01*
G37*
G36*
G01*
X162971100Y-107218400D02*
X161971100Y-107218400D01*
G75*
G02*
X161920300Y-107167600I0J50800D01*
G01*
X161920300Y-106092600D01*
G75*
G02*
X161971100Y-106041800I50800J0D01*
G01*
X162971100Y-106041800D01*
G75*
G02*
X163021900Y-106092600I0J-50800D01*
G01*
X163021900Y-107167600D01*
G75*
G02*
X162971100Y-107218400I-50800J0D01*
G01*
G37*
%TD*%
%TO.C,C11*%
G36*
G01*
X138714100Y-110188400D02*
X137714100Y-110188400D01*
G75*
G02*
X137663300Y-110137600I0J50800D01*
G01*
X137663300Y-109062600D01*
G75*
G02*
X137714100Y-109011800I50800J0D01*
G01*
X138714100Y-109011800D01*
G75*
G02*
X138764900Y-109062600I0J-50800D01*
G01*
X138764900Y-110137600D01*
G75*
G02*
X138714100Y-110188400I-50800J0D01*
G01*
G37*
G36*
G01*
X138714100Y-108488400D02*
X137714100Y-108488400D01*
G75*
G02*
X137663300Y-108437600I0J50800D01*
G01*
X137663300Y-107362600D01*
G75*
G02*
X137714100Y-107311800I50800J0D01*
G01*
X138714100Y-107311800D01*
G75*
G02*
X138764900Y-107362600I0J-50800D01*
G01*
X138764900Y-108437600D01*
G75*
G02*
X138714100Y-108488400I-50800J0D01*
G01*
G37*
%TD*%
%TO.C,C12*%
G36*
G01*
X150969600Y-103711400D02*
X149969600Y-103711400D01*
G75*
G02*
X149918800Y-103660600I0J50800D01*
G01*
X149918800Y-102585600D01*
G75*
G02*
X149969600Y-102534800I50800J0D01*
G01*
X150969600Y-102534800D01*
G75*
G02*
X151020400Y-102585600I0J-50800D01*
G01*
X151020400Y-103660600D01*
G75*
G02*
X150969600Y-103711400I-50800J0D01*
G01*
G37*
G36*
G01*
X150969600Y-102011400D02*
X149969600Y-102011400D01*
G75*
G02*
X149918800Y-101960600I0J50800D01*
G01*
X149918800Y-100885600D01*
G75*
G02*
X149969600Y-100834800I50800J0D01*
G01*
X150969600Y-100834800D01*
G75*
G02*
X151020400Y-100885600I0J-50800D01*
G01*
X151020400Y-101960600D01*
G75*
G02*
X150969600Y-102011400I-50800J0D01*
G01*
G37*
%TD*%
%TO.C,C13*%
G36*
G01*
X156987900Y-108948600D02*
X156987900Y-109948600D01*
G75*
G02*
X156937100Y-109999400I-50800J0D01*
G01*
X155862100Y-109999400D01*
G75*
G02*
X155811300Y-109948600I0J50800D01*
G01*
X155811300Y-108948600D01*
G75*
G02*
X155862100Y-108897800I50800J0D01*
G01*
X156937100Y-108897800D01*
G75*
G02*
X156987900Y-108948600I0J-50800D01*
G01*
G37*
G36*
G01*
X155287900Y-108948600D02*
X155287900Y-109948600D01*
G75*
G02*
X155237100Y-109999400I-50800J0D01*
G01*
X154162100Y-109999400D01*
G75*
G02*
X154111300Y-109948600I0J50800D01*
G01*
X154111300Y-108948600D01*
G75*
G02*
X154162100Y-108897800I50800J0D01*
G01*
X155237100Y-108897800D01*
G75*
G02*
X155287900Y-108948600I0J-50800D01*
G01*
G37*
%TD*%
%TO.C,R4*%
G36*
G01*
X146383400Y-96248600D02*
X146383400Y-97248600D01*
G75*
G02*
X146332600Y-97299400I-50800J0D01*
G01*
X145257600Y-97299400D01*
G75*
G02*
X145206800Y-97248600I0J50800D01*
G01*
X145206800Y-96248600D01*
G75*
G02*
X145257600Y-96197800I50800J0D01*
G01*
X146332600Y-96197800D01*
G75*
G02*
X146383400Y-96248600I0J-50800D01*
G01*
G37*
G36*
G01*
X144683400Y-96248600D02*
X144683400Y-97248600D01*
G75*
G02*
X144632600Y-97299400I-50800J0D01*
G01*
X143557600Y-97299400D01*
G75*
G02*
X143506800Y-97248600I0J50800D01*
G01*
X143506800Y-96248600D01*
G75*
G02*
X143557600Y-96197800I50800J0D01*
G01*
X144632600Y-96197800D01*
G75*
G02*
X144683400Y-96248600I0J-50800D01*
G01*
G37*
%TD*%
%TO.C,R1*%
G36*
G01*
X138890400Y-110536100D02*
X138890400Y-111536100D01*
G75*
G02*
X138839600Y-111586900I-50800J0D01*
G01*
X137764600Y-111586900D01*
G75*
G02*
X137713800Y-111536100I0J50800D01*
G01*
X137713800Y-110536100D01*
G75*
G02*
X137764600Y-110485300I50800J0D01*
G01*
X138839600Y-110485300D01*
G75*
G02*
X138890400Y-110536100I0J-50800D01*
G01*
G37*
G36*
G01*
X137190400Y-110536100D02*
X137190400Y-111536100D01*
G75*
G02*
X137139600Y-111586900I-50800J0D01*
G01*
X136064600Y-111586900D01*
G75*
G02*
X136013800Y-111536100I0J50800D01*
G01*
X136013800Y-110536100D01*
G75*
G02*
X136064600Y-110485300I50800J0D01*
G01*
X137139600Y-110485300D01*
G75*
G02*
X137190400Y-110536100I0J-50800D01*
G01*
G37*
%TD*%
%TO.C,R12*%
G36*
G01*
X131665600Y-110505900D02*
X130665600Y-110505900D01*
G75*
G02*
X130614800Y-110455100I0J50800D01*
G01*
X130614800Y-109380100D01*
G75*
G02*
X130665600Y-109329300I50800J0D01*
G01*
X131665600Y-109329300D01*
G75*
G02*
X131716400Y-109380100I0J-50800D01*
G01*
X131716400Y-110455100D01*
G75*
G02*
X131665600Y-110505900I-50800J0D01*
G01*
G37*
G36*
G01*
X131665600Y-108805900D02*
X130665600Y-108805900D01*
G75*
G02*
X130614800Y-108755100I0J50800D01*
G01*
X130614800Y-107680100D01*
G75*
G02*
X130665600Y-107629300I50800J0D01*
G01*
X131665600Y-107629300D01*
G75*
G02*
X131716400Y-107680100I0J-50800D01*
G01*
X131716400Y-108755100D01*
G75*
G02*
X131665600Y-108805900I-50800J0D01*
G01*
G37*
%TD*%
%TO.C,IC1*%
G36*
G01*
X160218100Y-100771900D02*
X160018100Y-100771900D01*
G75*
G02*
X159967300Y-100721100I0J50800D01*
G01*
X159967300Y-99846100D01*
G75*
G02*
X160018100Y-99795300I50800J0D01*
G01*
X160218100Y-99795300D01*
G75*
G02*
X160268900Y-99846100I0J-50800D01*
G01*
X160268900Y-100721100D01*
G75*
G02*
X160218100Y-100771900I-50800J0D01*
G01*
G37*
G36*
G01*
X159818100Y-100771900D02*
X159618100Y-100771900D01*
G75*
G02*
X159567300Y-100721100I0J50800D01*
G01*
X159567300Y-99846100D01*
G75*
G02*
X159618100Y-99795300I50800J0D01*
G01*
X159818100Y-99795300D01*
G75*
G02*
X159868900Y-99846100I0J-50800D01*
G01*
X159868900Y-100721100D01*
G75*
G02*
X159818100Y-100771900I-50800J0D01*
G01*
G37*
G36*
G01*
X159418100Y-100771900D02*
X159218100Y-100771900D01*
G75*
G02*
X159167300Y-100721100I0J50800D01*
G01*
X159167300Y-99846100D01*
G75*
G02*
X159218100Y-99795300I50800J0D01*
G01*
X159418100Y-99795300D01*
G75*
G02*
X159468900Y-99846100I0J-50800D01*
G01*
X159468900Y-100721100D01*
G75*
G02*
X159418100Y-100771900I-50800J0D01*
G01*
G37*
G36*
G01*
X159018100Y-100771900D02*
X158818100Y-100771900D01*
G75*
G02*
X158767300Y-100721100I0J50800D01*
G01*
X158767300Y-99846100D01*
G75*
G02*
X158818100Y-99795300I50800J0D01*
G01*
X159018100Y-99795300D01*
G75*
G02*
X159068900Y-99846100I0J-50800D01*
G01*
X159068900Y-100721100D01*
G75*
G02*
X159018100Y-100771900I-50800J0D01*
G01*
G37*
G36*
G01*
X158618100Y-100771900D02*
X158418100Y-100771900D01*
G75*
G02*
X158367300Y-100721100I0J50800D01*
G01*
X158367300Y-99846100D01*
G75*
G02*
X158418100Y-99795300I50800J0D01*
G01*
X158618100Y-99795300D01*
G75*
G02*
X158668900Y-99846100I0J-50800D01*
G01*
X158668900Y-100721100D01*
G75*
G02*
X158618100Y-100771900I-50800J0D01*
G01*
G37*
G36*
G01*
X158218100Y-100771900D02*
X158018100Y-100771900D01*
G75*
G02*
X157967300Y-100721100I0J50800D01*
G01*
X157967300Y-99846100D01*
G75*
G02*
X158018100Y-99795300I50800J0D01*
G01*
X158218100Y-99795300D01*
G75*
G02*
X158268900Y-99846100I0J-50800D01*
G01*
X158268900Y-100721100D01*
G75*
G02*
X158218100Y-100771900I-50800J0D01*
G01*
G37*
G36*
G01*
X157818100Y-100771900D02*
X157618100Y-100771900D01*
G75*
G02*
X157567300Y-100721100I0J50800D01*
G01*
X157567300Y-99846100D01*
G75*
G02*
X157618100Y-99795300I50800J0D01*
G01*
X157818100Y-99795300D01*
G75*
G02*
X157868900Y-99846100I0J-50800D01*
G01*
X157868900Y-100721100D01*
G75*
G02*
X157818100Y-100771900I-50800J0D01*
G01*
G37*
G36*
G01*
X157418100Y-100771900D02*
X157218100Y-100771900D01*
G75*
G02*
X157167300Y-100721100I0J50800D01*
G01*
X157167300Y-99846100D01*
G75*
G02*
X157218100Y-99795300I50800J0D01*
G01*
X157418100Y-99795300D01*
G75*
G02*
X157468900Y-99846100I0J-50800D01*
G01*
X157468900Y-100721100D01*
G75*
G02*
X157418100Y-100771900I-50800J0D01*
G01*
G37*
G36*
G01*
X157018100Y-100771900D02*
X156818100Y-100771900D01*
G75*
G02*
X156767300Y-100721100I0J50800D01*
G01*
X156767300Y-99846100D01*
G75*
G02*
X156818100Y-99795300I50800J0D01*
G01*
X157018100Y-99795300D01*
G75*
G02*
X157068900Y-99846100I0J-50800D01*
G01*
X157068900Y-100721100D01*
G75*
G02*
X157018100Y-100771900I-50800J0D01*
G01*
G37*
G36*
G01*
X156618100Y-100771900D02*
X156418100Y-100771900D01*
G75*
G02*
X156367300Y-100721100I0J50800D01*
G01*
X156367300Y-99846100D01*
G75*
G02*
X156418100Y-99795300I50800J0D01*
G01*
X156618100Y-99795300D01*
G75*
G02*
X156668900Y-99846100I0J-50800D01*
G01*
X156668900Y-100721100D01*
G75*
G02*
X156618100Y-100771900I-50800J0D01*
G01*
G37*
G36*
G01*
X156218100Y-100771900D02*
X156018100Y-100771900D01*
G75*
G02*
X155967300Y-100721100I0J50800D01*
G01*
X155967300Y-99846100D01*
G75*
G02*
X156018100Y-99795300I50800J0D01*
G01*
X156218100Y-99795300D01*
G75*
G02*
X156268900Y-99846100I0J-50800D01*
G01*
X156268900Y-100721100D01*
G75*
G02*
X156218100Y-100771900I-50800J0D01*
G01*
G37*
G36*
G01*
X155818100Y-100771900D02*
X155618100Y-100771900D01*
G75*
G02*
X155567300Y-100721100I0J50800D01*
G01*
X155567300Y-99846100D01*
G75*
G02*
X155618100Y-99795300I50800J0D01*
G01*
X155818100Y-99795300D01*
G75*
G02*
X155868900Y-99846100I0J-50800D01*
G01*
X155868900Y-100721100D01*
G75*
G02*
X155818100Y-100771900I-50800J0D01*
G01*
G37*
G36*
G01*
X155418100Y-100771900D02*
X155218100Y-100771900D01*
G75*
G02*
X155167300Y-100721100I0J50800D01*
G01*
X155167300Y-99846100D01*
G75*
G02*
X155218100Y-99795300I50800J0D01*
G01*
X155418100Y-99795300D01*
G75*
G02*
X155468900Y-99846100I0J-50800D01*
G01*
X155468900Y-100721100D01*
G75*
G02*
X155418100Y-100771900I-50800J0D01*
G01*
G37*
G36*
G01*
X155018100Y-100771900D02*
X154818100Y-100771900D01*
G75*
G02*
X154767300Y-100721100I0J50800D01*
G01*
X154767300Y-99846100D01*
G75*
G02*
X154818100Y-99795300I50800J0D01*
G01*
X155018100Y-99795300D01*
G75*
G02*
X155068900Y-99846100I0J-50800D01*
G01*
X155068900Y-100721100D01*
G75*
G02*
X155018100Y-100771900I-50800J0D01*
G01*
G37*
G36*
G01*
X154556400Y-101033600D02*
X154556400Y-101233600D01*
G75*
G02*
X154505600Y-101284400I-50800J0D01*
G01*
X153630600Y-101284400D01*
G75*
G02*
X153579800Y-101233600I0J50800D01*
G01*
X153579800Y-101033600D01*
G75*
G02*
X153630600Y-100982800I50800J0D01*
G01*
X154505600Y-100982800D01*
G75*
G02*
X154556400Y-101033600I0J-50800D01*
G01*
G37*
G36*
G01*
X154556400Y-101433600D02*
X154556400Y-101633600D01*
G75*
G02*
X154505600Y-101684400I-50800J0D01*
G01*
X153630600Y-101684400D01*
G75*
G02*
X153579800Y-101633600I0J50800D01*
G01*
X153579800Y-101433600D01*
G75*
G02*
X153630600Y-101382800I50800J0D01*
G01*
X154505600Y-101382800D01*
G75*
G02*
X154556400Y-101433600I0J-50800D01*
G01*
G37*
G36*
G01*
X154556400Y-101833600D02*
X154556400Y-102033600D01*
G75*
G02*
X154505600Y-102084400I-50800J0D01*
G01*
X153630600Y-102084400D01*
G75*
G02*
X153579800Y-102033600I0J50800D01*
G01*
X153579800Y-101833600D01*
G75*
G02*
X153630600Y-101782800I50800J0D01*
G01*
X154505600Y-101782800D01*
G75*
G02*
X154556400Y-101833600I0J-50800D01*
G01*
G37*
G36*
G01*
X154556400Y-102233600D02*
X154556400Y-102433600D01*
G75*
G02*
X154505600Y-102484400I-50800J0D01*
G01*
X153630600Y-102484400D01*
G75*
G02*
X153579800Y-102433600I0J50800D01*
G01*
X153579800Y-102233600D01*
G75*
G02*
X153630600Y-102182800I50800J0D01*
G01*
X154505600Y-102182800D01*
G75*
G02*
X154556400Y-102233600I0J-50800D01*
G01*
G37*
G36*
G01*
X154556400Y-102633600D02*
X154556400Y-102833600D01*
G75*
G02*
X154505600Y-102884400I-50800J0D01*
G01*
X153630600Y-102884400D01*
G75*
G02*
X153579800Y-102833600I0J50800D01*
G01*
X153579800Y-102633600D01*
G75*
G02*
X153630600Y-102582800I50800J0D01*
G01*
X154505600Y-102582800D01*
G75*
G02*
X154556400Y-102633600I0J-50800D01*
G01*
G37*
G36*
G01*
X154556400Y-103033600D02*
X154556400Y-103233600D01*
G75*
G02*
X154505600Y-103284400I-50800J0D01*
G01*
X153630600Y-103284400D01*
G75*
G02*
X153579800Y-103233600I0J50800D01*
G01*
X153579800Y-103033600D01*
G75*
G02*
X153630600Y-102982800I50800J0D01*
G01*
X154505600Y-102982800D01*
G75*
G02*
X154556400Y-103033600I0J-50800D01*
G01*
G37*
G36*
G01*
X154556400Y-103433600D02*
X154556400Y-103633600D01*
G75*
G02*
X154505600Y-103684400I-50800J0D01*
G01*
X153630600Y-103684400D01*
G75*
G02*
X153579800Y-103633600I0J50800D01*
G01*
X153579800Y-103433600D01*
G75*
G02*
X153630600Y-103382800I50800J0D01*
G01*
X154505600Y-103382800D01*
G75*
G02*
X154556400Y-103433600I0J-50800D01*
G01*
G37*
G36*
G01*
X154556400Y-103833600D02*
X154556400Y-104033600D01*
G75*
G02*
X154505600Y-104084400I-50800J0D01*
G01*
X153630600Y-104084400D01*
G75*
G02*
X153579800Y-104033600I0J50800D01*
G01*
X153579800Y-103833600D01*
G75*
G02*
X153630600Y-103782800I50800J0D01*
G01*
X154505600Y-103782800D01*
G75*
G02*
X154556400Y-103833600I0J-50800D01*
G01*
G37*
G36*
G01*
X154556400Y-104233600D02*
X154556400Y-104433600D01*
G75*
G02*
X154505600Y-104484400I-50800J0D01*
G01*
X153630600Y-104484400D01*
G75*
G02*
X153579800Y-104433600I0J50800D01*
G01*
X153579800Y-104233600D01*
G75*
G02*
X153630600Y-104182800I50800J0D01*
G01*
X154505600Y-104182800D01*
G75*
G02*
X154556400Y-104233600I0J-50800D01*
G01*
G37*
G36*
G01*
X154556400Y-104633600D02*
X154556400Y-104833600D01*
G75*
G02*
X154505600Y-104884400I-50800J0D01*
G01*
X153630600Y-104884400D01*
G75*
G02*
X153579800Y-104833600I0J50800D01*
G01*
X153579800Y-104633600D01*
G75*
G02*
X153630600Y-104582800I50800J0D01*
G01*
X154505600Y-104582800D01*
G75*
G02*
X154556400Y-104633600I0J-50800D01*
G01*
G37*
G36*
G01*
X154556400Y-105033600D02*
X154556400Y-105233600D01*
G75*
G02*
X154505600Y-105284400I-50800J0D01*
G01*
X153630600Y-105284400D01*
G75*
G02*
X153579800Y-105233600I0J50800D01*
G01*
X153579800Y-105033600D01*
G75*
G02*
X153630600Y-104982800I50800J0D01*
G01*
X154505600Y-104982800D01*
G75*
G02*
X154556400Y-105033600I0J-50800D01*
G01*
G37*
G36*
G01*
X154556400Y-105433600D02*
X154556400Y-105633600D01*
G75*
G02*
X154505600Y-105684400I-50800J0D01*
G01*
X153630600Y-105684400D01*
G75*
G02*
X153579800Y-105633600I0J50800D01*
G01*
X153579800Y-105433600D01*
G75*
G02*
X153630600Y-105382800I50800J0D01*
G01*
X154505600Y-105382800D01*
G75*
G02*
X154556400Y-105433600I0J-50800D01*
G01*
G37*
G36*
G01*
X154556400Y-105833600D02*
X154556400Y-106033600D01*
G75*
G02*
X154505600Y-106084400I-50800J0D01*
G01*
X153630600Y-106084400D01*
G75*
G02*
X153579800Y-106033600I0J50800D01*
G01*
X153579800Y-105833600D01*
G75*
G02*
X153630600Y-105782800I50800J0D01*
G01*
X154505600Y-105782800D01*
G75*
G02*
X154556400Y-105833600I0J-50800D01*
G01*
G37*
G36*
G01*
X154556400Y-106233600D02*
X154556400Y-106433600D01*
G75*
G02*
X154505600Y-106484400I-50800J0D01*
G01*
X153630600Y-106484400D01*
G75*
G02*
X153579800Y-106433600I0J50800D01*
G01*
X153579800Y-106233600D01*
G75*
G02*
X153630600Y-106182800I50800J0D01*
G01*
X154505600Y-106182800D01*
G75*
G02*
X154556400Y-106233600I0J-50800D01*
G01*
G37*
G36*
G01*
X154818100Y-106695300D02*
X155018100Y-106695300D01*
G75*
G02*
X155068900Y-106746100I0J-50800D01*
G01*
X155068900Y-107621100D01*
G75*
G02*
X155018100Y-107671900I-50800J0D01*
G01*
X154818100Y-107671900D01*
G75*
G02*
X154767300Y-107621100I0J50800D01*
G01*
X154767300Y-106746100D01*
G75*
G02*
X154818100Y-106695300I50800J0D01*
G01*
G37*
G36*
G01*
X155218100Y-106695300D02*
X155418100Y-106695300D01*
G75*
G02*
X155468900Y-106746100I0J-50800D01*
G01*
X155468900Y-107621100D01*
G75*
G02*
X155418100Y-107671900I-50800J0D01*
G01*
X155218100Y-107671900D01*
G75*
G02*
X155167300Y-107621100I0J50800D01*
G01*
X155167300Y-106746100D01*
G75*
G02*
X155218100Y-106695300I50800J0D01*
G01*
G37*
G36*
G01*
X155618100Y-106695300D02*
X155818100Y-106695300D01*
G75*
G02*
X155868900Y-106746100I0J-50800D01*
G01*
X155868900Y-107621100D01*
G75*
G02*
X155818100Y-107671900I-50800J0D01*
G01*
X155618100Y-107671900D01*
G75*
G02*
X155567300Y-107621100I0J50800D01*
G01*
X155567300Y-106746100D01*
G75*
G02*
X155618100Y-106695300I50800J0D01*
G01*
G37*
G36*
G01*
X156018100Y-106695300D02*
X156218100Y-106695300D01*
G75*
G02*
X156268900Y-106746100I0J-50800D01*
G01*
X156268900Y-107621100D01*
G75*
G02*
X156218100Y-107671900I-50800J0D01*
G01*
X156018100Y-107671900D01*
G75*
G02*
X155967300Y-107621100I0J50800D01*
G01*
X155967300Y-106746100D01*
G75*
G02*
X156018100Y-106695300I50800J0D01*
G01*
G37*
G36*
G01*
X156418100Y-106695300D02*
X156618100Y-106695300D01*
G75*
G02*
X156668900Y-106746100I0J-50800D01*
G01*
X156668900Y-107621100D01*
G75*
G02*
X156618100Y-107671900I-50800J0D01*
G01*
X156418100Y-107671900D01*
G75*
G02*
X156367300Y-107621100I0J50800D01*
G01*
X156367300Y-106746100D01*
G75*
G02*
X156418100Y-106695300I50800J0D01*
G01*
G37*
G36*
G01*
X156818100Y-106695300D02*
X157018100Y-106695300D01*
G75*
G02*
X157068900Y-106746100I0J-50800D01*
G01*
X157068900Y-107621100D01*
G75*
G02*
X157018100Y-107671900I-50800J0D01*
G01*
X156818100Y-107671900D01*
G75*
G02*
X156767300Y-107621100I0J50800D01*
G01*
X156767300Y-106746100D01*
G75*
G02*
X156818100Y-106695300I50800J0D01*
G01*
G37*
G36*
G01*
X157218100Y-106695300D02*
X157418100Y-106695300D01*
G75*
G02*
X157468900Y-106746100I0J-50800D01*
G01*
X157468900Y-107621100D01*
G75*
G02*
X157418100Y-107671900I-50800J0D01*
G01*
X157218100Y-107671900D01*
G75*
G02*
X157167300Y-107621100I0J50800D01*
G01*
X157167300Y-106746100D01*
G75*
G02*
X157218100Y-106695300I50800J0D01*
G01*
G37*
G36*
G01*
X157618100Y-106695300D02*
X157818100Y-106695300D01*
G75*
G02*
X157868900Y-106746100I0J-50800D01*
G01*
X157868900Y-107621100D01*
G75*
G02*
X157818100Y-107671900I-50800J0D01*
G01*
X157618100Y-107671900D01*
G75*
G02*
X157567300Y-107621100I0J50800D01*
G01*
X157567300Y-106746100D01*
G75*
G02*
X157618100Y-106695300I50800J0D01*
G01*
G37*
G36*
G01*
X158018100Y-106695300D02*
X158218100Y-106695300D01*
G75*
G02*
X158268900Y-106746100I0J-50800D01*
G01*
X158268900Y-107621100D01*
G75*
G02*
X158218100Y-107671900I-50800J0D01*
G01*
X158018100Y-107671900D01*
G75*
G02*
X157967300Y-107621100I0J50800D01*
G01*
X157967300Y-106746100D01*
G75*
G02*
X158018100Y-106695300I50800J0D01*
G01*
G37*
G36*
G01*
X158418100Y-106695300D02*
X158618100Y-106695300D01*
G75*
G02*
X158668900Y-106746100I0J-50800D01*
G01*
X158668900Y-107621100D01*
G75*
G02*
X158618100Y-107671900I-50800J0D01*
G01*
X158418100Y-107671900D01*
G75*
G02*
X158367300Y-107621100I0J50800D01*
G01*
X158367300Y-106746100D01*
G75*
G02*
X158418100Y-106695300I50800J0D01*
G01*
G37*
G36*
G01*
X158818100Y-106695300D02*
X159018100Y-106695300D01*
G75*
G02*
X159068900Y-106746100I0J-50800D01*
G01*
X159068900Y-107621100D01*
G75*
G02*
X159018100Y-107671900I-50800J0D01*
G01*
X158818100Y-107671900D01*
G75*
G02*
X158767300Y-107621100I0J50800D01*
G01*
X158767300Y-106746100D01*
G75*
G02*
X158818100Y-106695300I50800J0D01*
G01*
G37*
G36*
G01*
X159218100Y-106695300D02*
X159418100Y-106695300D01*
G75*
G02*
X159468900Y-106746100I0J-50800D01*
G01*
X159468900Y-107621100D01*
G75*
G02*
X159418100Y-107671900I-50800J0D01*
G01*
X159218100Y-107671900D01*
G75*
G02*
X159167300Y-107621100I0J50800D01*
G01*
X159167300Y-106746100D01*
G75*
G02*
X159218100Y-106695300I50800J0D01*
G01*
G37*
G36*
G01*
X159618100Y-106695300D02*
X159818100Y-106695300D01*
G75*
G02*
X159868900Y-106746100I0J-50800D01*
G01*
X159868900Y-107621100D01*
G75*
G02*
X159818100Y-107671900I-50800J0D01*
G01*
X159618100Y-107671900D01*
G75*
G02*
X159567300Y-107621100I0J50800D01*
G01*
X159567300Y-106746100D01*
G75*
G02*
X159618100Y-106695300I50800J0D01*
G01*
G37*
G36*
G01*
X160018100Y-106695300D02*
X160218100Y-106695300D01*
G75*
G02*
X160268900Y-106746100I0J-50800D01*
G01*
X160268900Y-107621100D01*
G75*
G02*
X160218100Y-107671900I-50800J0D01*
G01*
X160018100Y-107671900D01*
G75*
G02*
X159967300Y-107621100I0J50800D01*
G01*
X159967300Y-106746100D01*
G75*
G02*
X160018100Y-106695300I50800J0D01*
G01*
G37*
G36*
G01*
X160479800Y-106433600D02*
X160479800Y-106233600D01*
G75*
G02*
X160530600Y-106182800I50800J0D01*
G01*
X161405600Y-106182800D01*
G75*
G02*
X161456400Y-106233600I0J-50800D01*
G01*
X161456400Y-106433600D01*
G75*
G02*
X161405600Y-106484400I-50800J0D01*
G01*
X160530600Y-106484400D01*
G75*
G02*
X160479800Y-106433600I0J50800D01*
G01*
G37*
G36*
G01*
X160479800Y-106033600D02*
X160479800Y-105833600D01*
G75*
G02*
X160530600Y-105782800I50800J0D01*
G01*
X161405600Y-105782800D01*
G75*
G02*
X161456400Y-105833600I0J-50800D01*
G01*
X161456400Y-106033600D01*
G75*
G02*
X161405600Y-106084400I-50800J0D01*
G01*
X160530600Y-106084400D01*
G75*
G02*
X160479800Y-106033600I0J50800D01*
G01*
G37*
G36*
G01*
X160479800Y-105633600D02*
X160479800Y-105433600D01*
G75*
G02*
X160530600Y-105382800I50800J0D01*
G01*
X161405600Y-105382800D01*
G75*
G02*
X161456400Y-105433600I0J-50800D01*
G01*
X161456400Y-105633600D01*
G75*
G02*
X161405600Y-105684400I-50800J0D01*
G01*
X160530600Y-105684400D01*
G75*
G02*
X160479800Y-105633600I0J50800D01*
G01*
G37*
G36*
G01*
X160479800Y-105233600D02*
X160479800Y-105033600D01*
G75*
G02*
X160530600Y-104982800I50800J0D01*
G01*
X161405600Y-104982800D01*
G75*
G02*
X161456400Y-105033600I0J-50800D01*
G01*
X161456400Y-105233600D01*
G75*
G02*
X161405600Y-105284400I-50800J0D01*
G01*
X160530600Y-105284400D01*
G75*
G02*
X160479800Y-105233600I0J50800D01*
G01*
G37*
G36*
G01*
X160479800Y-104833600D02*
X160479800Y-104633600D01*
G75*
G02*
X160530600Y-104582800I50800J0D01*
G01*
X161405600Y-104582800D01*
G75*
G02*
X161456400Y-104633600I0J-50800D01*
G01*
X161456400Y-104833600D01*
G75*
G02*
X161405600Y-104884400I-50800J0D01*
G01*
X160530600Y-104884400D01*
G75*
G02*
X160479800Y-104833600I0J50800D01*
G01*
G37*
G36*
G01*
X160479800Y-104433600D02*
X160479800Y-104233600D01*
G75*
G02*
X160530600Y-104182800I50800J0D01*
G01*
X161405600Y-104182800D01*
G75*
G02*
X161456400Y-104233600I0J-50800D01*
G01*
X161456400Y-104433600D01*
G75*
G02*
X161405600Y-104484400I-50800J0D01*
G01*
X160530600Y-104484400D01*
G75*
G02*
X160479800Y-104433600I0J50800D01*
G01*
G37*
G36*
G01*
X160479800Y-104033600D02*
X160479800Y-103833600D01*
G75*
G02*
X160530600Y-103782800I50800J0D01*
G01*
X161405600Y-103782800D01*
G75*
G02*
X161456400Y-103833600I0J-50800D01*
G01*
X161456400Y-104033600D01*
G75*
G02*
X161405600Y-104084400I-50800J0D01*
G01*
X160530600Y-104084400D01*
G75*
G02*
X160479800Y-104033600I0J50800D01*
G01*
G37*
G36*
G01*
X160479800Y-103633600D02*
X160479800Y-103433600D01*
G75*
G02*
X160530600Y-103382800I50800J0D01*
G01*
X161405600Y-103382800D01*
G75*
G02*
X161456400Y-103433600I0J-50800D01*
G01*
X161456400Y-103633600D01*
G75*
G02*
X161405600Y-103684400I-50800J0D01*
G01*
X160530600Y-103684400D01*
G75*
G02*
X160479800Y-103633600I0J50800D01*
G01*
G37*
G36*
G01*
X160479800Y-103233600D02*
X160479800Y-103033600D01*
G75*
G02*
X160530600Y-102982800I50800J0D01*
G01*
X161405600Y-102982800D01*
G75*
G02*
X161456400Y-103033600I0J-50800D01*
G01*
X161456400Y-103233600D01*
G75*
G02*
X161405600Y-103284400I-50800J0D01*
G01*
X160530600Y-103284400D01*
G75*
G02*
X160479800Y-103233600I0J50800D01*
G01*
G37*
G36*
G01*
X160479800Y-102833600D02*
X160479800Y-102633600D01*
G75*
G02*
X160530600Y-102582800I50800J0D01*
G01*
X161405600Y-102582800D01*
G75*
G02*
X161456400Y-102633600I0J-50800D01*
G01*
X161456400Y-102833600D01*
G75*
G02*
X161405600Y-102884400I-50800J0D01*
G01*
X160530600Y-102884400D01*
G75*
G02*
X160479800Y-102833600I0J50800D01*
G01*
G37*
G36*
G01*
X160479800Y-102433600D02*
X160479800Y-102233600D01*
G75*
G02*
X160530600Y-102182800I50800J0D01*
G01*
X161405600Y-102182800D01*
G75*
G02*
X161456400Y-102233600I0J-50800D01*
G01*
X161456400Y-102433600D01*
G75*
G02*
X161405600Y-102484400I-50800J0D01*
G01*
X160530600Y-102484400D01*
G75*
G02*
X160479800Y-102433600I0J50800D01*
G01*
G37*
G36*
G01*
X160479800Y-102033600D02*
X160479800Y-101833600D01*
G75*
G02*
X160530600Y-101782800I50800J0D01*
G01*
X161405600Y-101782800D01*
G75*
G02*
X161456400Y-101833600I0J-50800D01*
G01*
X161456400Y-102033600D01*
G75*
G02*
X161405600Y-102084400I-50800J0D01*
G01*
X160530600Y-102084400D01*
G75*
G02*
X160479800Y-102033600I0J50800D01*
G01*
G37*
G36*
G01*
X160479800Y-101633600D02*
X160479800Y-101433600D01*
G75*
G02*
X160530600Y-101382800I50800J0D01*
G01*
X161405600Y-101382800D01*
G75*
G02*
X161456400Y-101433600I0J-50800D01*
G01*
X161456400Y-101633600D01*
G75*
G02*
X161405600Y-101684400I-50800J0D01*
G01*
X160530600Y-101684400D01*
G75*
G02*
X160479800Y-101633600I0J50800D01*
G01*
G37*
G36*
G01*
X160479800Y-101233600D02*
X160479800Y-101033600D01*
G75*
G02*
X160530600Y-100982800I50800J0D01*
G01*
X161405600Y-100982800D01*
G75*
G02*
X161456400Y-101033600I0J-50800D01*
G01*
X161456400Y-101233600D01*
G75*
G02*
X161405600Y-101284400I-50800J0D01*
G01*
X160530600Y-101284400D01*
G75*
G02*
X160479800Y-101233600I0J50800D01*
G01*
G37*
G36*
G01*
X156032380Y-102082800D02*
X159003820Y-102082800D01*
G75*
G02*
X159168900Y-102247880I0J-165080D01*
G01*
X159168900Y-105219320D01*
G75*
G02*
X159003820Y-105384400I-165080J0D01*
G01*
X156032380Y-105384400D01*
G75*
G02*
X155867300Y-105219320I0J165080D01*
G01*
X155867300Y-102247880D01*
G75*
G02*
X156032380Y-102082800I165080J0D01*
G01*
G37*
%TD*%
%TO.C,R13*%
G36*
G01*
X128252600Y-95818300D02*
X129252600Y-95818300D01*
G75*
G02*
X129303400Y-95869100I0J-50800D01*
G01*
X129303400Y-96944100D01*
G75*
G02*
X129252600Y-96994900I-50800J0D01*
G01*
X128252600Y-96994900D01*
G75*
G02*
X128201800Y-96944100I0J50800D01*
G01*
X128201800Y-95869100D01*
G75*
G02*
X128252600Y-95818300I50800J0D01*
G01*
G37*
G36*
G01*
X128252600Y-97518300D02*
X129252600Y-97518300D01*
G75*
G02*
X129303400Y-97569100I0J-50800D01*
G01*
X129303400Y-98644100D01*
G75*
G02*
X129252600Y-98694900I-50800J0D01*
G01*
X128252600Y-98694900D01*
G75*
G02*
X128201800Y-98644100I0J50800D01*
G01*
X128201800Y-97569100D01*
G75*
G02*
X128252600Y-97518300I50800J0D01*
G01*
G37*
%TD*%
%TO.C,Y1*%
G36*
G01*
X150422100Y-97645300D02*
X151172100Y-97645300D01*
G75*
G02*
X151222900Y-97696100I0J-50800D01*
G01*
X151222900Y-98596100D01*
G75*
G02*
X151172100Y-98646900I-50800J0D01*
G01*
X150422100Y-98646900D01*
G75*
G02*
X150371300Y-98596100I0J50800D01*
G01*
X150371300Y-97696100D01*
G75*
G02*
X150422100Y-97645300I50800J0D01*
G01*
G37*
G36*
G01*
X150422100Y-99295300D02*
X151172100Y-99295300D01*
G75*
G02*
X151222900Y-99346100I0J-50800D01*
G01*
X151222900Y-100246100D01*
G75*
G02*
X151172100Y-100296900I-50800J0D01*
G01*
X150422100Y-100296900D01*
G75*
G02*
X150371300Y-100246100I0J50800D01*
G01*
X150371300Y-99346100D01*
G75*
G02*
X150422100Y-99295300I50800J0D01*
G01*
G37*
G36*
G01*
X151672100Y-99295300D02*
X152422100Y-99295300D01*
G75*
G02*
X152472900Y-99346100I0J-50800D01*
G01*
X152472900Y-100246100D01*
G75*
G02*
X152422100Y-100296900I-50800J0D01*
G01*
X151672100Y-100296900D01*
G75*
G02*
X151621300Y-100246100I0J50800D01*
G01*
X151621300Y-99346100D01*
G75*
G02*
X151672100Y-99295300I50800J0D01*
G01*
G37*
G36*
G01*
X151672100Y-97645300D02*
X152422100Y-97645300D01*
G75*
G02*
X152472900Y-97696100I0J-50800D01*
G01*
X152472900Y-98596100D01*
G75*
G02*
X152422100Y-98646900I-50800J0D01*
G01*
X151672100Y-98646900D01*
G75*
G02*
X151621300Y-98596100I0J50800D01*
G01*
X151621300Y-97696100D01*
G75*
G02*
X151672100Y-97645300I50800J0D01*
G01*
G37*
%TD*%
%TO.C,C15*%
G36*
G01*
X162321900Y-97201100D02*
X162321900Y-98201100D01*
G75*
G02*
X162271100Y-98251900I-50800J0D01*
G01*
X161196100Y-98251900D01*
G75*
G02*
X161145300Y-98201100I0J50800D01*
G01*
X161145300Y-97201100D01*
G75*
G02*
X161196100Y-97150300I50800J0D01*
G01*
X162271100Y-97150300D01*
G75*
G02*
X162321900Y-97201100I0J-50800D01*
G01*
G37*
G36*
G01*
X160621900Y-97201100D02*
X160621900Y-98201100D01*
G75*
G02*
X160571100Y-98251900I-50800J0D01*
G01*
X159496100Y-98251900D01*
G75*
G02*
X159445300Y-98201100I0J50800D01*
G01*
X159445300Y-97201100D01*
G75*
G02*
X159496100Y-97150300I50800J0D01*
G01*
X160571100Y-97150300D01*
G75*
G02*
X160621900Y-97201100I0J-50800D01*
G01*
G37*
%TD*%
%TO.C,C16*%
G36*
G01*
X165019100Y-106041800D02*
X166019100Y-106041800D01*
G75*
G02*
X166069900Y-106092600I0J-50800D01*
G01*
X166069900Y-107167600D01*
G75*
G02*
X166019100Y-107218400I-50800J0D01*
G01*
X165019100Y-107218400D01*
G75*
G02*
X164968300Y-107167600I0J50800D01*
G01*
X164968300Y-106092600D01*
G75*
G02*
X165019100Y-106041800I50800J0D01*
G01*
G37*
G36*
G01*
X165019100Y-107741800D02*
X166019100Y-107741800D01*
G75*
G02*
X166069900Y-107792600I0J-50800D01*
G01*
X166069900Y-108867600D01*
G75*
G02*
X166019100Y-108918400I-50800J0D01*
G01*
X165019100Y-108918400D01*
G75*
G02*
X164968300Y-108867600I0J50800D01*
G01*
X164968300Y-107792600D01*
G75*
G02*
X165019100Y-107741800I50800J0D01*
G01*
G37*
%TD*%
%TO.C,X6*%
G36*
G01*
X128674599Y-100195300D02*
X129824601Y-100195300D01*
G75*
G02*
X129875400Y-100246099I0J-50799D01*
G01*
X129875400Y-100821101D01*
G75*
G02*
X129824601Y-100871900I-50799J0D01*
G01*
X128674599Y-100871900D01*
G75*
G02*
X128623800Y-100821101I0J50799D01*
G01*
X128623800Y-100246099D01*
G75*
G02*
X128674599Y-100195300I50799J0D01*
G01*
G37*
G36*
G01*
X128674599Y-100995300D02*
X129824601Y-100995300D01*
G75*
G02*
X129875400Y-101046099I0J-50799D01*
G01*
X129875400Y-101621101D01*
G75*
G02*
X129824601Y-101671900I-50799J0D01*
G01*
X128674599Y-101671900D01*
G75*
G02*
X128623800Y-101621101I0J50799D01*
G01*
X128623800Y-101046099D01*
G75*
G02*
X128674599Y-100995300I50799J0D01*
G01*
G37*
G36*
G01*
X128674600Y-101795300D02*
X129824600Y-101795300D01*
G75*
G02*
X129875400Y-101846100I0J-50800D01*
G01*
X129875400Y-102121100D01*
G75*
G02*
X129824600Y-102171900I-50800J0D01*
G01*
X128674600Y-102171900D01*
G75*
G02*
X128623800Y-102121100I0J50800D01*
G01*
X128623800Y-101846100D01*
G75*
G02*
X128674600Y-101795300I50800J0D01*
G01*
G37*
G36*
G01*
X128674600Y-102295300D02*
X129824600Y-102295300D01*
G75*
G02*
X129875400Y-102346100I0J-50800D01*
G01*
X129875400Y-102621100D01*
G75*
G02*
X129824600Y-102671900I-50800J0D01*
G01*
X128674600Y-102671900D01*
G75*
G02*
X128623800Y-102621100I0J50800D01*
G01*
X128623800Y-102346100D01*
G75*
G02*
X128674600Y-102295300I50800J0D01*
G01*
G37*
G36*
G01*
X128674600Y-102795300D02*
X129824600Y-102795300D01*
G75*
G02*
X129875400Y-102846100I0J-50800D01*
G01*
X129875400Y-103121100D01*
G75*
G02*
X129824600Y-103171900I-50800J0D01*
G01*
X128674600Y-103171900D01*
G75*
G02*
X128623800Y-103121100I0J50800D01*
G01*
X128623800Y-102846100D01*
G75*
G02*
X128674600Y-102795300I50800J0D01*
G01*
G37*
G36*
G01*
X128674600Y-103295300D02*
X129824600Y-103295300D01*
G75*
G02*
X129875400Y-103346100I0J-50800D01*
G01*
X129875400Y-103621100D01*
G75*
G02*
X129824600Y-103671900I-50800J0D01*
G01*
X128674600Y-103671900D01*
G75*
G02*
X128623800Y-103621100I0J50800D01*
G01*
X128623800Y-103346100D01*
G75*
G02*
X128674600Y-103295300I50800J0D01*
G01*
G37*
G36*
G01*
X128674600Y-103795300D02*
X129824600Y-103795300D01*
G75*
G02*
X129875400Y-103846100I0J-50800D01*
G01*
X129875400Y-104121100D01*
G75*
G02*
X129824600Y-104171900I-50800J0D01*
G01*
X128674600Y-104171900D01*
G75*
G02*
X128623800Y-104121100I0J50800D01*
G01*
X128623800Y-103846100D01*
G75*
G02*
X128674600Y-103795300I50800J0D01*
G01*
G37*
G36*
G01*
X128674600Y-104295300D02*
X129824600Y-104295300D01*
G75*
G02*
X129875400Y-104346100I0J-50800D01*
G01*
X129875400Y-104621100D01*
G75*
G02*
X129824600Y-104671900I-50800J0D01*
G01*
X128674600Y-104671900D01*
G75*
G02*
X128623800Y-104621100I0J50800D01*
G01*
X128623800Y-104346100D01*
G75*
G02*
X128674600Y-104295300I50800J0D01*
G01*
G37*
G36*
G01*
X128674600Y-104795300D02*
X129824600Y-104795300D01*
G75*
G02*
X129875400Y-104846100I0J-50800D01*
G01*
X129875400Y-105121100D01*
G75*
G02*
X129824600Y-105171900I-50800J0D01*
G01*
X128674600Y-105171900D01*
G75*
G02*
X128623800Y-105121100I0J50800D01*
G01*
X128623800Y-104846100D01*
G75*
G02*
X128674600Y-104795300I50800J0D01*
G01*
G37*
G36*
G01*
X128674600Y-105295300D02*
X129824600Y-105295300D01*
G75*
G02*
X129875400Y-105346100I0J-50800D01*
G01*
X129875400Y-105621100D01*
G75*
G02*
X129824600Y-105671900I-50800J0D01*
G01*
X128674600Y-105671900D01*
G75*
G02*
X128623800Y-105621100I0J50800D01*
G01*
X128623800Y-105346100D01*
G75*
G02*
X128674600Y-105295300I50800J0D01*
G01*
G37*
G36*
G01*
X128674599Y-105795300D02*
X129824601Y-105795300D01*
G75*
G02*
X129875400Y-105846099I0J-50799D01*
G01*
X129875400Y-106421101D01*
G75*
G02*
X129824601Y-106471900I-50799J0D01*
G01*
X128674599Y-106471900D01*
G75*
G02*
X128623800Y-106421101I0J50799D01*
G01*
X128623800Y-105846099D01*
G75*
G02*
X128674599Y-105795300I50799J0D01*
G01*
G37*
G36*
G01*
X128674599Y-106595300D02*
X129824601Y-106595300D01*
G75*
G02*
X129875400Y-106646099I0J-50799D01*
G01*
X129875400Y-107221101D01*
G75*
G02*
X129824601Y-107271900I-50799J0D01*
G01*
X128674599Y-107271900D01*
G75*
G02*
X128623800Y-107221101I0J50799D01*
G01*
X128623800Y-106646099D01*
G75*
G02*
X128674599Y-106595300I50799J0D01*
G01*
G37*
D16*
X124494600Y-99413600D03*
X124494600Y-108053600D03*
X128674600Y-108053600D03*
X128674600Y-99413600D03*
D17*
X128174600Y-106623600D03*
X128174600Y-100843600D03*
%TD*%
%TO.C,C14*%
G36*
G01*
X155635300Y-98010600D02*
X155635300Y-97010600D01*
G75*
G02*
X155686100Y-96959800I50800J0D01*
G01*
X156761100Y-96959800D01*
G75*
G02*
X156811900Y-97010600I0J-50800D01*
G01*
X156811900Y-98010600D01*
G75*
G02*
X156761100Y-98061400I-50800J0D01*
G01*
X155686100Y-98061400D01*
G75*
G02*
X155635300Y-98010600I0J50800D01*
G01*
G37*
G36*
G01*
X157335300Y-98010600D02*
X157335300Y-97010600D01*
G75*
G02*
X157386100Y-96959800I50800J0D01*
G01*
X158461100Y-96959800D01*
G75*
G02*
X158511900Y-97010600I0J-50800D01*
G01*
X158511900Y-98010600D01*
G75*
G02*
X158461100Y-98061400I-50800J0D01*
G01*
X157386100Y-98061400D01*
G75*
G02*
X157335300Y-98010600I0J50800D01*
G01*
G37*
%TD*%
%TO.C,Q3*%
G36*
G01*
X134099300Y-104892600D02*
X134099300Y-103876600D01*
G75*
G02*
X134150100Y-103825800I50800J0D01*
G01*
X134785100Y-103825800D01*
G75*
G02*
X134835900Y-103876600I0J-50800D01*
G01*
X134835900Y-104892600D01*
G75*
G02*
X134785100Y-104943400I-50800J0D01*
G01*
X134150100Y-104943400D01*
G75*
G02*
X134099300Y-104892600I0J50800D01*
G01*
G37*
G36*
G01*
X135049300Y-106892600D02*
X135049300Y-105876600D01*
G75*
G02*
X135100100Y-105825800I50800J0D01*
G01*
X135735100Y-105825800D01*
G75*
G02*
X135785900Y-105876600I0J-50800D01*
G01*
X135785900Y-106892600D01*
G75*
G02*
X135735100Y-106943400I-50800J0D01*
G01*
X135100100Y-106943400D01*
G75*
G02*
X135049300Y-106892600I0J50800D01*
G01*
G37*
G36*
G01*
X133149300Y-106892600D02*
X133149300Y-105876600D01*
G75*
G02*
X133200100Y-105825800I50800J0D01*
G01*
X133835100Y-105825800D01*
G75*
G02*
X133885900Y-105876600I0J-50800D01*
G01*
X133885900Y-106892600D01*
G75*
G02*
X133835100Y-106943400I-50800J0D01*
G01*
X133200100Y-106943400D01*
G75*
G02*
X133149300Y-106892600I0J50800D01*
G01*
G37*
%TD*%
%TO.C,CHG*%
G36*
G01*
X125229100Y-109315300D02*
X126029100Y-109315300D01*
G75*
G02*
X126079900Y-109366100I0J-50800D01*
G01*
X126079900Y-110166100D01*
G75*
G02*
X126029100Y-110216900I-50800J0D01*
G01*
X125229100Y-110216900D01*
G75*
G02*
X125178300Y-110166100I0J50800D01*
G01*
X125178300Y-109366100D01*
G75*
G02*
X125229100Y-109315300I50800J0D01*
G01*
G37*
G36*
G01*
X123729100Y-109315300D02*
X124529100Y-109315300D01*
G75*
G02*
X124579900Y-109366100I0J-50800D01*
G01*
X124579900Y-110166100D01*
G75*
G02*
X124529100Y-110216900I-50800J0D01*
G01*
X123729100Y-110216900D01*
G75*
G02*
X123678300Y-110166100I0J50800D01*
G01*
X123678300Y-109366100D01*
G75*
G02*
X123729100Y-109315300I50800J0D01*
G01*
G37*
%TD*%
%TO.C,D4*%
G36*
G01*
X136252600Y-102220800D02*
X137652600Y-102220800D01*
G75*
G02*
X137703400Y-102271600I0J-50800D01*
G01*
X137703400Y-103671600D01*
G75*
G02*
X137652600Y-103722400I-50800J0D01*
G01*
X136252600Y-103722400D01*
G75*
G02*
X136201800Y-103671600I0J50800D01*
G01*
X136201800Y-102271600D01*
G75*
G02*
X136252600Y-102220800I50800J0D01*
G01*
G37*
G36*
G01*
X132552600Y-102220800D02*
X133952600Y-102220800D01*
G75*
G02*
X134003400Y-102271600I0J-50800D01*
G01*
X134003400Y-103671600D01*
G75*
G02*
X133952600Y-103722400I-50800J0D01*
G01*
X132552600Y-103722400D01*
G75*
G02*
X132501800Y-103671600I0J50800D01*
G01*
X132501800Y-102271600D01*
G75*
G02*
X132552600Y-102220800I50800J0D01*
G01*
G37*
%TD*%
%TO.C,R8*%
G36*
G01*
X140014300Y-97248600D02*
X140014300Y-96248600D01*
G75*
G02*
X140065100Y-96197800I50800J0D01*
G01*
X141140100Y-96197800D01*
G75*
G02*
X141190900Y-96248600I0J-50800D01*
G01*
X141190900Y-97248600D01*
G75*
G02*
X141140100Y-97299400I-50800J0D01*
G01*
X140065100Y-97299400D01*
G75*
G02*
X140014300Y-97248600I0J50800D01*
G01*
G37*
G36*
G01*
X141714300Y-97248600D02*
X141714300Y-96248600D01*
G75*
G02*
X141765100Y-96197800I50800J0D01*
G01*
X142840100Y-96197800D01*
G75*
G02*
X142890900Y-96248600I0J-50800D01*
G01*
X142890900Y-97248600D01*
G75*
G02*
X142840100Y-97299400I-50800J0D01*
G01*
X141765100Y-97299400D01*
G75*
G02*
X141714300Y-97248600I0J50800D01*
G01*
G37*
%TD*%
%TO.C,R2*%
G36*
G01*
X127428600Y-111155100D02*
X127428600Y-110155100D01*
G75*
G02*
X127479400Y-110104300I50800J0D01*
G01*
X128554400Y-110104300D01*
G75*
G02*
X128605200Y-110155100I0J-50800D01*
G01*
X128605200Y-111155100D01*
G75*
G02*
X128554400Y-111205900I-50800J0D01*
G01*
X127479400Y-111205900D01*
G75*
G02*
X127428600Y-111155100I0J50800D01*
G01*
G37*
G36*
G01*
X129128600Y-111155100D02*
X129128600Y-110155100D01*
G75*
G02*
X129179400Y-110104300I50800J0D01*
G01*
X130254400Y-110104300D01*
G75*
G02*
X130305200Y-110155100I0J-50800D01*
G01*
X130305200Y-111155100D01*
G75*
G02*
X130254400Y-111205900I-50800J0D01*
G01*
X129179400Y-111205900D01*
G75*
G02*
X129128600Y-111155100I0J50800D01*
G01*
G37*
%TD*%
%TO.C,C10*%
G36*
G01*
X160009093Y-110385397D02*
X160009093Y-109385397D01*
G75*
G02*
X160059893Y-109334597I50800J0D01*
G01*
X161134893Y-109334597D01*
G75*
G02*
X161185693Y-109385397I0J-50800D01*
G01*
X161185693Y-110385397D01*
G75*
G02*
X161134893Y-110436197I-50800J0D01*
G01*
X160059893Y-110436197D01*
G75*
G02*
X160009093Y-110385397I0J50800D01*
G01*
G37*
G36*
G01*
X161709093Y-110385397D02*
X161709093Y-109385397D01*
G75*
G02*
X161759893Y-109334597I50800J0D01*
G01*
X162834893Y-109334597D01*
G75*
G02*
X162885693Y-109385397I0J-50800D01*
G01*
X162885693Y-110385397D01*
G75*
G02*
X162834893Y-110436197I-50800J0D01*
G01*
X161759893Y-110436197D01*
G75*
G02*
X161709093Y-110385397I0J50800D01*
G01*
G37*
%TD*%
%TO.C,C9*%
G36*
G01*
X146745300Y-97261300D02*
X146745300Y-96261300D01*
G75*
G02*
X146796100Y-96210500I50800J0D01*
G01*
X147871100Y-96210500D01*
G75*
G02*
X147921900Y-96261300I0J-50800D01*
G01*
X147921900Y-97261300D01*
G75*
G02*
X147871100Y-97312100I-50800J0D01*
G01*
X146796100Y-97312100D01*
G75*
G02*
X146745300Y-97261300I0J50800D01*
G01*
G37*
G36*
G01*
X148445300Y-97261300D02*
X148445300Y-96261300D01*
G75*
G02*
X148496100Y-96210500I50800J0D01*
G01*
X149571100Y-96210500D01*
G75*
G02*
X149621900Y-96261300I0J-50800D01*
G01*
X149621900Y-97261300D01*
G75*
G02*
X149571100Y-97312100I-50800J0D01*
G01*
X148496100Y-97312100D01*
G75*
G02*
X148445300Y-97261300I0J50800D01*
G01*
G37*
%TD*%
%TO.C,R5*%
G36*
G01*
X168284900Y-98556500D02*
X169284900Y-98556500D01*
G75*
G02*
X169335700Y-98607300I0J-50800D01*
G01*
X169335700Y-99682300D01*
G75*
G02*
X169284900Y-99733100I-50800J0D01*
G01*
X168284900Y-99733100D01*
G75*
G02*
X168234100Y-99682300I0J50800D01*
G01*
X168234100Y-98607300D01*
G75*
G02*
X168284900Y-98556500I50800J0D01*
G01*
G37*
G36*
G01*
X168284900Y-100256500D02*
X169284900Y-100256500D01*
G75*
G02*
X169335700Y-100307300I0J-50800D01*
G01*
X169335700Y-101382300D01*
G75*
G02*
X169284900Y-101433100I-50800J0D01*
G01*
X168284900Y-101433100D01*
G75*
G02*
X168234100Y-101382300I0J50800D01*
G01*
X168234100Y-100307300D01*
G75*
G02*
X168284900Y-100256500I50800J0D01*
G01*
G37*
%TD*%
%TO.C,LED1*%
G36*
G01*
X141254900Y-107931900D02*
X141254900Y-106931900D01*
G75*
G02*
X141305700Y-106881100I50800J0D01*
G01*
X142155700Y-106881100D01*
G75*
G02*
X142206500Y-106931900I0J-50800D01*
G01*
X142206500Y-107931900D01*
G75*
G02*
X142155700Y-107982700I-50800J0D01*
G01*
X141305700Y-107982700D01*
G75*
G02*
X141254900Y-107931900I0J50800D01*
G01*
G37*
G36*
G01*
X141254900Y-111431900D02*
X141254900Y-110431900D01*
G75*
G02*
X141305700Y-110381100I50800J0D01*
G01*
X142155700Y-110381100D01*
G75*
G02*
X142206500Y-110431900I0J-50800D01*
G01*
X142206500Y-111431900D01*
G75*
G02*
X142155700Y-111482700I-50800J0D01*
G01*
X141305700Y-111482700D01*
G75*
G02*
X141254900Y-111431900I0J50800D01*
G01*
G37*
G36*
G01*
X139504900Y-107931900D02*
X139504900Y-106931900D01*
G75*
G02*
X139555700Y-106881100I50800J0D01*
G01*
X140405700Y-106881100D01*
G75*
G02*
X140456500Y-106931900I0J-50800D01*
G01*
X140456500Y-107931900D01*
G75*
G02*
X140405700Y-107982700I-50800J0D01*
G01*
X139555700Y-107982700D01*
G75*
G02*
X139504900Y-107931900I0J50800D01*
G01*
G37*
G36*
G01*
X139504900Y-111431900D02*
X139504900Y-110431900D01*
G75*
G02*
X139555700Y-110381100I50800J0D01*
G01*
X140405700Y-110381100D01*
G75*
G02*
X140456500Y-110431900I0J-50800D01*
G01*
X140456500Y-111431900D01*
G75*
G02*
X140405700Y-111482700I-50800J0D01*
G01*
X139555700Y-111482700D01*
G75*
G02*
X139504900Y-111431900I0J50800D01*
G01*
G37*
%TD*%
%TO.C,C5*%
G36*
G01*
X164739200Y-94390000D02*
X164739200Y-92890000D01*
G75*
G02*
X164790000Y-92839200I50800J0D01*
G01*
X166030000Y-92839200D01*
G75*
G02*
X166080800Y-92890000I0J-50800D01*
G01*
X166080800Y-94390000D01*
G75*
G02*
X166030000Y-94440800I-50800J0D01*
G01*
X164790000Y-94440800D01*
G75*
G02*
X164739200Y-94390000I0J50800D01*
G01*
G37*
G36*
G01*
X166639200Y-94390000D02*
X166639200Y-92890000D01*
G75*
G02*
X166690000Y-92839200I50800J0D01*
G01*
X167930000Y-92839200D01*
G75*
G02*
X167980800Y-92890000I0J-50800D01*
G01*
X167980800Y-94390000D01*
G75*
G02*
X167930000Y-94440800I-50800J0D01*
G01*
X166690000Y-94440800D01*
G75*
G02*
X166639200Y-94390000I0J50800D01*
G01*
G37*
%TD*%
%TO.C,R3*%
G36*
G01*
X142562200Y-105235400D02*
X141562200Y-105235400D01*
G75*
G02*
X141511400Y-105184600I0J50800D01*
G01*
X141511400Y-104109600D01*
G75*
G02*
X141562200Y-104058800I50800J0D01*
G01*
X142562200Y-104058800D01*
G75*
G02*
X142613000Y-104109600I0J-50800D01*
G01*
X142613000Y-105184600D01*
G75*
G02*
X142562200Y-105235400I-50800J0D01*
G01*
G37*
G36*
G01*
X142562200Y-103535400D02*
X141562200Y-103535400D01*
G75*
G02*
X141511400Y-103484600I0J50800D01*
G01*
X141511400Y-102409600D01*
G75*
G02*
X141562200Y-102358800I50800J0D01*
G01*
X142562200Y-102358800D01*
G75*
G02*
X142613000Y-102409600I0J-50800D01*
G01*
X142613000Y-103484600D01*
G75*
G02*
X142562200Y-103535400I-50800J0D01*
G01*
G37*
%TD*%
%TO.C,U1*%
G36*
G01*
X166510800Y-95380000D02*
X166510800Y-97580000D01*
G75*
G02*
X166460000Y-97630800I-50800J0D01*
G01*
X165860000Y-97630800D01*
G75*
G02*
X165809200Y-97580000I0J50800D01*
G01*
X165809200Y-95380000D01*
G75*
G02*
X165860000Y-95329200I50800J0D01*
G01*
X166460000Y-95329200D01*
G75*
G02*
X166510800Y-95380000I0J-50800D01*
G01*
G37*
G36*
G01*
X166510800Y-102010000D02*
X166510800Y-104210000D01*
G75*
G02*
X166460000Y-104260800I-50800J0D01*
G01*
X165860000Y-104260800D01*
G75*
G02*
X165809200Y-104210000I0J50800D01*
G01*
X165809200Y-102010000D01*
G75*
G02*
X165860000Y-101959200I50800J0D01*
G01*
X166460000Y-101959200D01*
G75*
G02*
X166510800Y-102010000I0J-50800D01*
G01*
G37*
G36*
G01*
X167780800Y-95380000D02*
X167780800Y-97580000D01*
G75*
G02*
X167730000Y-97630800I-50800J0D01*
G01*
X167130000Y-97630800D01*
G75*
G02*
X167079200Y-97580000I0J50800D01*
G01*
X167079200Y-95380000D01*
G75*
G02*
X167130000Y-95329200I50800J0D01*
G01*
X167730000Y-95329200D01*
G75*
G02*
X167780800Y-95380000I0J-50800D01*
G01*
G37*
G36*
G01*
X165240800Y-95380000D02*
X165240800Y-97580000D01*
G75*
G02*
X165190000Y-97630800I-50800J0D01*
G01*
X164590000Y-97630800D01*
G75*
G02*
X164539200Y-97580000I0J50800D01*
G01*
X164539200Y-95380000D01*
G75*
G02*
X164590000Y-95329200I50800J0D01*
G01*
X165190000Y-95329200D01*
G75*
G02*
X165240800Y-95380000I0J-50800D01*
G01*
G37*
G36*
G01*
X163970800Y-95380000D02*
X163970800Y-97580000D01*
G75*
G02*
X163920000Y-97630800I-50800J0D01*
G01*
X163320000Y-97630800D01*
G75*
G02*
X163269200Y-97580000I0J50800D01*
G01*
X163269200Y-95380000D01*
G75*
G02*
X163320000Y-95329200I50800J0D01*
G01*
X163920000Y-95329200D01*
G75*
G02*
X163970800Y-95380000I0J-50800D01*
G01*
G37*
G36*
G01*
X167780800Y-102010000D02*
X167780800Y-104210000D01*
G75*
G02*
X167730000Y-104260800I-50800J0D01*
G01*
X167130000Y-104260800D01*
G75*
G02*
X167079200Y-104210000I0J50800D01*
G01*
X167079200Y-102010000D01*
G75*
G02*
X167130000Y-101959200I50800J0D01*
G01*
X167730000Y-101959200D01*
G75*
G02*
X167780800Y-102010000I0J-50800D01*
G01*
G37*
G36*
G01*
X165240800Y-102010000D02*
X165240800Y-104210000D01*
G75*
G02*
X165190000Y-104260800I-50800J0D01*
G01*
X164590000Y-104260800D01*
G75*
G02*
X164539200Y-104210000I0J50800D01*
G01*
X164539200Y-102010000D01*
G75*
G02*
X164590000Y-101959200I50800J0D01*
G01*
X165190000Y-101959200D01*
G75*
G02*
X165240800Y-102010000I0J-50800D01*
G01*
G37*
G36*
G01*
X163970800Y-102010000D02*
X163970800Y-104210000D01*
G75*
G02*
X163920000Y-104260800I-50800J0D01*
G01*
X163320000Y-104260800D01*
G75*
G02*
X163269200Y-104210000I0J50800D01*
G01*
X163269200Y-102010000D01*
G75*
G02*
X163320000Y-101959200I50800J0D01*
G01*
X163920000Y-101959200D01*
G75*
G02*
X163970800Y-102010000I0J-50800D01*
G01*
G37*
%TD*%
%TO.C,C20*%
G36*
G01*
X138226100Y-96334300D02*
X139726100Y-96334300D01*
G75*
G02*
X139776900Y-96385100I0J-50800D01*
G01*
X139776900Y-97625100D01*
G75*
G02*
X139726100Y-97675900I-50800J0D01*
G01*
X138226100Y-97675900D01*
G75*
G02*
X138175300Y-97625100I0J50800D01*
G01*
X138175300Y-96385100D01*
G75*
G02*
X138226100Y-96334300I50800J0D01*
G01*
G37*
G36*
G01*
X138226100Y-98234300D02*
X139726100Y-98234300D01*
G75*
G02*
X139776900Y-98285100I0J-50800D01*
G01*
X139776900Y-99525100D01*
G75*
G02*
X139726100Y-99575900I-50800J0D01*
G01*
X138226100Y-99575900D01*
G75*
G02*
X138175300Y-99525100I0J50800D01*
G01*
X138175300Y-98285100D01*
G75*
G02*
X138226100Y-98234300I50800J0D01*
G01*
G37*
%TD*%
%TO.C,U2*%
G36*
G01*
X138335300Y-106078200D02*
X138335300Y-104878200D01*
G75*
G02*
X138386100Y-104827400I50800J0D01*
G01*
X138936100Y-104827400D01*
G75*
G02*
X138986900Y-104878200I0J-50800D01*
G01*
X138986900Y-106078200D01*
G75*
G02*
X138936100Y-106129000I-50800J0D01*
G01*
X138386100Y-106129000D01*
G75*
G02*
X138335300Y-106078200I0J50800D01*
G01*
G37*
G36*
G01*
X139285300Y-106078200D02*
X139285300Y-104878200D01*
G75*
G02*
X139336100Y-104827400I50800J0D01*
G01*
X139886100Y-104827400D01*
G75*
G02*
X139936900Y-104878200I0J-50800D01*
G01*
X139936900Y-106078200D01*
G75*
G02*
X139886100Y-106129000I-50800J0D01*
G01*
X139336100Y-106129000D01*
G75*
G02*
X139285300Y-106078200I0J50800D01*
G01*
G37*
G36*
G01*
X140235300Y-106078200D02*
X140235300Y-104878200D01*
G75*
G02*
X140286100Y-104827400I50800J0D01*
G01*
X140836100Y-104827400D01*
G75*
G02*
X140886900Y-104878200I0J-50800D01*
G01*
X140886900Y-106078200D01*
G75*
G02*
X140836100Y-106129000I-50800J0D01*
G01*
X140286100Y-106129000D01*
G75*
G02*
X140235300Y-106078200I0J50800D01*
G01*
G37*
G36*
G01*
X140235300Y-103478000D02*
X140235300Y-102278000D01*
G75*
G02*
X140286100Y-102227200I50800J0D01*
G01*
X140836100Y-102227200D01*
G75*
G02*
X140886900Y-102278000I0J-50800D01*
G01*
X140886900Y-103478000D01*
G75*
G02*
X140836100Y-103528800I-50800J0D01*
G01*
X140286100Y-103528800D01*
G75*
G02*
X140235300Y-103478000I0J50800D01*
G01*
G37*
G36*
G01*
X138335300Y-103478000D02*
X138335300Y-102278000D01*
G75*
G02*
X138386100Y-102227200I50800J0D01*
G01*
X138936100Y-102227200D01*
G75*
G02*
X138986900Y-102278000I0J-50800D01*
G01*
X138986900Y-103478000D01*
G75*
G02*
X138936100Y-103528800I-50800J0D01*
G01*
X138386100Y-103528800D01*
G75*
G02*
X138335300Y-103478000I0J50800D01*
G01*
G37*
%TD*%
D18*
%TO.C,U$32*%
X125641100Y-112623600D03*
%TD*%
%TO.C,SW1*%
G36*
G01*
X133362900Y-109100100D02*
X133362900Y-110000100D01*
G75*
G02*
X133312100Y-110050900I-50800J0D01*
G01*
X132412100Y-110050900D01*
G75*
G02*
X132361300Y-110000100I0J50800D01*
G01*
X132361300Y-109100100D01*
G75*
G02*
X132412100Y-109049300I50800J0D01*
G01*
X133312100Y-109049300D01*
G75*
G02*
X133362900Y-109100100I0J-50800D01*
G01*
G37*
G36*
G01*
X133362900Y-107500100D02*
X133362900Y-108400100D01*
G75*
G02*
X133312100Y-108450900I-50800J0D01*
G01*
X132412100Y-108450900D01*
G75*
G02*
X132361300Y-108400100I0J50800D01*
G01*
X132361300Y-107500100D01*
G75*
G02*
X132412100Y-107449300I50800J0D01*
G01*
X133312100Y-107449300D01*
G75*
G02*
X133362900Y-107500100I0J-50800D01*
G01*
G37*
G36*
G01*
X137462900Y-107500100D02*
X137462900Y-108400100D01*
G75*
G02*
X137412100Y-108450900I-50800J0D01*
G01*
X136512100Y-108450900D01*
G75*
G02*
X136461300Y-108400100I0J50800D01*
G01*
X136461300Y-107500100D01*
G75*
G02*
X136512100Y-107449300I50800J0D01*
G01*
X137412100Y-107449300D01*
G75*
G02*
X137462900Y-107500100I0J-50800D01*
G01*
G37*
G36*
G01*
X137462900Y-109100100D02*
X137462900Y-110000100D01*
G75*
G02*
X137412100Y-110050900I-50800J0D01*
G01*
X136512100Y-110050900D01*
G75*
G02*
X136461300Y-110000100I0J50800D01*
G01*
X136461300Y-109100100D01*
G75*
G02*
X136512100Y-109049300I50800J0D01*
G01*
X137412100Y-109049300D01*
G75*
G02*
X137462900Y-109100100I0J-50800D01*
G01*
G37*
%TD*%
%TO.C,U$34*%
G36*
G01*
X133896100Y-94165800D02*
X133896100Y-94165800D01*
G75*
G02*
X134446900Y-94716600I0J-550800D01*
G01*
X134446900Y-94716600D01*
G75*
G02*
X133896100Y-95267400I-550800J0D01*
G01*
X133896100Y-95267400D01*
G75*
G02*
X133345300Y-94716600I0J550800D01*
G01*
X133345300Y-94716600D01*
G75*
G02*
X133896100Y-94165800I550800J0D01*
G01*
G37*
%TD*%
%TO.C,C1*%
G36*
G01*
X136297600Y-103895800D02*
X137797600Y-103895800D01*
G75*
G02*
X137848400Y-103946600I0J-50800D01*
G01*
X137848400Y-105186600D01*
G75*
G02*
X137797600Y-105237400I-50800J0D01*
G01*
X136297600Y-105237400D01*
G75*
G02*
X136246800Y-105186600I0J50800D01*
G01*
X136246800Y-103946600D01*
G75*
G02*
X136297600Y-103895800I50800J0D01*
G01*
G37*
G36*
G01*
X136297600Y-105795800D02*
X137797600Y-105795800D01*
G75*
G02*
X137848400Y-105846600I0J-50800D01*
G01*
X137848400Y-107086600D01*
G75*
G02*
X137797600Y-107137400I-50800J0D01*
G01*
X136297600Y-107137400D01*
G75*
G02*
X136246800Y-107086600I0J50800D01*
G01*
X136246800Y-105846600D01*
G75*
G02*
X136297600Y-105795800I50800J0D01*
G01*
G37*
%TD*%
%TO.C,L*%
G36*
G01*
X124570600Y-98191900D02*
X123770600Y-98191900D01*
G75*
G02*
X123719800Y-98141100I0J50800D01*
G01*
X123719800Y-97341100D01*
G75*
G02*
X123770600Y-97290300I50800J0D01*
G01*
X124570600Y-97290300D01*
G75*
G02*
X124621400Y-97341100I0J-50800D01*
G01*
X124621400Y-98141100D01*
G75*
G02*
X124570600Y-98191900I-50800J0D01*
G01*
G37*
G36*
G01*
X126070600Y-98191900D02*
X125270600Y-98191900D01*
G75*
G02*
X125219800Y-98141100I0J50800D01*
G01*
X125219800Y-97341100D01*
G75*
G02*
X125270600Y-97290300I50800J0D01*
G01*
X126070600Y-97290300D01*
G75*
G02*
X126121400Y-97341100I0J-50800D01*
G01*
X126121400Y-98141100D01*
G75*
G02*
X126070600Y-98191900I-50800J0D01*
G01*
G37*
%TD*%
%TO.C,C4*%
G36*
G01*
X139774900Y-100522100D02*
X139774900Y-102022100D01*
G75*
G02*
X139724100Y-102072900I-50800J0D01*
G01*
X138484100Y-102072900D01*
G75*
G02*
X138433300Y-102022100I0J50800D01*
G01*
X138433300Y-100522100D01*
G75*
G02*
X138484100Y-100471300I50800J0D01*
G01*
X139724100Y-100471300D01*
G75*
G02*
X139774900Y-100522100I0J-50800D01*
G01*
G37*
G36*
G01*
X137874900Y-100522100D02*
X137874900Y-102022100D01*
G75*
G02*
X137824100Y-102072900I-50800J0D01*
G01*
X136584100Y-102072900D01*
G75*
G02*
X136533300Y-102022100I0J50800D01*
G01*
X136533300Y-100522100D01*
G75*
G02*
X136584100Y-100471300I50800J0D01*
G01*
X137824100Y-100471300D01*
G75*
G02*
X137874900Y-100522100I0J-50800D01*
G01*
G37*
%TD*%
%TO.C,U3*%
G36*
G01*
X140367300Y-101531600D02*
X140367300Y-100331600D01*
G75*
G02*
X140418100Y-100280800I50800J0D01*
G01*
X140968100Y-100280800D01*
G75*
G02*
X141018900Y-100331600I0J-50800D01*
G01*
X141018900Y-101531600D01*
G75*
G02*
X140968100Y-101582400I-50800J0D01*
G01*
X140418100Y-101582400D01*
G75*
G02*
X140367300Y-101531600I0J50800D01*
G01*
G37*
G36*
G01*
X141317300Y-101531600D02*
X141317300Y-100331600D01*
G75*
G02*
X141368100Y-100280800I50800J0D01*
G01*
X141918100Y-100280800D01*
G75*
G02*
X141968900Y-100331600I0J-50800D01*
G01*
X141968900Y-101531600D01*
G75*
G02*
X141918100Y-101582400I-50800J0D01*
G01*
X141368100Y-101582400D01*
G75*
G02*
X141317300Y-101531600I0J50800D01*
G01*
G37*
G36*
G01*
X142267300Y-101531600D02*
X142267300Y-100331600D01*
G75*
G02*
X142318100Y-100280800I50800J0D01*
G01*
X142868100Y-100280800D01*
G75*
G02*
X142918900Y-100331600I0J-50800D01*
G01*
X142918900Y-101531600D01*
G75*
G02*
X142868100Y-101582400I-50800J0D01*
G01*
X142318100Y-101582400D01*
G75*
G02*
X142267300Y-101531600I0J50800D01*
G01*
G37*
G36*
G01*
X142267300Y-98931400D02*
X142267300Y-97731400D01*
G75*
G02*
X142318100Y-97680600I50800J0D01*
G01*
X142868100Y-97680600D01*
G75*
G02*
X142918900Y-97731400I0J-50800D01*
G01*
X142918900Y-98931400D01*
G75*
G02*
X142868100Y-98982200I-50800J0D01*
G01*
X142318100Y-98982200D01*
G75*
G02*
X142267300Y-98931400I0J50800D01*
G01*
G37*
G36*
G01*
X140367300Y-98931400D02*
X140367300Y-97731400D01*
G75*
G02*
X140418100Y-97680600I50800J0D01*
G01*
X140968100Y-97680600D01*
G75*
G02*
X141018900Y-97731400I0J-50800D01*
G01*
X141018900Y-98931400D01*
G75*
G02*
X140968100Y-98982200I-50800J0D01*
G01*
X140418100Y-98982200D01*
G75*
G02*
X140367300Y-98931400I0J50800D01*
G01*
G37*
%TD*%
D15*
%TO.C,JP3*%
X139700000Y-90930000D03*
X142240000Y-90930000D03*
X144780000Y-90930000D03*
X147320000Y-90930000D03*
X149860000Y-90930000D03*
X152400000Y-90930000D03*
X154940000Y-90930000D03*
X157480000Y-90930000D03*
X160020000Y-90930000D03*
X162560000Y-90930000D03*
X165100000Y-90930000D03*
X167640000Y-90930000D03*
%TD*%
%TO.C,R7*%
G36*
G01*
X128290700Y-92821100D02*
X129290700Y-92821100D01*
G75*
G02*
X129341500Y-92871900I0J-50800D01*
G01*
X129341500Y-93946900D01*
G75*
G02*
X129290700Y-93997700I-50800J0D01*
G01*
X128290700Y-93997700D01*
G75*
G02*
X128239900Y-93946900I0J50800D01*
G01*
X128239900Y-92871900D01*
G75*
G02*
X128290700Y-92821100I50800J0D01*
G01*
G37*
G36*
G01*
X128290700Y-94521100D02*
X129290700Y-94521100D01*
G75*
G02*
X129341500Y-94571900I0J-50800D01*
G01*
X129341500Y-95646900D01*
G75*
G02*
X129290700Y-95697700I-50800J0D01*
G01*
X128290700Y-95697700D01*
G75*
G02*
X128239900Y-95646900I0J50800D01*
G01*
X128239900Y-94571900D01*
G75*
G02*
X128290700Y-94521100I50800J0D01*
G01*
G37*
%TD*%
%TO.C,X1*%
G36*
G01*
X132472300Y-101859600D02*
X132472300Y-97259600D01*
G75*
G02*
X132523100Y-97208800I50800J0D01*
G01*
X133523100Y-97208800D01*
G75*
G02*
X133573900Y-97259600I0J-50800D01*
G01*
X133573900Y-101859600D01*
G75*
G02*
X133523100Y-101910400I-50800J0D01*
G01*
X132523100Y-101910400D01*
G75*
G02*
X132472300Y-101859600I0J50800D01*
G01*
G37*
G36*
G01*
X134472300Y-101859600D02*
X134472300Y-97259600D01*
G75*
G02*
X134523100Y-97208800I50800J0D01*
G01*
X135523100Y-97208800D01*
G75*
G02*
X135573900Y-97259600I0J-50800D01*
G01*
X135573900Y-101859600D01*
G75*
G02*
X135523100Y-101910400I-50800J0D01*
G01*
X134523100Y-101910400D01*
G75*
G02*
X134472300Y-101859600I0J50800D01*
G01*
G37*
G36*
G01*
X131423100Y-96110400D02*
X129823100Y-96110400D01*
G75*
G02*
X129772300Y-96059600I0J50800D01*
G01*
X129772300Y-92659600D01*
G75*
G02*
X129823100Y-92608800I50800J0D01*
G01*
X131423100Y-92608800D01*
G75*
G02*
X131473900Y-92659600I0J-50800D01*
G01*
X131473900Y-96059600D01*
G75*
G02*
X131423100Y-96110400I-50800J0D01*
G01*
G37*
G36*
G01*
X138223100Y-96110400D02*
X136623100Y-96110400D01*
G75*
G02*
X136572300Y-96059600I0J50800D01*
G01*
X136572300Y-92659600D01*
G75*
G02*
X136623100Y-92608800I50800J0D01*
G01*
X138223100Y-92608800D01*
G75*
G02*
X138273900Y-92659600I0J-50800D01*
G01*
X138273900Y-96059600D01*
G75*
G02*
X138223100Y-96110400I-50800J0D01*
G01*
G37*
%TD*%
D18*
%TO.C,U$31*%
X125641100Y-94843600D03*
%TD*%
D19*
%TO.C,@HOLE0*%
X171361100Y-94843600D03*
%TD*%
M02*
